<svg xmlns="http://www.w3.org/2000/svg" viewBox="0 0 140 140" enable-background="new 0 0 140 140"><g fill="#010202"><path d="M25.3 40.8l1.4.8c-.5.5-.9 1-1.3 1.6-.5.9-.7 1.7-.5 2.5.2.7.7 1.3 1.6 1.9.9.5 1.7.7 2.4.5.7-.2 1.4-.7 1.9-1.5.4-.7.7-1.3.9-2l1.4.8c-.3.8-.6 1.5-1.1 2.2-.7 1.1-1.5 1.9-2.5 2.2-1.3.5-2.6.3-4-.6-1.3-.8-2-1.8-2.3-3-.2-1.2 0-2.4.8-3.7.3-.6.8-1.2 1.3-1.7zM29.9 34.9c.9-1 2-1.5 3.2-1.5 1.2 0 2.3.5 3.4 1.5s1.6 2.1 1.7 3.3c.1 1.2-.4 2.3-1.3 3.3-.9.9-1.9 1.4-2.9 1.5-1.3.1-2.6-.4-3.8-1.5-1.1-1-1.6-2.1-1.7-3.3 0-1.2.4-2.3 1.4-3.3zm1 1.1c-.5.6-.7 1.2-.6 2 .1.7.6 1.4 1.3 2.1.7.7 1.5 1.1 2.2 1.2.8.1 1.4-.2 2-.7.5-.5.7-1.2.7-1.8-.1-.8-.5-1.5-1.3-2.3-.8-.8-1.7-1.2-2.5-1.2-.7-.1-1.3.1-1.8.7zM41.1 36.8l-4.9-7.7 2.2-1.4 5.9 4.9-2-7.4 2.2-1.4 4.9 7.7-1.6 1-3.7-5.7 1.9 6.9-1.7 1.1-5.5-4.6 3.7 5.8-1.4.8zM51.7 30.6l-3-8.6 2.9-1c1-.3 1.8-.4 2.4-.2.6.2 1 .7 1.3 1.4.3.8.2 1.5-.4 2.2 1.1 0 1.8.6 2.2 1.6.6 1.7-.2 2.9-2.2 3.6l-3.2 1zm-.1-5.6l1.1-.4c.4-.1.6-.3.8-.6.1-.3.2-.6 0-1-.1-.4-.3-.6-.6-.7-.3-.1-.6-.1-1 0l-1.1.4.8 2.3zm1.3 3.7l1.3-.4c1-.3 1.3-.9 1-1.7-.1-.4-.3-.6-.6-.7-.3-.2-.8-.2-1.3 0l-1.3.4.9 2.4zM62.6 18.1c1.3-.1 2.4.1 3.4.9.9.7 1.5 1.9 1.7 3.3.2 1.5-.1 2.7-.8 3.6-.7 1-1.7 1.5-3.1 1.7-1.2.2-2.3-.1-3.1-.6-1.1-.7-1.8-1.9-2-3.5-.2-1.5.1-2.7.8-3.6.6-1 1.7-1.6 3.1-1.8zm.1 1.5c-.8.1-1.3.5-1.7 1.2-.3.6-.5 1.4-.3 2.4.1 1 .4 1.8.9 2.3.5.6 1.2.8 2 .7.7-.1 1.3-.4 1.7-1 .4-.6.6-1.5.4-2.6-.1-1.1-.5-2-1.2-2.5-.5-.5-1.1-.6-1.8-.5zM70.1 26.9l.7-9.1 3 .2c1 .1 1.8.4 2.3.8.5.4.7 1 .6 1.8-.1.8-.5 1.4-1.2 1.8 1 .5 1.4 1.3 1.4 2.4-.1 1.8-1.3 2.5-3.5 2.4l-3.3-.3zm1.9-1.2l1.3.1c1 .1 1.6-.3 1.6-1.2 0-.4-.1-.7-.3-.9-.3-.3-.6-.5-1.2-.5l-1.3-.1-.1 2.6zm.4-4l1.1.1c.4 0 .7 0 1-.2.3-.2.4-.5.4-.9s-.1-.7-.3-.9c-.2-.2-.5-.4-.9-.4l-1.1-.1-.2 2.4zM81.1 19l1.8.5-1.6 5.5c-.4 1.3.1 2.1 1.4 2.5 1.3.4 2.1-.1 2.5-1.4l1.6-5.5 1.8.5-1.6 5.6c-.7 2.3-2.3 3-4.8 2.3-1-.3-1.8-.7-2.3-1.3-.7-.8-.9-1.9-.5-3.2l1.7-5.5zM88.1 30.9l4.2-8.1 1.7.9-3.5 6.8 3.5 1.8-.7 1.4-5.2-2.8zM100.5 36.5l-3-2.4-1.9 1.1-1.5-1.2 8.6-4.9 1.6 1.3-2.9 9.4-1.5-1.2.6-2.1zm.5-1.6l1.3-3.8-3.4 2.1 2.1 1.7zM102.8 41.6l5.7-5-1.8-2 1.2-1 4.8 5.5-1.2 1-1.8-2-5.7 5-1.2-1.5zM106.6 46.3l7.8-4.8 2.9 4.8-1.3.8-2-3.2-1.9 1.1 1.9 3-1.3.8-1.9-3-2 1.2 2 3.3-1.3.8-2.9-4.8z"/></g><g fill="#fff"><path d="M60.6 58h-10l14 16.5-14 16.5h10l14-16.5zM76.6 58h-10l14 16.5-14 16.5h10l14-16.5z"/></g></svg>