<?xml version="1.0"?><svg xmlns="http://www.w3.org/2000/svg" viewBox="0 0 60 80" enable-background="new 0 0 50 80" width="50px" height="80px"><path d="M27.8 29.5s.9 1 1.9 1.1h.2c1-.2 1.9-1.1 1.9-1.1s.4-.2 3.8-3.4c3.4-3.2 1.2-7.2-.2-9.5-1.3-2.2-5-2.4-5.6-2.4-.6 0-4.2.3-5.6 2.4-1.4 2.4-3.6 6.4-.2 9.6 3.3 3.1 3.8 3.3 3.8 3.3zm3.2-6.8c.6-.6 2.1-1.9 3.4-1.7 1.7.2 1.5 1.4 1 1.9-.9 1-2.5 1.7-4.4.4-.1-.2-.1-.5 0-.6zm-5.3-1.8c1.3-.1 2.8 1.1 3.4 1.7.2.2.1.4-.1.5-1.9 1.3-3.4.7-4.4-.4-.3-.4-.6-1.6 1.1-1.8zM40.7 46.2l-3.2-13.7c-.2-1-1-1.8-1.9-2.2h-2.4c-1.1 1-1.3 1.1-1.3 1.1s-.9 1-1.9 1.1h-.2c-1-.2-1.9-1.1-1.9-1.1s-.2-.1-1.3-1.1h-2.1c-.9.4-1.6 1.2-1.9 2.2l-3.2 13.7c-.2.8.4 1.6 1.2 1.6.6 0 1.1-.4 1.2-.9l2.8-9.9h.8l.9 5.8v21.6c0 .8.6 1.4 1.4 1.4.8 0 1.4-.6 1.4-1.4V48.2H31v16.2c0 .8.6 1.4 1.4 1.4s1.4-.6 1.4-1.4V42.8l.9-5.8h.8l2.8 9.9c.2.6.7.9 1.2.9.8 0 1.4-.8 1.2-1.6z"/></svg>