<svg xmlns="http://www.w3.org/2000/svg" viewBox="0 0 60 80" enable-background="new 0 0 60 80"><path d="M26.8 26.1c.7 1 1.9 1.7 3.2 1.7 1.4 0 2.6-.7 3.3-1.8.1.5.7 1.8 2.9 1.8 0 0 .3-2.2-2.4-2.9.1-.3.1-.7.1-1.1 0-2.2-1.8-3.9-3.9-3.9-2.2 0-3.9 1.8-3.9 3.9 0 .4.1.7.2 1.1-2.7.7-2.4 2.8-2.4 2.8 2.2.1 2.7-1.1 2.9-1.6zM40.1 44l-3-12.9c-.3-1.3-1.5-2.3-2.9-2.3h-8.5c-1.4 0-2.5.9-2.9 2.3l-3 12.9c-.2.8.4 1.5 1.2 1.5.5 0 1-.4 1.2-.9l2.6-9.3h.7L22 50.5h3.8V58c0 1.1.9 2 2 2s2-.9 2-2v-7.5h.5V58c0 1.1.9 2 2 2s2-.9 2-2v-7.5H38l-3.6-15.3h.7l2.6 9.3c.1.5.6.9 1.2.9.8 0 1.4-.7 1.2-1.4z"/></svg>