<?xml version="1.0"?><svg xmlns="http://www.w3.org/2000/svg" viewBox="0 0 60 80" enable-background="new 0 0 50 80" width="50px" height="80px"><path d="M26.3 50l2.6-2.6-3.3-3.4s-2.6 2.7-2.7 2.7c-1 1-1 2.6 0 3.6l4.3 4.3c.5.5 1.3.5 1.7 0l.2-.2c.5-.5.5-1.3 0-1.7L26.3 50zM34.4 44L31 47.4l2.6 2.6-2.7 2.7c-.5.5-.5 1.3 0 1.7l.2.2c.5.5 1.3.5 1.7 0l4.3-4.3c1-1 1-2.6 0-3.6L34.4 44zM40.3 40.6l-6.2-6.2-.1-.1c-.2-.2-.5-.3-.8-.3h-6.4c-.3 0-.6.1-.8.3l-.1.1-6.2 6.2c-.5.5-.5 1.3 0 1.7l.1.1c.5.5 1.3.5 1.7 0l4.1-3.9v3.7h8.8v-3.7l4.1 3.9c.5.5 1.3.5 1.7 0l.1-.1c.5-.5.5-1.3 0-1.7zM33.9 29c0-3.6-3.1-4-3.8-4h-.2c-.8 0-3.8.4-3.8 4 0 3.8 3.5 4 3.9 4 .4 0 3.9-.2 3.9-4z"/></svg>