<?xml version="1.0"?><svg xmlns="http://www.w3.org/2000/svg" viewBox="0 0 60 80" enable-background="new 0 0 50 80" width="50px" height="80px"><path d="M38.9 51.9c-.9-.5-.7-4.5-.8-5.3v-.5c.1-.3.3-.9.6-1.7 0-.1 0-.1.1-.2.6-2 1.1-5.1.4-7.7l-4.4-2.8s-2.2 2.3-6 2.3h-9.7s-1.8-.3-2.1-2.9c0-.3-.3-.5-.6-.6-.3 0-.6.2-.6.5-.1.9.1 2.7 2.1 4.1-.8 1.1-1.5 2-.7 4.6.2.8 1.7 4.5 1.2 6.6-.2.4-.3.9-.5 1.3-.1.4-.4 1.5-.5 1.9-.1.4.4 1.2.8 1.4.4.2.1.1.8.5.7.4 1.1-.3 1-.8-.1-.2-.6-.3-.7-.5-.4-.7.8-3 1.5-4.3.1.2.2.4.2.6.2.9.4 1.9.6 2.8.1.4.2.8.4 1.2.2.4.9.8 1.4.8h1c.8 0 .8-.8.4-1.2-.2-.2-.7 0-.9-.1-.6-.3-.7-2-.7-3.3.1-3.4 1.2-4.1.9-6.3 1.6-.4 3.2-.2 4.7.4 1.1.5 2.5 1.6 4.2 1.8.3.9.6 1.9.6 2.1 0 .3.1.9.1 1.2-.1.9-.2 1.9-.3 2.8v1.3c0 .4.7 1 1.1 1.2.4.1.2 0 .9.3.8.2 1-.6.7-1-.1-.2-.6-.1-.8-.3-.5-.6 0-2.6.4-4.1.1.1.1.3.1.4.2.9.4 1.9.6 2.8.1.4.2.8.4 1.2.2.4.9.8 1.4.8h1c.8 0 .8-.8.4-1.2 0-.1-.5.1-.7-.1zM45.5 32.1c-.2 0-.3.1-.4.1-.9-.1-1.5-.6-1.5-.6l-2.5-2.4c0-2.5-.6-2.8-.6-2.8l-5.1 6.4 4.3 2.9 1.3-1c4.1 2.4 4.8-1.3 4.8-1.3.2-.1.4-.4.4-.6 0-.3-.3-.7-.7-.7z"/></svg>