<svg xmlns="http://www.w3.org/2000/svg" viewBox="95 45 150 135"><path opacity=".3" fill="#FFF" d="M156.8 113c2.3 0 4.5.5 6.6 1.4 17.2 7.2 19.3 8.5 39.7 8.6 19.2.1 39 20.2 41.3 22.6v-23.8c-.4-.2-.9-.6-1.3-.8-5.7-3.5-10.9-6.6-13.1-7.9-.8-.5-1.2-.7-1.2-.7v.1c-2.1-1.1-4.5-1.7-7.1-1.9-15.6-1-25.8 7.5-53.6.2-7.7-2-14.6-.5-19.2 1.3-4.4 1.7-9 3-13.7 3.6-1.1.1-2.1.3-3.1.5.8 0 1.7-.1 2.5-.1 2.3 0 4.8.3 7.4.9 4.7-2.5 9.9-4.2 14.8-4z"/><path fill="#FFF" d="M216.8 89.6v-.2c0-1.3-1.1-2.4-2.4-2.4-.8 0-1.5.4-1.9 1-.5-1.5-1.9-2.5-3.5-2.5-2.1 0-3.7 1.7-3.7 3.7v.1c-1.7.3-2.9 1.8-2.9 3.6s1.3 3.3 3 3.6v.1h11c1.9 0 3.5-1.6 3.5-3.5-.2-1.7-1.5-3.2-3.1-3.5zm5.6-29.8v-.2c0-1.3 1.1-2.4 2.4-2.4.8 0 1.5.4 1.9 1 .5-1.5 1.9-2.5 3.5-2.5 2.1 0 3.7 1.7 3.7 3.7v.1c1.7.3 2.9 1.8 2.9 3.6s-1.3 3.3-3 3.6v.1h-11c-1.9 0-3.5-1.6-3.5-3.5.3-1.7 1.5-3.2 3.1-3.5z"/><path opacity=".15" d="M95 94.8h32.8v50.8H95z"/><path opacity=".1" d="M95 94.8h32.7v15H95z"/><path opacity=".15" d="M95 94.8h32.7v6H95z"/><path fill="#FFF" d="M181.5 75.1v-.2c0-2-1.6-3.6-3.6-3.6-1.2 0-2.2.6-2.9 1.4-.8-2.2-2.9-3.8-5.3-3.8-3.1 0-5.6 2.5-5.6 5.6v.1c-2.5.5-4.4 2.7-4.4 5.4s1.9 4.9 4.5 5.4l-.1.1h16.6c2.9 0 5.3-2.4 5.3-5.3-.2-2.5-2.1-4.7-4.5-5.1zM128 159.6v1.5c-.6-.2-1.2-.2-1.8-.2-1 0-1.7.3-2.2.8-.5.5-.7 1.2-.7 2.1 0 .9.2 1.6.7 2.2.5.5 1.2.7 2.1.7.7 0 1.4-.1 2-.2v1.5c-.8.2-1.5.2-2.2.2-1.2 0-2.2-.3-3-.9-1-.8-1.5-1.9-1.5-3.5 0-1.4.4-2.5 1.2-3.2.8-.8 1.9-1.1 3.3-1.1.8-.2 1.4-.1 2.1.1zm5.5-.3c1.3 0 2.3.4 3 1.2.8.8 1.2 1.9 1.2 3.2 0 1.4-.4 2.4-1.2 3.2-.8.8-1.8 1.2-3.1 1.2-1.1 0-2.1-.3-2.8-1-.9-.8-1.4-2-1.4-3.5 0-1.4.4-2.4 1.2-3.2.8-.7 1.8-1.1 3.1-1.1zm0 1.4c-.7 0-1.3.3-1.7.9-.4.5-.6 1.3-.6 2.2 0 .9.2 1.7.6 2.2.4.6 1 .9 1.8.9.7 0 1.2-.2 1.6-.7.5-.5.7-1.3.7-2.4 0-1.1-.3-1.9-.8-2.4-.4-.5-.9-.7-1.6-.7zm6.3-1.2h1.8v5.3c0 1.2.6 1.9 1.9 1.9 1.3 0 1.9-.6 1.9-1.9v-5.3h1.8v5.4c0 1.1-.3 1.9-.9 2.5-.6.6-1.5.8-2.7.8-1 0-1.8-.2-2.4-.6-.8-.6-1.3-1.5-1.3-2.7v-5.4zm9.7 8.4v-8.5h2.1l3.4 6.1v-6.1h1.7v8.5h-2.1l-3.4-6.1v6.1h-1.7zm11.3 0v-7h-2.5v-1.4h6.8v1.4h-2.5v7h-1.8zm5.9 0v-8.5h2.7c2 0 3 .9 3 2.6 0 .7-.2 1.2-.5 1.6-.2.3-.5.5-.9.7l2.2 3.6h-2l-1.9-3.3h-.9v3.3h-1.7zm1.7-4.5h.8c.6 0 1-.2 1.2-.5.1-.2.2-.5.2-.8 0-.4-.1-.7-.4-1-.3-.2-.6-.4-1-.4h-.8v2.7zm8.2 4.5v-3l-3.1-5.5h1.9l2.1 3.9 2.2-3.9h1.8l-3.1 5.5v3h-1.8zm6.1-.1v-1.4c.8.2 1.5.4 2.2.4.6 0 1.1-.1 1.4-.4.2-.2.3-.4.3-.7 0-.2-.1-.4-.2-.6-.1-.2-.5-.4-1.1-.7l-.6-.3c-.7-.3-1.1-.5-1.3-.7-.5-.4-.8-1-.8-1.7s.3-1.3.9-1.8c.6-.4 1.3-.6 2.3-.6.7 0 1.4.1 2.1.3v1.4c-.7-.2-1.3-.3-2-.3s-1.2.1-1.4.4c-.2.1-.2.3-.2.6 0 .2.1.5.4.6.2.1.5.3.9.4l.6.3c.6.2 1 .4 1.2.6.6.4.9 1.1.9 1.9 0 .8-.3 1.5-.9 1.9-.6.4-1.3.6-2.4.6-.9.1-1.7 0-2.3-.2zm7.6.1v-8.5h1.8v8.5h-1.8zm4.3 0v-8.5h3.3c1.3 0 2.3.4 3.1 1.1.8.7 1.2 1.8 1.2 3.1 0 1.4-.4 2.4-1.2 3.2-.7.7-1.8 1.1-3.1 1.1h-3.3zm1.8-1.4h1.4c.8 0 1.4-.3 1.9-.8.4-.5.7-1.2.7-2.1s-.2-1.6-.7-2.1c-.4-.5-1.1-.8-1.9-.8h-1.4v5.8zm7.8 1.4v-8.5h5.2v1.4H206v2h3.3v1.4H206v2.2h3.6v1.4h-5.4zm7.4 0v-8.5h2.7c2 0 3 .9 3 2.6 0 .7-.2 1.2-.5 1.6-.2.3-.5.5-.9.7l2.2 3.6h-2l-1.9-3.3h-.9v3.3h-1.7zm1.7-4.5h.8c.6 0 1-.2 1.2-.5.1-.2.2-.5.2-.8 0-.4-.1-.7-.4-1-.3-.2-.6-.4-1-.4h-.8v2.7z"/><path opacity=".3" fill="#FFF" d="M179.1 106.1c.6 0 1.1 0 1.7.1-1.2-.7-2.5-1.6-4.1-2.5-9.8-6.2-14.2-7.2-21.4-6.1-12.1 1.9-19.1-2.1-19.1-2.1l-.8 5.1c5.3 0 11.8.4 16.4 2.1 11.4 4.2 21.7 3.1 27.3 3.4z"/><path opacity=".15" d="M208.9 103.6c-11.7-.3-16.7 3.2-29.8 2.5-5.5-.3-15.8.7-27.2-3.5-5.2-2-13.2-2.2-18.7-2.1l-2.6.1c-2.1.1-3.4.2-3.4.2v16.8c2.6-1.1 5.5-1.9 8.8-2.2 4.1-.4 8.2-1.5 12-3.1 4.7-2 11.9-3.8 20.2-1.6 27.8 7.3 38-1.2 53.7-.2 2.6.2 4.9.8 7 1.8-4.7-5.2-11.2-8.4-20-8.7z"/><path fill="#3B3B3B" d="M95.1 145.6h101.2S157.1 116 134.5 116s-38 17.3-39.4 29.6z"/><path opacity=".6" d="M203.1 122.9c-20.4-.1-22.4-1.4-39.7-8.6-6.8-2.8-14.5-.9-21.5 2.5 22.8 4.9 54.3 28.7 54.3 28.7h48.1c.1.1-20.8-22.5-41.2-22.6z"/><circle cx="205.4" cy="116.5" r="4.3"/><path d="M204.7 117.9h1.3v6.6h-1.3z"/><circle cx="194.6" cy="117.5" r="4.3"/><path d="M194 118.9h1.3v6.6H194z"/><circle cx="174.3" cy="112.6" r="4.3"/><path d="M173.6 114h1.3v6.6h-1.3z"/><circle cx="221.1" cy="124.3" r="4.3"/><path d="M220.4 125.8h1.3v6.6h-1.3z"/><circle cx="211.4" cy="122.8" r="2.6"/><path d="M211.1 123.6h.8v4.1h-.8z"/><circle cx="182.8" cy="117.5" r="2.6"/><path d="M182.4 118.4h.8v4.1h-.8z"/><circle cx="226.4" cy="135" r="2.6"/><path d="M226 135.9h.8v4.1h-.8z"/><g opacity=".6"><circle cx="210" cy="109" r="2.1"/><path d="M209.6 109.7h.6v3.3h-.6z"/></g><g opacity=".6"><circle cx="222.6" cy="108.4" r="2.1"/><path d="M222.3 109.1h.6v3.3h-.6z"/></g><g opacity=".6"><circle cx="215.7" cy="109.9" r="1.7"/><path d="M215.5 110.5h.5v2.6h-.5z"/></g><g opacity=".6"><circle cx="225.1" cy="114" r="1.2"/><path d="M225 114.4h.4v1.8h-.4z"/></g><g opacity=".6"><circle cx="227.9" cy="117.4" r="1.5"/><path d="M227.7 117.9h.5v2.3h-.5z"/></g><g opacity=".6"><circle cx="219.7" cy="111.8" r="1.4"/><path d="M219.4 112.3h.4v2.2h-.4z"/></g><path d="M126.7 101.2h4.7v20.2h-4.7z"/><path d="M155.9 101.4c-2.7-3.4-4.8-2.9-4.8-2.9v-.1c1.1-1.6 1.7-3.5 1.7-5.5 0-5.4-4.4-9.7-9.7-9.7 0-4.3-3.5-7.8-7.8-7.8-2.1 0-4 .8-5.4 2.2-1.4-2-3.7-3.3-6.3-3.3-3.7 0-6.8 2.6-7.5 6.1-.8.1-1.5.3-2.2.6-4.8.9-8.5 5.2-8.5 10.3 0 1.8.5 3.6 1.3 5.1-3.4 2.1-4.7 4.7-4.6 7.2v.2c0 4.1 3.3 7.4 7.4 7.4 1 0 2-.2 2.9-.6 1.3 1 2.9 1.6 4.6 1.6 1.4 0 2.8-.4 3.9-1.1.8-.6 1.5-1.5 1.7-2.9 1.1 2.2 3.3 3.7 5.9 3.7 2.2 0 4.1-1 5.2-2.6 1 1 2.3 1.7 3.8 1.7 1.6 0 3-.8 4-1.9.8.7 1.9 1.1 3 1.1 1.2 0 2.4-.5 3.2-1.3.9.8 2.1 1.3 3.4 1.3 3 0 5.5-2.6 5.5-5.8 0-1.2-.3-2.1-.7-3z"/></svg>