<svg xmlns="http://www.w3.org/2000/svg" viewBox="0 0 190 190" enable-background="new 0 0 190 190"><path fill="#535252" d="M187.3 99c1.6-.6 2.7-2.2 2.7-4s-1.1-3.4-2.7-4c1.5-.8 2.5-2.4 2.4-4.3-.2-1.8-1.4-3.3-3.1-3.8 1.5-.9 2.3-2.6 2-4.4-.3-1.8-1.7-3.1-3.4-3.5 1.4-1 2.1-2.8 1.6-4.6s-2-3-3.7-3.2c1.3-1.2 1.8-3 1.2-4.7-.6-1.7-2.2-2.8-3.9-2.9 1.2-1.3 1.5-3.1.8-4.8-.8-1.7-2.4-2.6-4.2-2.5 1.1-1.4 1.3-3.3.3-4.8-.9-1.6-2.7-2.4-4.4-2.1.9-1.4 1-3.4-.1-4.9-1-1.5-2.9-2.1-4.5-1.7.8-1.5.7-3.4-.5-4.8s-3-1.9-4.7-1.3c.7-1.6.4-3.5-.9-4.8-1.3-1.3-3.2-1.6-4.8-.9.5-1.6.1-3.5-1.3-4.7-1.4-1.2-3.3-1.3-4.8-.5.4-1.7-.2-3.5-1.7-4.5s-3.4-1-4.9-.1c.2-1.7-.6-3.5-2.1-4.4-1.6-.9-3.5-.7-4.8.3.1-1.7-.8-3.4-2.5-4.2-1.7-.8-3.5-.4-4.8.8-.1-1.7-1.1-3.3-2.9-3.9-1.7-.6-3.6-.1-4.7 1.2-.2-1.7-1.4-3.2-3.2-3.7s-3.7.1-4.7 1.5c-.4-1.7-1.7-3.1-3.5-3.4-1.8-.3-3.5.5-4.4 2-.5-1.6-2-2.9-3.8-3.1-1.8-.2-3.5.8-4.3 2.4-.6-1.6-2.2-2.7-4-2.7s-3.4 1.1-4 2.7C90.2 1.2 88.6.2 86.7.3c-1.8.2-3.3 1.4-3.8 3.1-.9-1.5-2.6-2.3-4.4-2-1.8.3-3.1 1.7-3.5 3.4-1-1.4-2.8-2.1-4.6-1.6-1.8.5-3 2-3.2 3.7-1.2-1.3-3-1.8-4.7-1.2-1.7.6-2.8 2.2-2.9 3.9-1.3-1.2-3.1-1.5-4.8-.8-1.7.8-2.6 2.4-2.5 4.2-1.4-1.1-3.3-1.3-4.8-.3-1.6.9-2.4 2.7-2.1 4.4-1.4-.9-3.4-1-4.9.1-1.5 1-2.1 2.9-1.7 4.5-1.5-.8-3.4-.7-4.8.5s-1.9 3-1.3 4.7c-1.6-.7-3.5-.4-4.8.9-1.3 1.3-1.6 3.2-.9 4.8-1.6-.5-3.5-.1-4.7 1.3-1.2 1.4-1.3 3.3-.5 4.8-1.7-.4-3.5.2-4.5 1.7s-1 3.4-.1 4.9c-1.7-.2-3.5.6-4.4 2.1-.9 1.6-.7 3.5.3 4.8-1.7-.1-3.4.8-4.2 2.5-.8 1.7-.4 3.5.8 4.8-1.7.1-3.3 1.1-3.9 2.9-.6 1.7-.1 3.6 1.2 4.7-1.7.2-3.2 1.4-3.7 3.2S3.4 74 4.8 75c-1.7.4-3.1 1.7-3.4 3.5-.3 1.8.5 3.5 2 4.4-1.6.5-2.9 2-3.1 3.8-.2 1.8.8 3.5 2.4 4.3-1.6.6-2.7 2.2-2.7 4s1.1 3.4 2.7 4c-1.5.8-2.5 2.4-2.4 4.3.2 1.8 1.4 3.3 3.1 3.8-1.5.9-2.3 2.6-2 4.4.3 1.8 1.7 3.1 3.4 3.5-1.4 1-2.1 2.8-1.6 4.6.5 1.8 2 3 3.7 3.2-1.3 1.2-1.8 3-1.2 4.7.6 1.7 2.2 2.8 3.9 2.9-1.2 1.3-1.5 3.1-.8 4.8.8 1.7 2.4 2.6 4.2 2.5-1.1 1.4-1.3 3.3-.3 4.8.9 1.6 2.7 2.4 4.4 2.1-.9 1.4-1 3.4.1 4.9 1 1.5 2.9 2.1 4.5 1.7-.8 1.5-.7 3.4.5 4.8s3 1.9 4.7 1.3c-.7 1.6-.4 3.5.9 4.8 1.3 1.3 3.2 1.6 4.8.9-.5 1.6-.1 3.5 1.3 4.7 1.4 1.2 3.3 1.3 4.8.5-.4 1.7.2 3.5 1.7 4.5s3.4 1 4.9.1c-.2 1.7.6 3.5 2.1 4.4 1.6.9 3.5.7 4.8-.3-.1 1.7.8 3.4 2.5 4.2 1.7.8 3.5.4 4.8-.8.1 1.7 1.1 3.3 2.9 3.9 1.7.6 3.6.1 4.7-1.2.2 1.7 1.4 3.2 3.2 3.7 1.8.5 3.6-.2 4.6-1.6.4 1.7 1.7 3.1 3.5 3.4 1.8.3 3.5-.5 4.4-2 .5 1.6 2 2.9 3.8 3.1 1.8.2 3.5-.8 4.3-2.4.6 1.6 2.2 2.7 4 2.7s3.4-1.1 4-2.7c.8 1.5 2.4 2.5 4.3 2.4 1.8-.2 3.3-1.4 3.8-3.1.9 1.5 2.6 2.3 4.4 2 1.8-.3 3.1-1.7 3.5-3.4 1 1.4 2.8 2.1 4.6 1.6s3-2 3.2-3.7c1.2 1.3 3 1.8 4.7 1.2 1.7-.6 2.8-2.2 2.9-3.9 1.3 1.2 3.1 1.5 4.8.8 1.7-.8 2.6-2.4 2.5-4.2 1.4 1.1 3.3 1.3 4.8.3 1.6-.9 2.4-2.7 2.1-4.4 1.4.9 3.4 1 4.9-.1 1.5-1 2.1-2.9 1.7-4.5 1.5.8 3.4.7 4.8-.5s1.9-3 1.3-4.7c1.6.7 3.5.4 4.8-.9s1.6-3.2.9-4.8c1.6.5 3.5.1 4.7-1.3 1.2-1.4 1.3-3.3.5-4.8 1.7.4 3.5-.2 4.5-1.7s1-3.4.1-4.9c1.7.2 3.5-.6 4.4-2.1.9-1.6.7-3.5-.3-4.8 1.7.1 3.4-.8 4.2-2.5.8-1.7.4-3.5-.8-4.8 1.7-.1 3.3-1.1 3.9-2.9.6-1.7.1-3.6-1.2-4.7 1.7-.2 3.2-1.4 3.7-3.2.5-1.8-.2-3.6-1.6-4.6 1.7-.4 3.1-1.7 3.4-3.5.3-1.8-.5-3.5-2-4.4 1.6-.5 2.9-2 3.1-3.8.3-1.8-.7-3.5-2.2-4.3z"/><linearGradient id="a" gradientUnits="userSpaceOnUse" x1="53.558" y1="160.527" x2="133.945" y2="160.527" gradientTransform="matrix(-1 0 0 -1 187.579 189.751)"><stop offset="0" stop-color="#fff" stop-opacity=".2"/><stop offset="1" stop-opacity="0"/></linearGradient><path fill="none" stroke="url(#a)" stroke-miterlimit="10" d="M56.3 35.2c.1-.1 12.2-10.4 36.6-10.5 16.3.1 27.2 4.8 32.6 7.9l-2.1 2.6 9.9 1.5-3.7-9.3-2.2 2.7c-5.6-3.3-16.8-8.3-34.2-8.5h-.6c-25.3.2-37.7 10.8-38.2 11.3l1.9 2.3z"/><path d="M56.3 35.2c.1-.1 12.2-10.4 36.6-10.5 16.3.1 27.2 4.8 32.6 7.9l-2.1 2.6 9.9 1.5-3.7-9.3-2.2 2.7c-5.6-3.3-16.8-8.3-34.2-8.5h-.6c-25.3.2-37.7 10.8-38.2 11.3l1.9 2.3z"/><linearGradient id="b" gradientUnits="userSpaceOnUse" x1="53.558" y1="295.954" x2="133.945" y2="295.954" gradientTransform="translate(0 -135.427)"><stop offset="0" stop-color="#fff" stop-opacity=".2"/><stop offset="1" stop-opacity="0"/></linearGradient><path fill="none" stroke="url(#b)" stroke-miterlimit="10" d="M131.3 154.5c-.1.1-12.2 10.4-36.6 10.5-16.3-.1-27.2-4.8-32.6-7.9l2.1-2.6-9.9-1.5 3.7 9.3 2.2-2.7c5.6 3.3 16.8 8.3 34.2 8.5h.6c25.3-.2 37.7-10.8 38.2-11.3l-1.9-2.3z"/><path d="M131.3 154.5c-.1.1-12.2 10.4-36.6 10.5-16.3-.1-27.2-4.8-32.6-7.9l2.1-2.6-9.9-1.5 3.7 9.3 2.2-2.7c5.6 3.3 16.8 8.3 34.2 8.5h.6c25.3-.2 37.7-10.8 38.2-11.3l-1.9-2.3z"/><linearGradient id="c" gradientUnits="userSpaceOnUse" x1="53.558" y1="160.527" x2="133.945" y2="160.527" gradientTransform="matrix(0 -1 1 0 -1.086 188.665)"><stop offset="0" stop-color="#fff" stop-opacity=".2"/><stop offset="1" stop-opacity="0"/></linearGradient><path fill="none" stroke="url(#c)" stroke-miterlimit="10" d="M153.5 57.4c.1.1 10.4 12.2 10.5 36.6-.1 16.3-4.8 27.2-7.9 32.6l-2.6-2.1-1.5 9.9 9.3-3.7-2.7-2.2c3.3-5.6 8.3-16.8 8.5-34.2v-.6c-.2-25.3-10.8-37.7-11.3-38.2l-2.3 1.9z"/><path d="M153.5 57.4c.1.1 10.4 12.2 10.5 36.6-.1 16.3-4.8 27.2-7.9 32.6l-2.6-2.1-1.5 9.9 9.3-3.7-2.7-2.2c3.3-5.6 8.3-16.8 8.5-34.2v-.6c-.2-25.3-10.8-37.7-11.3-38.2l-2.3 1.9z"/><linearGradient id="d" gradientUnits="userSpaceOnUse" x1="53.558" y1="295.954" x2="133.945" y2="295.954" gradientTransform="matrix(0 1 -1 0 324.092 1.086)"><stop offset="0" stop-color="#fff" stop-opacity=".2"/><stop offset="1" stop-opacity="0"/></linearGradient><path fill="none" stroke="url(#d)" stroke-miterlimit="10" d="M34.1 132.3c-.1-.1-10.4-12.2-10.5-36.6.1-16.3 4.8-27.2 7.9-32.6l2.6 2.1 1.5-9.9-9.3 3.7 2.7 2.2c-3.3 5.6-8.3 16.8-8.5 34.2v.6c.2 25.3 10.8 37.7 11.3 38.2l2.3-1.9z"/><path d="M34.1 132.3c-.1-.1-10.4-12.2-10.5-36.6.1-16.3 4.8-27.2 7.9-32.6l2.6 2.1 1.5-9.9-9.3 3.7 2.7 2.2c-3.3 5.6-8.3 16.8-8.5 34.2v.6c.2 25.3 10.8 37.7 11.3 38.2l2.3-1.9z"/></svg>