<?xml version="1.0"?><svg xmlns="http://www.w3.org/2000/svg" viewBox="95 45 150 135" enable-background="new 95 45 150 135" width="150px" height="135px"><path opacity=".3" fill="#FFF" d="M170 72.7c-26.1 0-49 15.9-59.3 37.3-4.5 6.6-5.6 8.2-8.8 10.6-3.4 2.5-6.4.9-6.4.9v24.1H235.3c.3-2.4.4-4.8.4-7.2 0-36.3-29.4-65.7-65.7-65.7z"/><path fill="#FFF" d="M221.4 145.6c-1-27.9-23.6-50.1-51.5-50.1s-50.5 22.3-51.5 50.1h103z"/><path opacity=".5" d="M158.2 60.6c2.1-2.4 7-1.4 7-1.4-5.5-6.2-9.4-2.2-10.8-.2-1.4-1.9-5.3-6-10.8.2 0 0 4.9-1 7 1.4-7.8 2.6-6.4 11.9-6.4 11.9 2.9-6.1 7.5-6.3 9.1-6.2v73.3h2.5V66.1c2 .1 5.7 1.1 8.1 6.2 0 0 1.4-8.8-5.7-11.7zM187.2 70.6c2.6-2.9 8.4-1.7 8.4-1.7-6.6-7.5-11.3-2.6-13-.3-1.7-2.3-6.4-7.2-13 .3 0 0 5.9-1.3 8.4 1.7-9.4 3.1-7.7 14.4-7.7 14.4 3.5-7.3 9.1-7.6 10.9-7.4v68.1h3V77.2c2.4.1 6.9 1.3 9.8 7.4 0 0 1.7-10.5-6.8-14z"/><path d="M119.7 102.9c2.8-3.2 5.7-5.6 8.1-7.4-7.3 1.2-13.3-3.5-13.3-3.5 5.5-4.9 11-5.4 15.2-4.6-2.8-2-5.5-5.3-5.3-11.1 0 0 5.6.9 9 5.6 1.3-3.5 3.8-5.9 3.8-5.9 3 5.5 2.2 10 .9 12.9 9.6-.5 13.5 8.2 13.5 8.2-5.5 1.6-9.4-.1-12.1-2.3 1.9 3.9 2.9 9.3-.5 15.9 0 0-7-5.4-6.9-13.7-2.6 1.8-6.2 4.5-9.7 8.5-9.3 10.5-14 23.9-14 40h-3.8c-.1-21.3 8.2-34.9 15.1-42.6z"/><path opacity=".5" d="M174 113.9c-.8-2.2-1.8-4.1-2.7-5.5 3.5 2.1 7.7.9 7.7.9-1.8-3.7-4.6-5.1-7-5.5 1.9-.4 4-1.6 5.1-4.7 0 0-3.1-.7-5.9 1.1 0-2.1-.8-3.8-.8-3.8-2.7 2.3-3.2 4.8-3.1 6.6-4.9-2.3-8.7 1.5-8.7 1.5 2.5 2 4.9 1.9 6.8 1.3-1.8 1.6-3.4 4.3-3 8.4 0 0 4.8-1.4 6.4-5.7 1 1.5 2.3 3.6 3.3 6.4 2.7 7.4 2.4 15.4-1 23.8l2 .8c4.3-11.3 2.9-20.2.9-25.6zM206.4 102.1c2-2.2 4-4 5.7-5.3-5.1.8-9.5-2.5-9.5-2.5 3.9-3.5 7.8-3.8 10.8-3.2-2-1.4-3.9-3.8-3.8-7.9 0 0 4 .6 6.4 4 .9-2.5 2.7-4.2 2.7-4.2 2.1 3.9 1.6 7.1.6 9.2 6.8-.4 9.6 5.8 9.6 5.8-3.9 1.2-6.7 0-8.6-1.6 1.3 2.7 2 6.6-.3 11.3 0 0-5-3.8-4.9-9.7-1.9 1.3-4.4 3.2-6.8 6-6.6 7.4-9.9 17-9.9 28.4h-2.7c0-15.2 5.8-24.9 10.7-30.3z"/><path fill="#3B3B3B" d="M245 109.4c-14 12.8-34.4 36.2-34.4 36.2H245v-36.2z"/><path d="M233.2 121.3c2.7-3.2 9.1-1.8 9.1-1.8-7.1-8-12.2-2.8-14-.3-1.8-2.5-6.9-7.7-14 .3 0 0 6.3-1.3 9 1.8-10.1 3.4-8.2 15.4-8.2 15.4 3.7-7.9 9.7-8.1 11.7-7.9v16.9h3.2v-17.3c2.6.1 7.4 1.4 10.5 8 0-.1 1.8-11.3-7.3-15.1zM221.7 145.6c-12.9-11.7-27.3-23.8-31.8-23.8-8.6 0-8.3 5.8-16.2 5.8-7.9 0-10.7-18.5-25.4-18.5-8.6 0-21.1 20-30 36.5h103.4z"/><g fill="#FFF"><path d="M140.5 167.8v-1.5c.5.1 1 .2 1.4.2.7 0 1.2-.2 1.4-.6.2-.2.2-.7.2-1.2v-5.4h1.8v5.4c0 1.1-.3 1.9-.8 2.4s-1.3.7-2.4.7c-.4.1-1 .1-1.6 0zM147.7 159.3h1.8v5.3c0 1.2.6 1.9 1.9 1.9 1.3 0 1.9-.6 1.9-1.9v-5.3h1.8v5.4c0 2.2-1.2 3.3-3.6 3.3-1 0-1.8-.2-2.4-.6-.8-.6-1.3-1.5-1.3-2.7v-5.4zM157.4 167.8v-8.5h2.1l3.4 6.1v-6.1h1.7v8.5h-2.1l-3.4-6.1v6.1h-1.7zM173.5 159.3v1.5c-.8-.1-1.5-.2-2.1-.2-1 0-1.7.3-2.2.8-.5.5-.7 1.2-.7 2.1 0 .9.3 1.7.8 2.2.5.5 1.2.8 2.2.8h.9v-1.9H171v-1.3h2.9v4.5c-.8.1-1.7.1-2.6.1-1.4 0-2.6-.3-3.4-1-.9-.8-1.3-1.9-1.3-3.3 0-1.3.4-2.3 1.2-3.1.8-.8 2.1-1.2 3.7-1.2.6-.1 1.3-.1 2 0zM176.2 167.8v-8.5h1.8v7h3.7v1.4h-5.5zM183.3 167.8v-8.5h1.8v8.5h-1.8zM187.2 167.6v-1.4c.8.2 1.5.4 2.2.4.6 0 1.1-.1 1.4-.4.2-.2.3-.4.3-.7 0-.2-.1-.4-.2-.6-.1-.2-.5-.4-1.1-.7l-.6-.3c-.7-.3-1.1-.5-1.3-.7-.5-.4-.8-1-.8-1.7s.3-1.3.9-1.8c.6-.4 1.3-.6 2.3-.6.7 0 1.4.1 2.1.3v1.4c-.7-.2-1.3-.3-2-.3s-1.2.1-1.4.4c-.2.1-.2.3-.2.6 0 .2.1.5.4.6.2.1.5.3.9.4l.6.3c.6.2 1 .4 1.2.6.6.4.9 1.1.9 1.9 0 .8-.3 1.5-.9 1.9-.6.4-1.4.6-2.4.6-.9.1-1.7 0-2.3-.2zM196.5 167.8v-7H194v-1.4h6.8v1.4h-2.5v7h-1.8z"/></g></svg>