<svg xmlns="http://www.w3.org/2000/svg" viewBox="95 45 150 135"><path opacity=".15" d="M244.9 145.2V129v16.2m-36.4-50.3v50.4h33.8c-.9-2.3-9.5-24.5-17-33.8 1-2.3 2.9-3.8 5-3.8 2.6 0 4.7 2.2 5.5 5.2.7-1.2 1.8-2 3-2 1.9 0 3.5 1.9 3.7 4.4l2.3.5V94.9h-36.3z"/><path opacity=".1" d="M208.5 94.9h36.4v15h-36.4z"/><path opacity=".15" d="M208.5 94.9h36.4v6h-36.4z"/><path fill="#FFF" d="M244.9 115.8l-2.3-.5c-.2-2.5-1.8-4.4-3.7-4.4-1.2 0-2.3.8-3 2-.8-3-3-5.2-5.5-5.2-2.3 0-4.2 1.7-5.2 4.2l-3.3-.6v6c-1.2 1.4-1.9 3.4-1.9 5.6 0 2.2.7 4.2 1.9 5.6v17h23v-29.7z"/><path fill="#3B3B3B" d="M238.1 144.6c0-10.4-8.9-31.5-16.6-31.5-7.7 0-4.1 8.3-12.9 8.3s-12.1-28-28.3-28c-9.9 0-24.5 28.7-34.4 51.1h92.2z"/><path fill="#FFF" d="M174.1 65.7v-.4c0-3.2-2.6-5.8-5.8-5.8-1.9 0-3.5.9-4.6 2.3-1.2-3.5-4.5-6.1-8.5-6.1-4.9 0-8.9 4-8.9 8.9v.2c-4 .8-7 4.3-7 8.6s3.1 7.8 7.1 8.6l-.1.2h26.2c4.6 0 8.3-3.7 8.3-8.3.1-4.1-2.8-7.5-6.7-8.2zm-43 32.2v-.4c0-3.2-2.6-5.8-5.8-5.8-1.9 0-3.5.9-4.6 2.3-1.2-3.5-4.5-6.1-8.5-6.1-4.9 0-8.9 4-8.9 8.9v.2c-4 .8-7 4.3-7 8.6s3.1 7.8 7.1 8.6l-.1.2h26.2c4.6 0 8.3-3.7 8.3-8.3.1-4.1-2.9-7.5-6.7-8.2z"/><path fill="#3B3B3B" d="M95 145.6h81.2s-22.1-56.8-34.4-56.8-14.7 18-21.4 18c-6.7 0-6.5-5.6-13.7-5.6-2 0-6.4 3.3-11.7 8.2v36.2zm94.3-.2h53.1s-14.4-38-22.5-38-9.6 12.1-14 12.1-4.2-3.8-9-3.8c-1.3 0-4.2 2.2-7.6 5.5v24.2z"/><path d="M208.7 128.3V94.9h-12.4V77.2h-11v36.2h-17.5v-8.9H153v23.9h-9.6v-20.3l-4.1-6-4.1 6v12.7H120V105h-14.8v28.2h-7.6v12.4h144.9v-17.2h-33.8zm-106 14.7h-1.8v-1.8h1.8v1.8zm7.7 0h-1.8v-1.8h1.8v1.8zm0-11h-1.8v-1.8h1.8v1.8zm0-11h-1.8v-1.8h1.8v1.8zm0-5.5h-1.8v-1.8h1.8v1.8zm6.7 11h-1.8v-1.8h1.8v1.8zm0-5.5h-1.8v-1.8h1.8v1.8zm0-11h-1.8v-1.8h1.8v1.8zm8 23.7h-1.8v-1.8h1.8v1.8zm0-7.2h-1.8v-1.8h1.8v1.8zm6.7 14.5H130v-1.8h1.8v1.8zm0-14.5H130v-1.8h1.8v1.8zm8.5 14.5h-1.8v-1.8h1.8v1.8zm0-20.6h-1.8v-1.8h1.8v1.8zm0-10.4h-1.8v-1.8h1.8v1.8zm6.2 33.5h-1.8v-1.8h1.8v1.8zm5.1 0h-1.8v-1.8h1.8v1.8zm0-5.1h-1.8v-1.8h1.8v1.8zm0-5.2h-1.8v-1.8h1.8v1.8zm7.2 7.8H157v-1.8h1.8v1.8zm0-10.3H157v-1.8h1.8v1.8zm0-5.2H157v-1.8h1.8v1.8zm0-15.5H157v-1.8h1.8v1.8zm5.2 25.8h-1.8V134h1.8v1.8zm0-10.3h-1.8v-1.8h1.8v1.8zm0-5.1h-1.8v-1.8h1.8v1.8zm0-10.4h-1.8v-1.8h1.8v1.8zm9.8 31H172v-1.8h1.8v1.8zm0-5.2H172V134h1.8v1.8zm0-5.1H172v-1.8h1.8v1.8zm7.7 10.3h-1.8v-1.8h1.8v1.8zm0-5.2h-1.8V134h1.8v1.8zm0-10.3h-1.8v-1.8h1.8v1.8zm0-5.1h-1.8v-1.8h1.8v1.8zm7.2-39.4h1.8v1.8h-1.8V81zm2.7 57.9h-1.8v-1.8h1.8v1.8zm0-5.2h-1.8v-1.8h1.8v1.8zm0-5.1h-1.8v-1.8h1.8v1.8zm0-10.4h-1.8v-1.8h1.8v1.8zm0-5.1h-1.8v-1.8h1.8v1.8zm0-5.2h-1.8v-1.8h1.8v1.8zm0-5.1h-1.8V101h1.8v1.8zm0-5.4h-1.8v-1.8h1.8v1.8zm8.8 44h-1.8v-1.8h1.8v1.8zm0-15.4h-1.8v-1.8h1.8v1.8zm0-10.3h-1.8v-1.8h1.8v1.8zm0-5.2h-1.8v-1.8h1.8v1.8zm5.2 30.9h-1.8v-1.8h1.8v1.8zm0-5.1h-1.8v-1.8h1.8v1.8zm0-5.2h-1.8v-1.8h1.8v1.8zm0-5.1h-1.8v-1.8h1.8v1.8zm0-10.3h-1.8v-1.8h1.8v1.8zm0-5.2h-1.8v-1.8h1.8v1.8zm0-5.1h-1.8v-1.8h1.8v1.8zm0-5.5h-1.8v-1.8h1.8v1.8zm13 42h-1.8v-1.8h1.8v1.8zm0-7.2h-1.8v-1.8h1.8v1.8zm6.7 7.2h-1.8v-1.8h1.8v1.8zm0-7.2h-1.8v-1.8h1.8v1.8zm6.1 7.2h-1.8v-1.8h1.8v1.8zm6.7 0h-1.8v-1.8h1.8v1.8zm0-7.2h-1.8v-1.8h1.8v1.8z"/><path d="M139.4 159.2h1.8v5.3c0 1.2.6 1.9 1.9 1.9 1.3 0 1.9-.6 1.9-1.9v-5.3h1.8v5.4c0 2.2-1.2 3.3-3.6 3.3-1 0-1.8-.2-2.4-.6-.8-.6-1.3-1.5-1.3-2.7v-5.4zm9.7 8.5v-8.5h2.7c2 0 3 .9 3 2.6 0 .7-.2 1.2-.5 1.6-.2.3-.5.5-.9.7l2.2 3.6h-2l-1.9-3.3h-.9v3.3h-1.7zm1.7-4.5h.8c.6 0 1-.2 1.2-.5.1-.2.2-.5.2-.8 0-.4-.1-.7-.4-1-.3-.2-.6-.4-1-.4h-.8v2.7zm6.5 4.5v-8.5h2.8c1 0 1.7.2 2.2.6.5.4.7.9.7 1.6 0 .8-.3 1.4-1 1.8.9.4 1.4 1.1 1.4 2.1 0 1.6-1 2.4-3.1 2.4h-3zm1.7-5h1c.4 0 .7-.1.9-.3.2-.2.3-.5.3-.8s-.1-.6-.3-.8c-.2-.2-.5-.3-.9-.3h-1v2.2zm0 3.7h1.2c.9 0 1.4-.4 1.4-1.2 0-.4-.1-.6-.3-.8-.3-.2-.6-.4-1.1-.4H159v2.4zm11.5-.6H167l-.7 1.9h-1.7l3.3-8.5h1.9l3.3 8.5h-1.8l-.8-1.9zm-.5-1.5l-1.2-3.5-1.2 3.5h2.4zm4.7 3.4v-8.5h2.1l3.4 6.1v-6.1h1.7v8.5h-2.1l-3.4-6.1v6.1h-1.7zm9.6 0v-8.5h1.8v8.5h-1.8zm5.9 0v-7h-2.5v-1.4h6.8v1.4H192v7h-1.8zm6 0v-8.5h5.2v1.4H198v2h3.3v1.4H198v2.2h3.6v1.4h-5.4zM100.9 141.2h1.8v1.8h-1.8zm7.7 0h1.8v1.8h-1.8zm0-11h1.8v1.8h-1.8zm0-11h1.8v1.8h-1.8zm0-5.5h1.8v1.8h-1.8zm6.7 11h1.8v1.8h-1.8zm0-5.5h1.8v1.8h-1.8zm0-11h1.8v1.8h-1.8zm8 23.7h1.8v1.8h-1.8zm0-7.2h1.8v1.8h-1.8zm6.7 14.5h1.8v1.8H130zm0-14.5h1.8v1.8H130zm8.5 14.5h1.8v1.8h-1.8zm0-20.7h1.8v1.8h-1.8zm0-10.3h1.8v1.8h-1.8zm6.2 33.5h1.8v1.8h-1.8zm5.1 0h1.8v1.8h-1.8zm0-5.1h1.8v1.8h-1.8zm0-5.2h1.8v1.8h-1.8zm7.2 7.8h1.8v1.8H157zm0-10.3h1.8v1.8H157zm0-5.2h1.8v1.8H157zm0-15.5h1.8v1.8H157zm5.2 25.8h1.8v1.8h-1.8zm0-10.3h1.8v1.8h-1.8zm0-5.2h1.8v1.8h-1.8zm0-10.3h1.8v1.8h-1.8zm9.8 31h1.8v1.8H172zm0-5.2h1.8v1.8H172zm0-5.1h1.8v1.8H172zm7.7 10.3h1.8v1.8h-1.8zm0-5.2h1.8v1.8h-1.8zm0-10.3h1.8v1.8h-1.8zm0-5.2h1.8v1.8h-1.8zm9-37.5h1.8v1.8h-1.8zm.9 56.1h1.8v1.8h-1.8zm0-5.2h1.8v1.8h-1.8zm0-5.2h1.8v1.8h-1.8zm0-10.3h1.8v1.8h-1.8zm0-5.1h1.8v1.8h-1.8zm0-5.2h1.8v1.8h-1.8zm0-5.1h1.8v1.8h-1.8zm0-5.4h1.8v1.8h-1.8zm8.8 44h1.8v1.8h-1.8zm0-15.4h1.8v1.8h-1.8zm0-10.3h1.8v1.8h-1.8zm0-5.2h1.8v1.8h-1.8zm5.1 30.9h1.8v1.8h-1.8zm0-5.1h1.8v1.8h-1.8zm0-5.2h1.8v1.8h-1.8zm0-5.1h1.8v1.8h-1.8zm0-10.3h1.8v1.8h-1.8zm0-5.2h1.8v1.8h-1.8zm0-5.1h1.8v1.8h-1.8zm0-5.5h1.8v1.8h-1.8zm13.1 42h1.8v1.8h-1.8zm0-7.3h1.8v1.8h-1.8zm6.7 7.3h1.8v1.8h-1.8zm0-7.3h1.8v1.8h-1.8zm6.1 7.3h1.8v1.8h-1.8zm6.7 0h1.8v1.8h-1.8zm0-7.3h1.8v1.8h-1.8z" fill="#FFF"/></svg>