<svg xmlns="http://www.w3.org/2000/svg" xmlns:xlink="http://www.w3.org/1999/xlink" viewBox="0 0 190 20" enable-background="new 0 0 190 20" height="20px" width="190px"><defs><path id="a" d="M186.3-34.1c1.6-.6 2.7-2.2 2.7-4s-1.1-3.4-2.7-4c1.5-.8 2.5-2.4 2.4-4.3-.2-1.8-1.4-3.3-3.1-3.8 1.5-.9 2.3-2.6 2-4.4-.3-1.8-1.7-3.1-3.4-3.5 1.4-1 2.1-2.8 1.6-4.6-.5-1.8-2-3-3.7-3.2 1.3-1.2 1.8-3 1.2-4.7-.6-1.7-2.2-2.8-3.9-2.9 1.2-1.3 1.5-3.1.8-4.8-.8-1.7-2.4-2.6-4.2-2.5 1.1-1.4 1.3-3.3.3-4.8s-2.7-2.4-4.4-2.1c.9-1.4 1-3.4-.1-4.9-1-1.5-2.9-2.1-4.5-1.7.8-1.5.7-3.4-.5-4.8s-3-1.9-4.7-1.3c.7-1.6.4-3.5-.9-4.8-1.3-1.3-3.2-1.6-4.8-.9.5-1.6.1-3.5-1.3-4.7-1.4-1.2-3.3-1.3-4.8-.5.4-1.7-.2-3.5-1.7-4.5s-3.4-1-4.9-.1c.2-1.7-.6-3.5-2.1-4.4-1.6-.9-3.5-.7-4.8.3.1-1.7-.8-3.4-2.5-4.2-1.7-.8-3.5-.4-4.8.8-.1-1.7-1.1-3.3-2.9-3.9-1.7-.6-3.6-.1-4.7 1.2-.2-1.7-1.4-3.2-3.2-3.7s-3.6.2-4.6 1.6c-.4-1.7-1.7-3.1-3.5-3.4-1.8-.3-3.5.5-4.4 2-.5-1.6-2-2.9-3.8-3.1-1.8-.2-3.5.8-4.3 2.4-.6-1.6-2.2-2.7-4-2.7s-3.4 1.1-4 2.7c-.8-1.5-2.4-2.5-4.3-2.4-1.8.2-3.3 1.4-3.8 3.1-.9-1.5-2.6-2.3-4.4-2-1.8.3-3.1 1.7-3.5 3.4-1-1.4-2.8-2.1-4.6-1.6-1.8.5-3 2-3.2 3.7-1.2-1.3-3-1.8-4.7-1.2-1.7.6-2.8 2.2-2.9 3.9-1.3-1.2-3.1-1.5-4.8-.8-1.7.8-2.6 2.4-2.5 4.2-1.4-1.1-3.3-1.3-4.8-.3-1.6.9-2.4 2.7-2.1 4.4-1.4-.9-3.4-1-4.9.1-1.5 1-2.1 2.9-1.7 4.5-1.5-.8-3.4-.7-4.8.5s-1.9 3-1.3 4.7c-1.6-.7-3.5-.4-4.8.9-1.3 1.3-1.6 3.2-.9 4.8-1.6-.5-3.5-.1-4.7 1.3-1.2 1.4-1.3 3.3-.5 4.8-1.7-.4-3.5.2-4.5 1.7s-1 3.4-.1 4.9c-1.7-.2-3.5.6-4.4 2.1-.9 1.6-.7 3.5.3 4.8-1.7-.1-3.4.8-4.2 2.5-.8 1.7-.4 3.5.8 4.8-1.7.1-3.3 1.1-3.9 2.9-.6 1.7-.1 3.6 1.2 4.7-1.7.2-3.2 1.4-3.7 3.2-.5 1.8.2 3.6 1.6 4.6-1.7.4-3.1 1.7-3.4 3.5-.3 1.8.5 3.5 2 4.4-1.6.5-2.9 2-3.1 3.8-.2 1.8.8 3.5 2.4 4.3-1.6.6-2.7 2.2-2.7 4s1.1 3.4 2.7 4c-1.5.8-2.5 2.4-2.4 4.3.2 1.8 1.4 3.3 3.1 3.8-1.5.9-2.3 2.6-2 4.4.3 1.8 1.7 3.1 3.4 3.5-1.4 1-2.1 2.8-1.6 4.6.5 1.8 2 3 3.7 3.2-1.3 1.2-1.8 3-1.2 4.7.6 1.7 2.2 2.8 3.9 2.9C7.5-1.5 7.1.4 7.9 2c.8 1.7 2.4 2.6 4.2 2.5-1.1 1.4-1.3 3.3-.3 4.8.9 1.6 2.7 2.4 4.4 2.1-.9 1.4-1 3.4.1 4.9 1 1.5 2.9 2.1 4.5 1.7-.8 1.5-.7 3.4.5 4.8s3 1.9 4.7 1.3c-.7 1.6-.4 3.5.9 4.8 1.3 1.3 3.2 1.6 4.8.9-.5 1.6-.1 3.5 1.3 4.7 1.4 1.2 3.3 1.3 4.8.5-.4 1.7.2 3.5 1.7 4.5s3.4 1 4.9.1c-.2 1.7.6 3.5 2.1 4.4 1.6.9 3.5.7 4.8-.3-.1 1.7.8 3.4 2.5 4.2 1.7.8 3.5.4 4.8-.8.1 1.7 1.1 3.3 2.9 3.9 1.7.6 3.6.1 4.7-1.2.2 1.7 1.4 3.2 3.2 3.7 1.8.5 3.6-.2 4.6-1.6.4 1.7 1.7 3.1 3.5 3.4 1.8.3 3.5-.5 4.4-2 .5 1.6 2 2.9 3.8 3.1 1.8.2 3.5-.8 4.3-2.4.6 1.6 2.2 2.7 4 2.7s3.4-1.1 4-2.7c.8 1.5 2.4 2.5 4.3 2.4 1.8-.2 3.3-1.4 3.8-3.1.9 1.5 2.6 2.3 4.4 2 1.8-.3 3.1-1.7 3.5-3.4 1 1.4 2.8 2.1 4.6 1.6s3-2 3.2-3.7c1.2 1.3 3 1.8 4.7 1.2 1.7-.6 2.8-2.2 2.9-3.9 1.3 1.2 3.1 1.5 4.8.8 1.7-.8 2.6-2.4 2.5-4.2 1.4 1.1 3.3 1.3 4.8.3 1.6-.9 2.4-2.7 2.1-4.4 1.4.9 3.4 1 4.9-.1 1.5-1 2.1-2.9 1.7-4.5 1.5.8 3.4.7 4.8-.5s1.9-3 1.3-4.7c1.6.7 3.5.4 4.8-.9 1.3-1.3 1.6-3.2.9-4.8 1.6.5 3.5.1 4.7-1.3 1.2-1.4 1.3-3.3.5-4.8 1.7.4 3.5-.2 4.5-1.7s1-3.4.1-4.9c1.7.2 3.5-.6 4.4-2.1s.7-3.5-.3-4.8c1.7.1 3.4-.8 4.2-2.5.8-1.7.4-3.5-.8-4.8 1.7-.1 3.3-1.1 3.9-2.9.6-1.7.1-3.6-1.2-4.7 1.7-.2 3.2-1.4 3.7-3.2.5-1.8-.2-3.6-1.6-4.6 1.7-.4 3.1-1.7 3.4-3.5.3-1.8-.5-3.5-2-4.4 1.6-.5 2.9-2 3.1-3.8.2-1.7-.8-3.4-2.3-4.2z"/></defs><clipPath id="b"><use xlink:href="#a" overflow="visible"/></clipPath><linearGradient id="c" gradientUnits="userSpaceOnUse" x1="93.772" y1=".016" x2="93.772" y2="93.629"><stop offset="0" stop-color="#010202"/><stop offset=".013" stop-color="#020203" stop-opacity=".934"/><stop offset=".067" stop-color="#050506" stop-opacity=".674"/><stop offset=".115" stop-color="#050505" stop-opacity=".441"/><stop offset=".155" stop-color="#030303" stop-opacity=".244"/><stop offset=".187" stop-color="#010101" stop-opacity=".091"/><stop offset=".205" stop-opacity="0"/></linearGradient><linearGradient id="d" gradientUnits="userSpaceOnUse" x1="93.772" y1="94.149" x2="93.772" y2="-.504"><stop offset="0" stop-color="#fff" stop-opacity=".2"/><stop offset="1" stop-opacity="0"/></linearGradient><path clip-path="url(#b)" fill="url(#c)" stroke="url(#d)" stroke-width="1.039" stroke-miterlimit="10" d="M-1 0h189.6v93.6H-1z"/></svg>