<?xml version="1.0"?><svg xmlns="http://www.w3.org/2000/svg" viewBox="95 45 150 135" enable-background="new 95 45 150 135" width="150px" height="135px"><path opacity=".15" d="M95 94.9v21l148.5 29.4 1.5.3V94.9"/><path opacity=".1" d="M95 94.9h150v15H95z"/><path opacity=".15" d="M95 94.9h150v6H95z"/><path d="M191.1 98.6v-7.5h-2v7.3l-16.6-1.2 5.3 13.5h33.5l1.6-10.4"/><path fill="#FFF" d="M189 62.5v28.6h25.3"/><path opacity=".3" d="M191.1 117.3v4.6h-2v-4.5l-16.6.7 5.3-7.4h33.5l1.6 5.7"/><path opacity=".3" fill="#FFF" d="M189 137.5v-15.6h25.3"/><path fill="#FFF" d="M245 145.6L95 115.9v29.7"/><path opacity=".6" d="M116.3 94.9h55L152.7 77c-1.5-1.5-3.9-1.6-5.6-.4-1.9 1.3-4.4 1-5.8-.8l-3.6-4.4c-2.6-3.2-7.7-2.7-9.6 1l-11.8 22.5z"/><g fill="#FFF"><path d="M133.7 167.7v-8.5h2.8c1 0 1.7.2 2.2.6.5.4.7.9.7 1.6 0 .8-.3 1.4-1 1.8.9.4 1.4 1.1 1.4 2.1 0 1.6-1 2.4-3.1 2.4h-3zm1.7-4.9h1c.4 0 .7-.1.9-.3.2-.2.3-.5.3-.8s-.1-.6-.3-.8c-.2-.2-.5-.3-.9-.3h-1v2.2zm0 3.7h1.2c.9 0 1.4-.4 1.4-1.2 0-.4-.1-.6-.3-.8-.3-.2-.6-.4-1.1-.4h-1.2v2.4zM141.8 167.7v-8.5h5.2v1.4h-3.4v2h3.3v1.4h-3.3v2.2h3.6v1.4h-5.4zM154.3 165.8h-3.6l-.7 1.9h-1.7l3.3-8.5h1.9l3.3 8.5H155l-.7-1.9zm-.5-1.4l-1.2-3.5-1.2 3.5h2.4zM164.2 159.4v1.5c-.6-.2-1.2-.2-1.8-.2-1 0-1.7.3-2.2.8-.5.5-.7 1.2-.7 2.1 0 .9.2 1.6.7 2.2.5.5 1.2.7 2.1.7.7 0 1.4-.1 2-.2v1.5c-.8.2-1.5.2-2.2.2-1.2 0-2.2-.3-3-.9-1-.8-1.5-1.9-1.5-3.5 0-1.4.4-2.5 1.2-3.2.8-.8 1.9-1.1 3.3-1.1.8-.2 1.5-.1 2.1.1zM166.3 167.7v-8.5h1.8v3.3h3.9v-3.3h1.8v8.5H172v-3.6h-4v3.6h-1.7zM180.1 167.7v-8.5h2.8c1 0 1.7.2 2.2.6.5.4.7.9.7 1.6 0 .8-.3 1.4-1 1.8.9.4 1.4 1.1 1.4 2.1 0 1.6-1 2.4-3.1 2.4h-3zm1.7-4.9h1c.4 0 .7-.1.9-.3.2-.2.3-.5.3-.8s-.1-.6-.3-.8c-.2-.2-.5-.3-.9-.3h-1v2.2zm0 3.7h1.2c.9 0 1.4-.4 1.4-1.2 0-.4-.1-.6-.3-.8-.3-.2-.6-.4-1.1-.4h-1.2v2.4zM188.2 159.3h1.8v5.3c0 1.2.6 1.9 1.9 1.9 1.3 0 1.9-.6 1.9-1.9v-5.3h1.8v5.4c0 2.2-1.2 3.3-3.6 3.3-1 0-1.8-.2-2.4-.6-.8-.6-1.3-1.5-1.3-2.7v-5.4zM197.9 167.7v-8.5h2.5l2.2 6.8 2.1-6.8h2.5v8.5h-1.7v-6.3l-2 6.3h-1.8l-2-6.3v6.3h-1.8z"/></g></svg>