<svg xmlns="http://www.w3.org/2000/svg" viewBox="95 45 150 135" enable-background="new 95 45 150 135" width="150px" height="135px"><g><path opacity=".15" d="M208.7 94.3h36.4v50.4h-36.4z"/><path opacity=".1" d="M208.7 94.3h36.4v15h-36.4z"/><path fill="#fff" d="M245 117c-.7-.7-1.4-1.1-2.3-1.4v-.3c0-2.7-1.7-5-3.8-5-1.2 0-2.3.8-3 2-.8-3-3-5.2-5.5-5.2-3.2 0-5.8 3.5-5.8 7.7v.2c-2.6.7-4.6 3.7-4.6 7.4s2 6.7 4.6 7.4l-.1.1h17.1c1.2 0 2.4-.5 3.3-1.5V117z"/><path opacity=".15" d="M208.7 94.3h36.4v6h-36.4z"/><path fill="#fff" d="M245 115.2l-23-4.5v34.1h23z"/><path fill="#3B3B3B" d="M238.2 144.1c0-10.4-8.9-31.5-16.6-31.5-7.7 0-4.1 8.3-12.9 8.3s-12.1-28-28.3-28c-9.9 0-24.5 28.7-34.4 51.1h92.2z"/><path fill="#fff" d="M174.2 65.1v-.4c0-3.2-2.6-5.8-5.8-5.8-1.9 0-3.5.9-4.6 2.3-1.2-3.5-4.5-6.1-8.5-6.1-4.9 0-8.9 4-8.9 8.9v.2c-4 .8-7 4.3-7 8.6s3.1 7.8 7.1 8.6l-.1.2h26.2c4.6 0 8.3-3.7 8.3-8.3.1-4.1-2.8-7.5-6.7-8.2zM129.8 97.3v-.4c0-3.2-2.6-5.8-5.8-5.8-1.9 0-3.5.9-4.6 2.3-1.2-3.5-4.5-6.1-8.5-6.1-4.9 0-8.9 4-8.9 8.9v.2c-4 .8-7 4.3-7 8.6s3.1 7.8 7.1 8.6l-.1.2h26.2c4.6 0 8.3-3.7 8.3-8.3.1-4.1-2.8-7.4-6.7-8.2z"/><path fill="#3B3B3B" d="M95.1 145h81.2s-22.1-56.8-34.4-56.8-14.7 18-21.4 18c-6.7 0-6.5-5.6-13.7-5.6-2 0-6.4 3.3-11.7 8.2V145zM189.4 144.9h53.2s-14.5-38-22.6-38-9.7 12.1-14 12.1c-4.4 0-4.2-3.8-9-3.8-1.3 0-4.2 2.2-7.6 5.5v24.2z"/><path d="M208.8 127.8v-34h-12.4V76.7h-11v36.2h-17.5V104h-14.8v23.9h-9.6v-20.3l-4.1-6-4.1 6v12.7h-15.1v-15.8h-14.8v28.2h-7.6V145H242.4v-17.2h-33.6zm-106 14.7H101v-1.8h1.8v1.8zm7.7 0h-1.8v-1.8h1.8v1.8zm0-11h-1.8v-1.8h1.8v1.8zm0-11h-1.8v-1.8h1.8v1.8zm0-5.5h-1.8v-1.8h1.8v1.8zm6.7 11h-1.8v-1.8h1.8v1.8zm0-5.5h-1.8v-1.8h1.8v1.8zm0-11h-1.8v-1.8h1.8v1.8zm8 23.7h-1.8v-1.8h1.8v1.8zm0-7.2h-1.8v-1.8h1.8v1.8zm6.7 14.4h-1.8v-1.8h1.8v1.8zm0-14.4h-1.8v-1.8h1.8v1.8zm8.5 14.4h-1.8v-1.8h1.8v1.8zm0-20.6h-1.8V118h1.8v1.8zm0-10.3h-1.8v-1.8h1.8v1.8zm6.2 33.5h-1.8v-1.8h1.8v1.8zm5.1 0h-1.8v-1.8h1.8v1.8zm0-5.2h-1.8V136h1.8v1.8zm0-5.1h-1.8v-1.8h1.8v1.8zm7.3 7.7h-1.8v-1.8h1.8v1.8zm0-10.3h-1.8v-1.8h1.8v1.8zm0-5.2h-1.8v-1.8h1.8v1.8zm0-15.4h-1.8v-1.8h1.8v1.8zm5.1 25.8h-1.8v-1.8h1.8v1.8zm0-10.4h-1.8v-1.8h1.8v1.8zm0-5.1h-1.8V118h1.8v1.8zm0-10.3h-1.8v-1.8h1.8v1.8zm9.8 30.9h-1.8v-1.8h1.8v1.8zm0-5.1h-1.8v-1.8h1.8v1.8zm0-5.2h-1.8v-1.8h1.8v1.8zm7.7 10.3h-1.8v-1.8h1.8v1.8zm0-5.1h-1.8v-1.8h1.8v1.8zm0-10.4h-1.8v-1.8h1.8v1.8zm0-5.1h-1.8V118h1.8v1.8zm7.2-39.4h1.8v1.8h-1.8v-1.8zm2.8 57.9h-1.8v-1.8h1.8v1.8zm0-5.2h-1.8v-1.8h1.8v1.8zm0-5.1h-1.8v-1.8h1.8v1.8zm0-10.3h-1.8v-1.8h1.8v1.8zm0-5.2h-1.8v-1.8h1.8v1.8zm0-5.1h-1.8v-1.8h1.8v1.8zm0-5.2h-1.8v-1.8h1.8v1.8zm0-5.4h-1.8V95h1.8v1.8zm8.7 44.1h-1.8v-1.8h1.8v1.8zm0-15.5h-1.8v-1.8h1.8v1.8zm0-10.3h-1.8v-1.8h1.8v1.8zm0-5.1h-1.8v-1.8h1.8v1.8zm5.2 30.9h-1.8v-1.8h1.8v1.8zm0-5.2h-1.8v-1.8h1.8v1.8zm0-5.1h-1.8v-1.8h1.8v1.8zm0-5.2h-1.8v-1.8h1.8v1.8zm0-10.3h-1.8v-1.8h1.8v1.8zm0-5.1h-1.8v-1.8h1.8v1.8zm0-5.2h-1.8V103h1.8v1.8zm0-5.4h-1.8v-1.8h1.8v1.8zm13 41.9h-1.8v-1.8h1.8v1.8zm0-7.2h-1.8v-1.8h1.8v1.8zm6.7 7.2h-1.8v-1.8h1.8v1.8zm0-7.2h-1.8v-1.8h1.8v1.8zm6.2 7.2h-1.8v-1.8h1.8v1.8zm6.7 0h-1.8v-1.8h1.8v1.8zm0-7.2h-1.8v-1.8h1.8v1.8z"/><path fill="#fff" d="M101 140.9h1.8v1.8H101zM108.7 140.9h1.8v1.8h-1.8zM108.7 129.9h1.8v1.8h-1.8zM108.7 118.9h1.8v1.8h-1.8zM108.7 113.4h1.8v1.8h-1.8zM115.4 124.4h1.8v1.8h-1.8zM115.4 118.9h1.8v1.8h-1.8zM115.4 107.9h1.8v1.8h-1.8zM123.4 131.6h1.8v1.8h-1.8zM123.4 124.4h1.8v1.8h-1.8zM130.1 138.8h1.8v1.8h-1.8zM130.1 124.4h1.8v1.8h-1.8zM138.6 138.8h1.8v1.8h-1.8zM138.6 118.2h1.8v1.8h-1.8zM138.6 107.9h1.8v1.8h-1.8zM144.8 141.4h1.8v1.8h-1.8zM149.9 141.4h1.8v1.8h-1.8zM149.9 136.2h1.8v1.8h-1.8zM149.9 131.1h1.8v1.8h-1.8zM157.2 138.8h1.8v1.8h-1.8zM157.2 128.5h1.8v1.8h-1.8zM157.2 123.4h1.8v1.8h-1.8zM157.2 107.9h1.8v1.8h-1.8zM162.3 133.7h1.8v1.8h-1.8zM162.3 123.4h1.8v1.8h-1.8zM162.3 118.2h1.8v1.8h-1.8zM162.3 107.9h1.8v1.8h-1.8zM172.1 138.8h1.8v1.8h-1.8zM172.1 133.7h1.8v1.8h-1.8zM172.1 128.5h1.8v1.8h-1.8zM179.8 138.8h1.8v1.8h-1.8zM179.8 133.7h1.8v1.8h-1.8zM179.8 123.4h1.8v1.8h-1.8zM179.8 118.2h1.8v1.8h-1.8zM188.8 80.7h1.8v1.8h-1.8zM189.7 136.7h1.8v1.8h-1.8zM189.7 131.6h1.8v1.8h-1.8zM189.7 126.4h1.8v1.8h-1.8zM189.7 116.1h1.8v1.8h-1.8zM189.7 110.9h1.8v1.8h-1.8zM189.7 105.8h1.8v1.8h-1.8zM189.7 100.6h1.8v1.8h-1.8zM189.7 95.2h1.8V97h-1.8zM198.5 139.3h1.8v1.8h-1.8zM198.5 123.8h1.8v1.8h-1.8zM198.5 113.5h1.8v1.8h-1.8zM198.5 108.4h1.8v1.8h-1.8zM203.7 139.3h1.8v1.8h-1.8zM203.7 134.1h1.8v1.8h-1.8zM203.7 129h1.8v1.8h-1.8zM203.7 123.8h1.8v1.8h-1.8zM203.7 113.5h1.8v1.8h-1.8zM203.7 108.4h1.8v1.8h-1.8zM203.7 103.2h1.8v1.8h-1.8zM203.7 97.8h1.8v1.8h-1.8zM216.7 139.7h1.8v1.8h-1.8zM216.7 132.5h1.8v1.8h-1.8zM223.4 139.7h1.8v1.8h-1.8zM223.4 132.5h1.8v1.8h-1.8zM229.6 139.7h1.8v1.8h-1.8zM236.2 139.7h1.8v1.8h-1.8zM236.2 132.5h1.8v1.8h-1.8z"/><g fill="#fff"><path d="M139.5 158.7h1.8v5.3c0 1.2.6 1.9 1.9 1.9 1.3 0 1.9-.6 1.9-1.9v-5.3h1.8v5.4c0 2.2-1.2 3.3-3.6 3.3-1 0-1.8-.2-2.4-.6-.8-.6-1.3-1.5-1.3-2.7v-5.4zM149.2 167.1v-8.5h2.7c2 0 3 .9 3 2.6 0 .7-.2 1.2-.5 1.6-.2.3-.5.5-.9.7l2.2 3.6h-2l-1.9-3.3h-.9v3.3h-1.7zm1.7-4.5h.8c.6 0 1-.2 1.2-.5.1-.2.2-.5.2-.8 0-.4-.1-.7-.4-1-.3-.2-.6-.4-1-.4h-.8v2.7zM157.4 167.1v-8.5h2.8c1 0 1.7.2 2.2.6.5.4.7.9.7 1.6 0 .8-.3 1.4-1 1.8.9.4 1.4 1.1 1.4 2.1 0 1.6-1 2.4-3.1 2.4h-3zm1.7-4.9h1c.4 0 .7-.1.9-.3.2-.2.3-.5.3-.8s-.1-.6-.3-.8c-.2-.2-.5-.3-.9-.3h-1v2.2zm0 3.7h1.2c.9 0 1.4-.4 1.4-1.2 0-.4-.1-.6-.3-.8-.3-.2-.6-.4-1.1-.4h-1.2v2.4zM170.6 165.2H167l-.7 1.9h-1.7l3.3-8.5h1.9l3.3 8.5h-1.8l-.7-1.9zm-.5-1.4l-1.2-3.5-1.2 3.5h2.4zM174.8 167.1v-8.5h2.1l3.4 6.1v-6.1h1.7v8.5h-2.1l-3.4-6.1v6.1h-1.7zM184.4 167.1v-8.5h1.8v8.5h-1.8zM190.3 167.1v-7h-2.5v-1.4h6.8v1.4h-2.5v7h-1.8zM196.3 167.1v-8.5h5.2v1.4H198v2h3.3v1.4H198v2.2h3.6v1.4h-5.3z"/></g></g></svg>