<?xml version="1.0"?><svg xmlns="http://www.w3.org/2000/svg" xmlns:xlink="http://www.w3.org/1999/xlink" viewBox="0 0 190 190" enable-background="new 0 0 190 190" width="190px" height="190px"><path fill="#535252" d="M187.3 99c1.6-.6 2.7-2.2 2.7-4s-1.1-3.4-2.7-4c1.5-.8 2.5-2.4 2.4-4.3-.2-1.8-1.4-3.3-3.1-3.8 1.5-.9 2.3-2.6 2-4.4-.3-1.8-1.7-3.1-3.4-3.5 1.4-1 2.1-2.8 1.6-4.6s-2-3-3.7-3.2c1.3-1.2 1.8-3 1.2-4.7-.6-1.7-2.2-2.8-3.9-2.9 1.2-1.3 1.5-3.1.8-4.8-.8-1.7-2.4-2.6-4.2-2.5 1.1-1.4 1.3-3.3.3-4.8-.9-1.6-2.7-2.4-4.4-2.1.9-1.4 1-3.4-.1-4.9-1-1.5-2.9-2.1-4.5-1.7.8-1.5.7-3.4-.5-4.8s-3-1.9-4.7-1.3c.7-1.6.4-3.5-.9-4.8-1.3-1.3-3.2-1.6-4.8-.9.5-1.6.1-3.5-1.3-4.7-1.4-1.2-3.3-1.3-4.8-.5.4-1.7-.2-3.5-1.7-4.5s-3.4-1-4.9-.1c.2-1.7-.6-3.5-2.1-4.4-1.6-.9-3.5-.7-4.8.3.1-1.7-.8-3.4-2.5-4.2-1.7-.8-3.5-.4-4.8.8-.1-1.7-1.1-3.3-2.9-3.9-1.7-.6-3.6-.1-4.7 1.2-.2-1.7-1.4-3.2-3.2-3.7s-3.7.1-4.7 1.5c-.4-1.7-1.7-3.1-3.5-3.4-1.8-.3-3.5.5-4.4 2-.5-1.6-2-2.9-3.8-3.1-1.8-.2-3.5.8-4.3 2.4-.6-1.6-2.2-2.7-4-2.7s-3.4 1.1-4 2.7C90.2 1.2 88.6.2 86.7.3c-1.8.2-3.3 1.4-3.8 3.1-.9-1.5-2.6-2.3-4.4-2-1.8.3-3.1 1.7-3.5 3.4-1-1.4-2.8-2.1-4.6-1.6-1.8.5-3 2-3.2 3.7-1.2-1.3-3-1.8-4.7-1.2-1.7.6-2.8 2.2-2.9 3.9-1.3-1.2-3.1-1.5-4.8-.8-1.7.8-2.6 2.4-2.5 4.2-1.4-1.1-3.3-1.3-4.8-.3-1.6.9-2.4 2.7-2.1 4.4-1.4-.9-3.4-1-4.9.1-1.5 1-2.1 2.9-1.7 4.5-1.5-.8-3.4-.7-4.8.5s-1.9 3-1.3 4.7c-1.6-.7-3.5-.4-4.8.9-1.3 1.3-1.6 3.2-.9 4.8-1.6-.5-3.5-.1-4.7 1.3-1.2 1.4-1.3 3.3-.5 4.8-1.7-.4-3.5.2-4.5 1.7s-1 3.4-.1 4.9c-1.7-.2-3.5.6-4.4 2.1-.9 1.6-.7 3.5.3 4.8-1.7-.1-3.4.8-4.2 2.5-.8 1.7-.4 3.5.8 4.8-1.7.1-3.3 1.1-3.9 2.9-.6 1.7-.1 3.6 1.2 4.7-1.7.2-3.2 1.4-3.7 3.2S3.4 74 4.8 75c-1.7.4-3.1 1.7-3.4 3.5-.3 1.8.5 3.5 2 4.4-1.6.5-2.9 2-3.1 3.8-.2 1.8.8 3.5 2.4 4.3-1.6.6-2.7 2.2-2.7 4s1.1 3.4 2.7 4c-1.5.8-2.5 2.4-2.4 4.3.2 1.8 1.4 3.3 3.1 3.8-1.5.9-2.3 2.6-2 4.4.3 1.8 1.7 3.1 3.4 3.5-1.4 1-2.1 2.8-1.6 4.6.5 1.8 2 3 3.7 3.2-1.3 1.2-1.8 3-1.2 4.7.6 1.7 2.2 2.8 3.9 2.9-1.2 1.3-1.5 3.1-.8 4.8.8 1.7 2.4 2.6 4.2 2.5-1.1 1.4-1.3 3.3-.3 4.8.9 1.6 2.7 2.4 4.4 2.1-.9 1.4-1 3.4.1 4.9 1 1.5 2.9 2.1 4.5 1.7-.8 1.5-.7 3.4.5 4.8s3 1.9 4.7 1.3c-.7 1.6-.4 3.5.9 4.8 1.3 1.3 3.2 1.6 4.8.9-.5 1.6-.1 3.5 1.3 4.7 1.4 1.2 3.3 1.3 4.8.5-.4 1.7.2 3.5 1.7 4.5s3.4 1 4.9.1c-.2 1.7.6 3.5 2.1 4.4 1.6.9 3.5.7 4.8-.3-.1 1.7.8 3.4 2.5 4.2 1.7.8 3.5.4 4.8-.8.1 1.7 1.1 3.3 2.9 3.9 1.7.6 3.6.1 4.7-1.2.2 1.7 1.4 3.2 3.2 3.7 1.8.5 3.6-.2 4.6-1.6.4 1.7 1.7 3.1 3.5 3.4 1.8.3 3.5-.5 4.4-2 .5 1.6 2 2.9 3.8 3.1 1.8.2 3.5-.8 4.3-2.4.6 1.6 2.2 2.7 4 2.7s3.4-1.1 4-2.7c.8 1.5 2.4 2.5 4.3 2.4 1.8-.2 3.3-1.4 3.8-3.1.9 1.5 2.6 2.3 4.4 2 1.8-.3 3.1-1.7 3.5-3.4 1 1.4 2.8 2.1 4.6 1.6s3-2 3.2-3.7c1.2 1.3 3 1.8 4.7 1.2 1.7-.6 2.8-2.2 2.9-3.9 1.3 1.2 3.1 1.5 4.8.8 1.7-.8 2.6-2.4 2.5-4.2 1.4 1.1 3.3 1.3 4.8.3 1.6-.9 2.4-2.7 2.1-4.4 1.4.9 3.4 1 4.9-.1 1.5-1 2.1-2.9 1.7-4.5 1.5.8 3.4.7 4.8-.5s1.9-3 1.3-4.7c1.6.7 3.5.4 4.8-.9s1.6-3.2.9-4.8c1.6.5 3.5.1 4.7-1.3 1.2-1.4 1.3-3.3.5-4.8 1.7.4 3.5-.2 4.5-1.7s1-3.4.1-4.9c1.7.2 3.5-.6 4.4-2.1.9-1.6.7-3.5-.3-4.8 1.7.1 3.4-.8 4.2-2.5.8-1.7.4-3.5-.8-4.8 1.7-.1 3.3-1.1 3.9-2.9.6-1.7.1-3.6-1.2-4.7 1.7-.2 3.2-1.4 3.7-3.2.5-1.8-.2-3.6-1.6-4.6 1.7-.4 3.1-1.7 3.4-3.5.3-1.8-.5-3.5-2-4.4 1.6-.5 2.9-2 3.1-3.8.3-1.8-.7-3.5-2.2-4.3z"/><path fill="#010202" d="M122.6 158.1l2 3.2c-9.5 4-19.6 6-29.7 6.2-10.1-.1-20.2-2.2-29.7-6.2l2-3.2-10-.4 4.7 8.8 1.9-3c9.8 4.2 20.3 6.3 30.8 6.4h.6c10.5-.1 21-2.3 30.8-6.4l1.9 3 4.7-8.8-10 .4z"/><defs><path id="a" d="M122.6 158.1l2 3.2c-9.5 4-19.6 6-29.7 6.2-10.1-.1-20.2-2.2-29.7-6.2l2-3.2-10-.4 4.7 8.8 1.9-3c9.8 4.2 20.3 6.3 30.8 6.4h.6c10.5-.1 21-2.3 30.8-6.4l1.9 3 4.7-8.8-10 .4z"/></defs><clipPath><use xlink:href="#a" overflow="visible"/></clipPath><linearGradient id="b" gradientUnits="userSpaceOnUse" x1="94.869" y1="170.499" x2="94.869" y2="157.145"><stop offset="0" stop-color="#fff" stop-opacity=".2"/><stop offset="1" stop-opacity="0"/></linearGradient><path fill="none" stroke="url(#b)" stroke-miterlimit="10" d="M122.6 158.1l2 3.2c-9.5 4-19.6 6-29.7 6.2-10.1-.1-20.2-2.2-29.7-6.2l2-3.2-10-.4 4.7 8.8 1.9-3c9.8 4.2 20.3 6.3 30.8 6.4h.6c10.5-.1 21-2.3 30.8-6.4l1.9 3 4.7-8.8-10 .4z"/><path fill="#010202" d="M67.1 31.9l-2-3.2c9.5-4 19.6-6 29.7-6.2 10.1.1 20.2 2.2 29.7 6.2l-2 3.2 10 .4-4.7-8.8-1.9 3c-9.8-4.2-20.3-6.3-30.8-6.4h-.6c-10.5.1-21 2.3-30.8 6.4l-1.9-3-4.7 8.8 10-.4z"/><defs><path id="c" d="M67.1 31.9l-2-3.2c9.5-4 19.6-6 29.7-6.2 10.1.1 20.2 2.2 29.7 6.2l-2 3.2 10 .4-4.7-8.8-1.9 3c-9.8-4.2-20.3-6.3-30.8-6.4h-.6c-10.5.1-21 2.3-30.8 6.4l-1.9-3-4.7 8.8 10-.4z"/></defs><clipPath><use xlink:href="#c" overflow="visible"/></clipPath><linearGradient id="d" gradientUnits="userSpaceOnUse" x1="94.869" y1="308.175" x2="94.869" y2="294.822" gradientTransform="matrix(-1 0 0 -1 189.738 327.676)"><stop offset="0" stop-color="#fff" stop-opacity=".2"/><stop offset="1" stop-opacity="0"/></linearGradient><path fill="none" stroke="url(#d)" stroke-miterlimit="10" d="M67.1 31.9l-2-3.2c9.5-4 19.6-6 29.7-6.2 10.1.1 20.2 2.2 29.7 6.2l-2 3.2 10 .4-4.7-8.8-1.9 3c-9.8-4.2-20.3-6.3-30.8-6.4h-.6c-10.5.1-21 2.3-30.8 6.4l-1.9-3-4.7 8.8 10-.4z"/><path fill="#010202" d="M31.6 122.6l-3.2 2c-4-9.5-6-19.6-6.2-29.7.1-10.1 2.2-20.2 6.2-29.7l3.2 2 .4-10-8.8 4.7 3 1.9c-4.2 9.8-6.3 20.3-6.4 30.8v.6c.1 10.5 2.3 21 6.4 30.8l-3 1.9 8.8 4.7-.4-10z"/><defs><path id="e" d="M31.6 122.6l-3.2 2c-4-9.5-6-19.6-6.2-29.7.1-10.1 2.2-20.2 6.2-29.7l3.2 2 .4-10-8.8 4.7 3 1.9c-4.2 9.8-6.3 20.3-6.4 30.8v.6c.1 10.5 2.3 21 6.4 30.8l-3 1.9 8.8 4.7-.4-10z"/></defs><clipPath><use xlink:href="#e" overflow="visible"/></clipPath><linearGradient id="f" gradientUnits="userSpaceOnUse" x1="94.869" y1="170.499" x2="94.869" y2="157.145" gradientTransform="matrix(0 1 -1 0 189.703 -.035)"><stop offset="0" stop-color="#fff" stop-opacity=".2"/><stop offset="1" stop-opacity="0"/></linearGradient><path fill="none" stroke="url(#f)" stroke-miterlimit="10" d="M31.6 122.6l-3.2 2c-4-9.5-6-19.6-6.2-29.7.1-10.1 2.2-20.2 6.2-29.7l3.2 2 .4-10-8.8 4.7 3 1.9c-4.2 9.8-6.3 20.3-6.4 30.8v.6c.1 10.5 2.3 21 6.4 30.8l-3 1.9 8.8 4.7-.4-10z"/><path fill="#010202" d="M158.1 67.1l3.2-2c4 9.5 6 19.6 6.2 29.7-.1 10.1-2.2 20.2-6.2 29.7l-3.2-2-.4 10 8.8-4.7-3-1.9c4.2-9.8 6.3-20.3 6.4-30.8v-.6c-.1-10.5-2.3-21-6.4-30.8l3-1.9-8.8-4.7.4 10z"/><defs><path id="g" d="M158.1 67.1l3.2-2c4 9.5 6 19.6 6.2 29.7-.1 10.1-2.2 20.2-6.2 29.7l-3.2-2-.4 10 8.8-4.7-3-1.9c4.2-9.8 6.3-20.3 6.4-30.8v-.6c-.1-10.5-2.3-21-6.4-30.8l3-1.9-8.8-4.7.4 10z"/></defs><clipPath><use xlink:href="#g" overflow="visible"/></clipPath><linearGradient id="h" gradientUnits="userSpaceOnUse" x1="94.869" y1="308.473" x2="94.869" y2="295.119" gradientTransform="matrix(0 -1 1 0 -137.974 189.703)"><stop offset="0" stop-color="#fff" stop-opacity=".2"/><stop offset="1" stop-opacity="0"/></linearGradient><path fill="none" stroke="url(#h)" stroke-miterlimit="10" d="M158.1 67.1l3.2-2c4 9.5 6 19.6 6.2 29.7-.1 10.1-2.2 20.2-6.2 29.7l-3.2-2-.4 10 8.8-4.7-3-1.9c4.2-9.8 6.3-20.3 6.4-30.8v-.6c-.1-10.5-2.3-21-6.4-30.8l3-1.9-8.8-4.7.4 10z"/></svg>