<svg xmlns="http://www.w3.org/2000/svg" viewBox="0 0 190 190" enable-background="new 0 0 190 190" width="190px" height="190px"><path fill="#222" d="M161.8 125.3c0 2.2-1.8 4-4 4H32.2c-2.2 0-4-1.8-4-4v-17c0-2.2 1.8-4 4-4h125.7c2.2 0 4 1.8 4 4v17z"/><g><path fill="#1E1E1E" d="M0 99.2h190.1v34H0z"/><radialGradient id="a" cx="95" cy="116.834" r="68" gradientTransform="matrix(1 0 0 .201 0 93.352)" gradientUnits="userSpaceOnUse"><stop offset=".002" stop-opacity="0"/><stop offset=".855" stop-opacity=".858"/><stop offset=".996"/></radialGradient><path fill="url(#a)" d="M161.8 125.3c0 2.2-1.8 4-4 4H32.2c-2.2 0-4-1.8-4-4v-17c0-2.2 1.8-4 4-4h125.7c2.2 0 4 1.8 4 4v17z"/></g><g opacity=".8"><linearGradient id="b" gradientUnits="userSpaceOnUse" x1="95" y1="129.334" x2="95" y2="104.334"><stop offset="0" stop-color="#3C3C3B"/><stop offset=".554" stop-color="#3A3A39"/><stop offset=".757" stop-color="#333433"/><stop offset=".902" stop-color="#272827"/><stop offset="1" stop-color="#1A1B1A"/></linearGradient><path fill="url(#b)" d="M157.8 105.3c1.7 0 3 1.3 3 3v17c0 1.7-1.3 3-3 3H32.2c-1.7 0-3-1.3-3-3v-17c0-1.7 1.3-3 3-3h125.6m0-1H32.2c-2.2 0-4 1.8-4 4v17c0 2.2 1.8 4 4 4h125.7c2.2 0 4-1.8 4-4v-17c-.1-2.2-1.9-4-4.1-4z"/></g></svg>