<svg xmlns="http://www.w3.org/2000/svg" xmlns:xlink="http://www.w3.org/1999/xlink" viewBox="0 0 190 190" enable-background="new 0 0 190 190" width="190px" height="190px"><path fill="#1E1E1E" d="M0-.5v135h190V-.5H0zm161.8 125.8c0 2.2-1.8 4-4 4H32.2c-2.2 0-4-1.8-4-4v-17c0-2.2 1.8-4 4-4h125.7c2.2 0 4 1.8 4 4v17zm1.3-28H26.9c-2.8-7.8-4.4-16.1-4.4-24.9C22.5 32.5 55 0 95 0s72.5 32.5 72.5 72.5c0 8.7-1.6 17.1-4.4 24.8z"/><defs><path id="a" d="M163.1 97.3H26.9c-2.8-7.8-4.4-16.1-4.4-24.9C22.5 32.5 55 0 95 0s72.5 32.5 72.5 72.5c0 8.7-1.6 17.1-4.4 24.8z"/></defs><clipPath id="b"><use xlink:href="#a" overflow="visible"/></clipPath><g clip-path="url(#b)"><defs><circle id="c" cx="95" cy="72.3" r="73"/></defs><clipPath id="d"><use xlink:href="#c" overflow="visible"/></clipPath><radialGradient id="e" cx="95" cy="82.337" r="83.004" gradientUnits="userSpaceOnUse"><stop offset=".873" stop-color="#010202" stop-opacity="0"/><stop offset=".947" stop-color="#010202" stop-opacity=".187"/><stop offset="1" stop-color="#010202" stop-opacity=".2"/></radialGradient><circle clip-path="url(#d)" fill="url(#e)" cx="95" cy="82.3" r="83"/></g></svg>