<?xml version="1.0"?><svg xmlns="http://www.w3.org/2000/svg" xmlns:xlink="http://www.w3.org/1999/xlink" viewBox="0 0 350 350" enable-background="new 0 0 350 350" width="150px" height="150px"><g><path fill="#060707" d="M324.8 175.3c.9-6.8 1.4-13.8 1.4-21 0-83.3-67.7-151-151-151S24.5 71 24.5 154.3c0 7.2.5 14.2 1.4 21h298.9z"/><linearGradient id="a" gradientUnits="userSpaceOnUse" x1="168.216" y1="7.409" x2="168.216" y2="69.339" gradientTransform="matrix(-2.333 0 0 2.333 495.748 .012)"><stop offset="0" stop-color="#595758"/><stop offset="1" stop-color="#4F4D4D"/></linearGradient><path fill="url(#a)" d="M170.6 17.3C95.7 20.1 35.9 81.7 35.9 157.1c0 1.6 0 3 .2 4.7h134.4V17.3h.1z"/><path fill="#020304" d="M98.2 98.1l30.4 17.5v-35z"/><defs><path id="b" d="M170.6 17.3C95.7 20.1 35.9 81.7 35.9 157.1c0 1.6 0 3 .2 4.7h134.4V17.3h.1z"/></defs><clipPath id="c"><use xlink:href="#b" overflow="visible"/></clipPath><radialGradient id="d" cx="149.894" cy="71.583" r="67.12" gradientTransform="matrix(-2.165 0 0 2.348 494.466 -2.049)" gradientUnits="userSpaceOnUse"><stop offset=".909" stop-color="#fff" stop-opacity="0"/><stop offset="1" stop-color="#fff" stop-opacity=".4"/></radialGradient><ellipse clip-path="url(#c)" fill="url(#d)" cx="169.9" cy="166" rx="145.4" ry="157.5"/><defs><path id="e" d="M170.6 17.3C95.7 20.1 35.9 81.7 35.9 157.1c0 1.6 0 3 .2 4.7h134.4V17.3h.1z"/></defs><clipPath id="f"><use xlink:href="#e" overflow="visible"/></clipPath><linearGradient id="g" gradientUnits="userSpaceOnUse" x1="77.922" y1="32.824" x2="77.922" y2="40.46" gradientTransform="matrix(0 2.333 2.333 0 89.112 -73.467)"><stop offset="0" stop-color="#474847" stop-opacity="0"/><stop offset=".24" stop-color="#888" stop-opacity=".304"/><stop offset=".5" stop-color="#C8C8C8" stop-opacity=".634"/><stop offset=".691" stop-color="#F0F0F0" stop-opacity=".875"/><stop offset=".789" stop-color="#fff"/></linearGradient><path clip-path="url(#f)" fill="url(#g)" d="M165.7-9.5h17.7v235.7h-17.7z"/><defs><path id="h" d="M170.6 17.3C95.7 20.1 35.9 81.7 35.9 157.1c0 1.6 0 3 .2 4.7h134.4V17.3h.1z"/></defs><clipPath id="i"><use xlink:href="#h" overflow="visible"/></clipPath><linearGradient id="j" gradientUnits="userSpaceOnUse" x1="164.873" y1="63.006" x2="164.873" y2="70.642" gradientTransform="matrix(-2.333 0 0 2.333 495.748 .012)"><stop offset="0" stop-color="#474847" stop-opacity="0"/><stop offset=".159" stop-color="#363736" stop-opacity=".202"/><stop offset=".574" stop-color="#0F0F0F" stop-opacity=".727"/><stop offset=".789"/></linearGradient><path clip-path="url(#i)" fill="url(#j)" d="M-6.8 147.1h235.7v17.7H-6.8z"/><linearGradient id="k" gradientUnits="userSpaceOnUse" x1="167.424" y1="47.986" x2="153.676" y2="40.049" gradientTransform="matrix(-2.333 0 0 2.333 495.748 .012)"><stop offset="0" stop-color="#fff" stop-opacity=".3"/><stop offset=".856" stop-color="#fff" stop-opacity=".129"/><stop offset="1" stop-color="#fff" stop-opacity=".1"/></linearGradient><path fill="none" stroke="url(#k)" stroke-width=".5" stroke-miterlimit="10" d="M98.2 98.1l30.4 17.5v-35z"/><defs><path id="l" d="M98.2 98.1l30.4 17.5v-35z"/></defs><clipPath id="m"><use xlink:href="#l" overflow="visible"/></clipPath><radialGradient id="n" cx="175.072" cy="44.318" r="11.371" gradientTransform="matrix(-1.947 0 0 2.046 458.413 7.909)" gradientUnits="userSpaceOnUse"><stop offset="0" stop-opacity="0"/><stop offset="1"/></radialGradient><ellipse clip-path="url(#m)" fill="url(#n)" cx="117.6" cy="98.5" rx="22.2" ry="23.3"/><path fill="#333" d="M180.6 17.3c74.9 2.8 134.6 64.4 134.6 139.8 0 1.6 0 3-.2 4.7H180.6V17.3z"/><path fill="#020304" d="M252.9 102.7l-30.3 17.5v-35z"/><defs><path id="o" d="M252.9 102.7l-30.3 17.5v-35z"/></defs><clipPath id="p"><use xlink:href="#o" overflow="visible"/></clipPath><radialGradient id="q" cx="249.374" cy="46.599" r="11.381" gradientTransform="matrix(1.947 0 0 2.046 -252.017 7.909)" gradientUnits="userSpaceOnUse"><stop offset="0" stop-opacity="0"/><stop offset="1"/></radialGradient><ellipse clip-path="url(#p)" fill="url(#q)" cx="233.3" cy="103.2" rx="22.2" ry="23.3"/><linearGradient id="r" gradientUnits="userSpaceOnUse" x1="220.462" y1="45.199" x2="206.725" y2="53.13" gradientTransform="matrix(2.333 0 0 -2.333 -269.051 222.04)"><stop offset="0" stop-color="#fff" stop-opacity=".3"/><stop offset=".856" stop-color="#fff" stop-opacity=".129"/><stop offset="1" stop-color="#fff" stop-opacity=".1"/></linearGradient><path opacity=".5" fill="none" stroke="url(#r)" stroke-width=".5" stroke-miterlimit="10" enable-background="new" d="M252.2 102.7l-30.3-17.5v35z"/><defs><path id="s" d="M180.6 17.3c74.9 2.8 134.6 64.4 134.6 139.8 0 1.6 0 3-.2 4.7H180.6V17.3z"/></defs><clipPath id="t"><use xlink:href="#s" overflow="visible"/></clipPath><radialGradient id="u" cx="18.806" cy="70.282" r="71.326" gradientTransform="matrix(-2.43 0 0 2.371 221.407 -5.566)" gradientUnits="userSpaceOnUse"><stop offset=".552" stop-color="#333" stop-opacity="0"/><stop offset=".562" stop-color="#353434" stop-opacity=".028"/><stop offset=".623" stop-color="#3A3837" stop-opacity=".201"/><stop offset=".683" stop-color="#373535" stop-opacity=".373"/><stop offset=".741" stop-color="#302F2E" stop-opacity=".541"/><stop offset=".798" stop-color="#222" stop-opacity=".703"/><stop offset=".852" stop-color="#131313" stop-opacity=".857"/><stop offset=".899" stop-color="#0C0B0B" stop-opacity=".993"/><stop offset=".942" stop-color="#040404" stop-opacity=".996"/><stop offset="1"/></radialGradient><ellipse clip-path="url(#t)" fill="url(#u)" cx="175.7" cy="161.1" rx="181.5" ry="160.8"/><path fill="none" stroke="#000" stroke-miterlimit="10" d="M180.6 17.3c74.9 2.8 134.6 64.4 134.6 139.8 0 1.6 0 3-.2 4.7H180.6V17.3z"/><path opacity=".2" fill="#010202" enable-background="new" d="M180.6 17.3c74.9 2.8 134.6 64.4 134.6 139.8 0 1.6 0 3-.2 4.7H180.6V17.3z"/></g></svg>