<svg xmlns="http://www.w3.org/2000/svg" xmlns:xlink="http://www.w3.org/1999/xlink" viewBox="0 0 350 350" enable-background="new 0 0 350 350" width="350px" height="350px"><defs><path id="a" d="M.2-.2h350v350H.2z"/></defs><clipPath id="b"><use xlink:href="#a" overflow="visible"/></clipPath><radialGradient id="c" cx="148.762" cy="148.699" r="195.496" gradientTransform="matrix(1.169 0 0 -1.015 3.438 349.3)" gradientUnits="userSpaceOnUse"><stop offset=".715" stop-opacity="0"/><stop offset="1"/></radialGradient><ellipse clip-path="url(#b)" fill="url(#c)" cx="177.4" cy="198.4" rx="228.6" ry="198.4"/><path fill="#1E1E1E" d="M0-.2v350h350V-.2H0zm338 179.4h-81.8c-2.9 0-5.3-2.2-5.5-5.1-2.6-39.5-35.4-75.8-75.5-75.8s-72.9 36.3-75.5 75.8c-.2 2.9-2.6 5.1-5.5 5.1H12.4c-3.1 0-5.7-2.6-5.6-5.7C9.7 83.7 83.9 6.3 175 6.3s165.4 77.3 168.4 167.2c.2 3.1-2.3 5.7-5.4 5.7z"/><path fill="none" stroke="#010202" stroke-miterlimit="10" d="M338 179.2h-81.8c-2.9 0-5.3-2.2-5.5-5.1-2.6-39.5-35.4-75.8-75.5-75.8s-72.9 36.3-75.5 75.8c-.2 2.9-2.6 5.1-5.5 5.1H12.4c-3.1 0-5.7-2.6-5.6-5.7C9.7 83.7 83.9 6.3 175 6.3s165.4 77.3 168.4 167.2c.2 3.1-2.3 5.7-5.4 5.7z"/><path fill="#545353" d="M175.2 19.8l-8.1-14h16.2z"/></svg>