<svg xmlns="http://www.w3.org/2000/svg" xmlns:xlink="http://www.w3.org/1999/xlink" viewBox="0 0 350 350" enable-background="new 0 0 350 350"><g><path fill="#060707" d="M25.9 175.3c-.9-6.8-1.4-13.8-1.4-21 0-83.3 67.4-151 150.7-151s151 67.7 151 151c0 7.2-.5 14.2-1.4 21H25.9z"/><linearGradient id="a" gradientUnits="userSpaceOnUse" x1="168.244" y1="7.409" x2="168.244" y2="69.339" gradientTransform="matrix(2.333 0 0 2.333 -145.164 .012)"><stop offset="0" stop-color="#595758"/><stop offset="1" stop-color="#4F4D4D"/></linearGradient><path fill="url(#a)" d="M180.1 17.3c74.9 2.8 134.6 64.4 134.6 139.8 0 1.6 0 3-.2 4.7H180.1V17.3z"/><path fill="#020304" d="M252.5 98.1l-30.4 17.5v-35z"/><defs><path id="b" d="M180.1 17.3c74.9 2.8 134.6 64.4 134.6 139.8 0 1.6 0 3-.2 4.7H180.1V17.3z"/></defs><clipPath id="c"><use xlink:href="#b" overflow="visible"/></clipPath><radialGradient id="d" cx="149.948" cy="71.583" r="67.12" gradientTransform="matrix(2.165 0 0 2.348 -143.882 -2.049)" gradientUnits="userSpaceOnUse"><stop offset=".909" stop-color="#fff" stop-opacity="0"/><stop offset="1" stop-color="#fff" stop-opacity=".4"/></radialGradient><ellipse clip-path="url(#c)" fill="url(#d)" cx="180.8" cy="166" rx="145.4" ry="157.5"/><defs><path id="e" d="M180.1 17.3c74.9 2.8 134.6 64.4 134.6 139.8 0 1.6 0 3-.2 4.7H180.1V17.3z"/></defs><clipPath id="f"><use xlink:href="#e" overflow="visible"/></clipPath><linearGradient id="g" gradientUnits="userSpaceOnUse" x1="77.922" y1="32.824" x2="77.922" y2="40.46" gradientTransform="matrix(0 2.333 -2.333 0 261.472 -73.467)"><stop offset="0" stop-color="#474847" stop-opacity="0"/><stop offset=".24" stop-color="#888" stop-opacity=".304"/><stop offset=".5" stop-color="#C8C8C8" stop-opacity=".634"/><stop offset=".691" stop-color="#F0F0F0" stop-opacity=".875"/><stop offset=".789" stop-color="#fff"/></linearGradient><path clip-path="url(#f)" fill="url(#g)" d="M167.1-9.5h17.7v235.7h-17.7z"/><defs><path id="h" d="M180.1 17.3c74.9 2.8 134.6 64.4 134.6 139.8 0 1.6 0 3-.2 4.7H180.1V17.3z"/></defs><clipPath id="i"><use xlink:href="#h" overflow="visible"/></clipPath><linearGradient id="j" gradientUnits="userSpaceOnUse" x1="164.923" y1="63.006" x2="164.923" y2="70.642" gradientTransform="matrix(2.333 0 0 2.333 -145.164 .012)"><stop offset="0" stop-color="#474847" stop-opacity="0"/><stop offset=".159" stop-color="#363736" stop-opacity=".202"/><stop offset=".574" stop-color="#0F0F0F" stop-opacity=".727"/><stop offset=".789"/></linearGradient><path clip-path="url(#i)" fill="url(#j)" d="M121.8 147.1h235.7v17.7H121.8z"/><linearGradient id="k" gradientUnits="userSpaceOnUse" x1="167.445" y1="47.97" x2="153.697" y2="40.032" gradientTransform="matrix(2.333 0 0 2.333 -145.164 .012)"><stop offset="0" stop-color="#fff" stop-opacity=".3"/><stop offset=".856" stop-color="#fff" stop-opacity=".129"/><stop offset="1" stop-color="#fff" stop-opacity=".1"/></linearGradient><path fill="none" stroke="url(#k)" stroke-width=".5" stroke-miterlimit="10" d="M252.5 98.1l-30.4 17.5v-35z"/><defs><path id="l" d="M252.5 98.1l-30.4 17.5v-35z"/></defs><clipPath id="m"><use xlink:href="#l" overflow="visible"/></clipPath><radialGradient id="n" cx="175.052" cy="44.318" r="11.388" gradientTransform="matrix(1.947 0 0 2.046 -107.829 7.909)" gradientUnits="userSpaceOnUse"><stop offset="0" stop-opacity="0"/><stop offset="1"/></radialGradient><ellipse clip-path="url(#m)" fill="url(#n)" cx="232.9" cy="98.5" rx="22.2" ry="23.3"/><path fill="#333" d="M170.1 17.3C95.2 20.1 35.5 81.7 35.5 157.1c0 1.6 0 3 .2 4.7h134.4V17.3z"/><path fill="#020304" d="M97.8 102.7l30.3 17.5v-35z"/><defs><path id="o" d="M97.8 102.7l30.3 17.5v-35z"/></defs><clipPath id="p"><use xlink:href="#o" overflow="visible"/></clipPath><radialGradient id="q" cx="249.397" cy="46.599" r="11.38" gradientTransform="matrix(-1.947 0 0 2.046 602.6 7.909)" gradientUnits="userSpaceOnUse"><stop offset="0" stop-opacity="0"/><stop offset="1"/></radialGradient><ellipse clip-path="url(#p)" fill="url(#q)" cx="117.1" cy="103.2" rx="22.2" ry="23.3"/><linearGradient id="r" gradientUnits="userSpaceOnUse" x1="220.441" y1="45.182" x2="206.704" y2="53.114" gradientTransform="matrix(-2.333 0 0 -2.333 619.635 222.04)"><stop offset="0" stop-color="#fff" stop-opacity=".3"/><stop offset=".856" stop-color="#fff" stop-opacity=".129"/><stop offset="1" stop-color="#fff" stop-opacity=".1"/></linearGradient><path opacity=".5" fill="none" stroke="url(#r)" stroke-width=".5" stroke-miterlimit="10" enable-background="new" d="M98.5 102.7l30.3-17.5v35z"/><defs><path id="s" d="M170.1 17.3C95.2 20.1 35.5 81.7 35.5 157.1c0 1.6 0 3 .2 4.7h134.4V17.3z"/></defs><clipPath id="t"><use xlink:href="#s" overflow="visible"/></clipPath><radialGradient id="u" cx="18.772" cy="70.282" r="71.326" gradientTransform="matrix(2.43 0 0 2.371 129.177 -5.566)" gradientUnits="userSpaceOnUse"><stop offset=".552" stop-color="#333" stop-opacity="0"/><stop offset=".562" stop-color="#353434" stop-opacity=".028"/><stop offset=".623" stop-color="#3A3837" stop-opacity=".201"/><stop offset=".683" stop-color="#373535" stop-opacity=".373"/><stop offset=".741" stop-color="#302F2E" stop-opacity=".541"/><stop offset=".798" stop-color="#222" stop-opacity=".703"/><stop offset=".852" stop-color="#131313" stop-opacity=".857"/><stop offset=".899" stop-color="#0C0B0B" stop-opacity=".993"/><stop offset=".942" stop-color="#040404" stop-opacity=".996"/><stop offset="1"/></radialGradient><ellipse clip-path="url(#t)" fill="url(#u)" cx="174.8" cy="161.1" rx="181.5" ry="160.8"/><path fill="none" stroke="#000" stroke-miterlimit="10" d="M170.1 17.3C95.2 20.1 35.5 81.7 35.5 157.1c0 1.6 0 3 .2 4.7h134.4V17.3z"/><path opacity=".2" fill="#010202" enable-background="new" d="M170.1 17.3C95.2 20.1 35.5 81.7 35.5 157.1c0 1.6 0 3 .2 4.7h134.4V17.3z"/></g></svg>