<?xml version="1.0"?><svg xmlns="http://www.w3.org/2000/svg" xmlns:xlink="http://www.w3.org/1999/xlink" viewBox="0 0 350 350" enable-background="new 0 0 350 350" width="350px" height="350px"><g fill="#111"><path d="M50.4 179h1.7v1.3h-1.7zM57.4 185.3h2.5v1.3h-2.5zM59.96 174.1l-7.2-.006v-1.2l7.2.007zM58.4 163.5h3.9v1.3h-3.9zM175.7 4.7c-93.9 0-170 76.1-170 170s76.1 170 170 170 170-76.1 170-170-76.1-170-170-170zM57.4 162.4h4.9v-1.8h9.9v7.1h-9.9v-2h-4.9v-3.3zm4.2 4.1v1.3h-2v-1.4h2zm-8.4 1.3h1.2v-1.1h4.5v3.7h-4.5v-1.1h-1.2v-1.5zm-1.1 15.6v-2.1h-2.7V178h2.7v-2.1h5.7c.7 0 1.3.6 1.3 1.3v4.9c0 .7-.6 1.3-1.3 1.3h-5.7zm19.9 9.3H59.9v-5h-3.5v-3.4h3.5v-5H72v13.4zm1-21.8c0 .5-.3.9-.8 1.1v3.1c.5.1.8.6.8 1.1 0 .5-.3.9-.8 1.1v1.2H60v-3.1h-8.3V172H60v-3.1h12.2v1.2c.5-.1.8.3.8.8zm96.4 109.4c-.3-.2-.7-.4-1.1-.4h-.1l-1.3-4.5-1.1.3 1.3 4.6-.3.3c-.2.3-.4.6-.4 1l-1.6-5.6-2.9.8-3.2-11.3 1.1-.3c0-.5.3-.9.8-1s.9.1 1.2.5l2.8-.8c0-.5.3-.9.8-1s.9.1 1.2.5l1.1-.3 3.2 11.3-2.9.8 1.4 5.1zM181 80.2v-7.1h3.2v-2.2c.4 0 .8-.2 1.1-.4v2.6h1.4v-2.9h-1.1l.1-.1c.2-.3.3-.6.4-.9h1.6v3.9h3.2v7.1c0 .8-.7 1.5-1.5 1.5h-7c-.7 0-1.4-.7-1.4-1.5zm7.7 198.3l-1.8-.6-1.4 4.5v-.1c.1-.5 0-1.1-.3-1.5 0-.1-.1-.1-.1-.2l.9-3.2-1.1-.3-.8 3h-.1c-.4 0-.8.2-1.1.4l1.2-3.6-1.6-.5 2.9-9.1 6.5 2.1-3.2 9.1zm91-94.9l-11.3 3.2-.3-1.1c-.5 0-.9-.3-1-.8s.1-.9.5-1.2l-.8-2.8c-.5 0-.9-.3-1-.8-.1-.5.1-.9.5-1.2l-.3-1.1 11.3-3.2.8 2.9 5.1-1.5c-.2.3-.3.7-.3 1.1v.1l-4.5 1.3.3 1.1 4.6-1.3.3.3c.3.2.6.4 1 .4l-5.6 1.6.7 3z"/></g><g><g fill="#6C6C6C"><path d="M185.2 68.4l-2.7-11.5c-.3-1.2-1.3-2-2.6-2H172.3c-1.2 0-2.3.8-2.6 2L167 68.4c-.2.7.4 1.3 1 1.3.5 0 .9-.3 1-.8l2.3-8.3h.7v26.6c0 1 .8 1.8 1.8 1.8s1.8-.8 1.8-1.8V74.3h1v12.9c0 1 .8 1.8 1.8 1.8s1.8-.8 1.8-1.8V60.6h.7l2.3 8.3c.1.5.6.8 1 .8.6 0 1.1-.6 1-1.3z"/><circle cx="176.1" cy="50.5" r="3.5"/></g><g fill="#fff"><path d="M167.4 282.4l2.6 11.1c.3 1.1 1.3 1.9 2.5 1.9H179.7c1.2 0 2.2-.8 2.5-1.9l2.6-11.1c.2-.6-.3-1.3-1-1.3-.5 0-.9.3-1 .8l-2.2 8h-.6v-25.4c0-.9-.8-1.7-1.7-1.7-.9 0-1.7.8-1.7 1.7v12.3h-1v-12.3c0-.9-.8-1.7-1.7-1.7-.9 0-1.7.8-1.7 1.7v25.4h-.6l-2.2-8c-.1-.4-.5-.8-1-.8-.7.1-1.2.7-1 1.3z"/><circle cx="176.1" cy="299.6" r="3.4"/></g><g fill="#6C6C6C"><path d="M285.3 178.2l11.5-2.7c1.2-.3 2-1.3 2-2.6V165.3c0-1.2-.8-2.3-2-2.6l-11.5-2.7c-.7-.2-1.3.4-1.3 1 0 .5.3.9.8 1l8.3 2.3v.7h-26.6c-1 0-1.8.8-1.8 1.8s.8 1.8 1.8 1.8h12.9v1h-12.9c-1 0-1.8.8-1.8 1.8s.8 1.8 1.8 1.8h26.6v.7l-8.3 2.3c-.5.1-.8.6-.8 1-.1.6.6 1.1 1.3 1z"/><circle cx="303.2" cy="169.1" r="3.5"/></g><g fill="#6C6C6C"><path d="M65.3 199.3c2.1 0 3.7-1.7 3.7-3.7 0-.4-.1-.7-.2-1.1h-7.1c-.1.3-.2.7-.2 1.1 0 2 1.7 3.7 3.8 3.7zM73.3 154c-.3 1 .3 2 1.3 2.3l1.4.4-2.6 8.9v3.5c.5.4.8.9.8 1.6 0 .6-.3 1.2-.8 1.6v2.3c.2.1.3.3.4.4l5.5-19.3h-.1v-.1l-5.9-1.6zM69.2 154.3l-6.2-.1v.1c0 1 .8 1.9 1.9 1.9h1.4v3.1h3v-5h-.1zM73.2 184.8v3l7.9-7.9c.4-.4.4-1.1 0-1.5-.4-.4-1.1-.4-1.5 0l-6.4 6.4z"/></g><g fill="#6C6C6C"><path d="M139.5 36.9l-1.8-8.3 2.4-.5 3.6 6.1.6-7.1 2.4-.5 1.8 8.3-1.7.4-1.4-6.1-.6 6.5-1.8.4-3.4-5.7 1.4 6.2-1.5.3zM150.8 34.5l-1.4-8.3 1.7-.3 1.4 8.3-1.7.3zM154.9 33.9l-1-8.4 2-.2L160 31l-.7-6.1 1.7-.2 1 8.4-2 .2-4-5.7.7 6.1-1.8.2zM164.4 32.9l-.6-8.4 1.7-.1.6 8.4-1.7.1zM168.6 32.6l-.1-8.5h2.5l2.3 6.7 2-6.8h2.5l.1 8.5h-1.7l-.1-6.3-1.9 6.3h-1.8l-2.1-6.3.1 6.3-1.8.1zM185.3 30.9l-3.6-.2-.9 1.9-1.7-.1 3.8-8.2 1.9.1 2.8 8.6-1.8-.1-.5-2zm-.4-1.4l-1-3.5-1.4 3.4 2.4.1zM189.2 33.2l1-8.4 1.7.2-.8 7 3.7.4-.2 1.4-5.4-.6zM196.2 34.1l1.3-8.4 1.7.3-1.3 8.4-1.7-.3zM200 34.5l.3-1.4c.7.4 1.4.6 2.1.8.6.1 1.1.1 1.4-.1.2-.1.4-.4.4-.6v-.6c-.1-.2-.4-.5-.9-.9l-.6-.4c-.6-.4-1-.7-1.2-.9-.4-.5-.6-1.1-.5-1.8.1-.7.6-1.3 1.3-1.6.6-.3 1.4-.4 2.4-.2.7.1 1.4.4 2 .6l-.3 1.3c-.6-.3-1.2-.5-1.9-.7-.7-.1-1.2-.1-1.5.1-.2.1-.3.3-.3.6 0 .2 0 .5.2.7.1.2.4.4.8.6l.6.4c.5.3.9.6 1.1.9.5.5.7 1.2.5 2-.2.8-.6 1.4-1.3 1.7-.6.3-1.4.4-2.4.2-.9-.1-1.6-.4-2.2-.7zM209 36.6l1.7-6.8-2.4-.6.3-1.4 6.6 1.6-.3 1.4-2.4-.6-1.7 6.8-1.8-.4z"/></g><g fill="#6C6C6C"><path d="M311.3 133.2l8.1-2.3.5 1.7-6.8 2 1 3.5-1.4.4-1.4-5.3zM313.2 140l8.2-2 .4 1.7-8.2 2-.4-1.7zM323.7 148.7l-1.4.3c0-.8-.1-1.5-.2-2.1-.2-1-.6-1.6-1.2-2-.6-.4-1.3-.5-2.2-.3-.9.2-1.6.6-2 1.2-.4.6-.5 1.4-.3 2.3.1.3.1.6.2.9l1.9-.4-.2-1.3 1.3-.3.6 2.9-4.5.9c-.2-.8-.4-1.7-.6-2.5-.3-1.4-.2-2.6.4-3.5.6-1 1.6-1.7 3-1.9 1.3-.2 2.4-.1 3.3.6 1 .7 1.6 1.8 1.9 3.4-.1.4 0 1.1 0 1.8zM315.8 152.9l8.4-1.1.2 1.7-3.2.4.5 3.9 3.2-.4.2 1.7-8.4 1.1-.2-1.7 3.6-.5-.5-3.9-3.6.5-.2-1.7zM317.1 164.3l7-.5-.2-2.5 1.4-.1.5 6.8-1.4.1-.2-2.5-7 .5-.1-1.8zM317.5 173.6l8.5.1v2.9c0 2.1-1 3.1-2.8 3.1-1.8 0-2.7-1.1-2.7-3.2v-1.2h-3v-1.7zm4.3 1.7v1.1c0 .6.2 1 .6 1.3.2.2.5.2.9.2s.7-.1 1-.3c.3-.3.5-.6.5-1.2v-1.1h-3zM319.1 185.6l.2-3.6-1.9-.9.1-1.7 8.2 3.9-.1 1.9-8.6 2.8.1-1.8 2-.6zm1.4-.4l3.5-1-3.4-1.4-.1 2.4zM324.4 196.2l-1.4-.2c.2-.6.4-1.2.5-1.8.1-1-.1-1.7-.5-2.3-.5-.5-1.1-.8-2-1-.9-.1-1.7.1-2.2.5-.5.4-.9 1.1-1 2-.1.7-.1 1.4 0 2l-1.5-.2c-.1-.8 0-1.5 0-2.3.1-1.2.6-2.2 1.3-2.8.9-.9 2.1-1.2 3.6-1 1.4.2 2.4.7 3.1 1.6.7.9.9 2 .7 3.4-.2.9-.3 1.5-.6 2.1zM315.8 197.2l8.3 1.5-.3 1.7-3.6-.6 3 3.9-.4 2-3.2-4.2-5.2 3.1.4-2.3 4.5-2.7-3.9-.7.4-1.7zM314.2 205.9l8.2 2-1.2 5.1-1.4-.3.8-3.3-2-.5-.8 3.2-1.4-.3.8-3.2-2.1-.5-.8 3.5-1.4-.3 1.3-5.4zM312.4 213l8.1 2.4-.8 2.5c-.6 1.9-1.7 2.7-3.3 2.2-.7-.2-1.1-.5-1.4-.9-.2-.3-.3-.6-.4-1l-4.1 1.1.6-1.9 3.7-.9c0-.1 0-.1.1-.2v-.2l.1-.4-3.1-.9.5-1.8zm3.9 2.9l-.2.8c-.2.5-.1 1 .2 1.3.2.2.4.3.7.4.4.1.7.1 1-.1.3-.2.5-.5.6-.9l.2-.8-2.5-.7z"/></g><g fill="#fff"><path d="M197.7 315.7l1.2 8.4-1.7.2-1-7-3.6.5-.2-1.4 5.3-.7zM191.8 325.1l-1.7.2-.5-5.3c-.1-1.2-.8-1.8-2-1.7-1.2.1-1.8.8-1.7 2l.5 5.3-1.7.2-.5-5.3c-.2-2.2.9-3.4 3.3-3.6 1-.1 1.8 0 2.4.4.9.5 1.4 1.3 1.5 2.6l.4 5.2zM175.3 325.9v-1.5c.8.1 1.5.1 2.1.1 1 0 1.7-.3 2.2-.8.5-.5.7-1.2.7-2.1 0-.9-.3-1.7-.8-2.2-.5-.5-1.2-.7-2.2-.7-.3 0-.6 0-.9.1v1.9h1.3v1.3l-2.9.1-.1-4.5c.8-.1 1.7-.2 2.6-.2 1.4 0 2.6.3 3.4 1 .9.7 1.4 1.8 1.4 3.3 0 1.3-.3 2.3-1.1 3.1-.8.9-2 1.3-3.6 1.3-.7 0-1.4 0-2.1-.2zM165.7 325.7l.1-1.5c.8.2 1.5.2 2.1.3 1 0 1.7-.2 2.3-.7.5-.5.8-1.2.8-2.1 0-.9-.2-1.7-.7-2.2-.5-.5-1.2-.8-2.2-.8h-.9l-.1 1.9 1.3.1-.1 1.3-2.9-.1.2-4.5h2.6c1.4.1 2.5.4 3.3 1.2.9.8 1.2 1.9 1.2 3.4-.1 1.3-.5 2.3-1.3 3.1-.9.8-2.1 1.2-3.7 1.1-.6-.3-1.3-.4-2-.5zM163.5 317.1l-.8 8.4-5.2-.5.1-1.4 3.4.3.2-2-3.3-.3.1-1.4 3.3.3.2-2.2-3.5-.3.1-1.4 5.4.5zM156.2 316.3l-1.3 8.4-2.6-.4c-2-.3-2.9-1.3-2.6-3 .1-.7.3-1.2.7-1.5.3-.2.6-.4 1-.5l-1.7-3.9 2 .3 1.4 3.5h.4l.5.1.5-3.2 1.7.2zm-2.3 4.2l-.8-.1c-.6-.1-1 0-1.3.3-.2.2-.3.4-.3.8-.1.4 0 .7.2 1 .2.3.5.4 1 .5l.8.1.4-2.6z"/></g><g fill="#6C6C6C"><path d="M36.9 210.2l-8.2 1.9-.6-2.7c-.2-.9-.2-1.7.1-2.2.3-.5.7-.9 1.4-1 .8-.2 1.4 0 1.9.6.1-1 .7-1.6 1.7-1.9 1.6-.4 2.6.4 3.1 2.4l.6 2.9zm-5.3-.5l-.2-1c-.1-.4-.2-.6-.5-.8-.3-.2-.5-.2-.9-.1-.3.1-.6.2-.7.5-.2.3-.2.6-.1.9l.2 1 2.2-.5zm3.6-.8l-.3-1.2c-.2-.9-.7-1.3-1.5-1.1-.3.1-.6.2-.7.5-.2.3-.2.7-.1 1.2l.3 1.2 2.3-.6zM35.1 202.3l-8.3 1.6-.3-1.7 8.3-1.6.3 1.7zM25.1 193l1.4-.2c0 .8 0 1.5.1 2.1.1 1 .5 1.7 1.1 2.1.6.4 1.3.6 2.2.4.9-.1 1.6-.5 2-1 .4-.6.6-1.3.4-2.3 0-.3-.1-.6-.2-.9l-1.9.3.2 1.3-1.3.2-.4-2.9 4.5-.6c.2.8.4 1.7.5 2.6.2 1.4 0 2.6-.6 3.5-.6 1-1.7 1.6-3.1 1.8-1.3.2-2.4-.1-3.2-.7-.9-.7-1.5-1.9-1.7-3.5V193zM32.9 185.4l-8.4.5-.1-1.8 7-.4-.2-3.7 1.4-.1.3 5.5zM23.9 175.2c0-1.2.4-2.3 1.1-3 .8-.8 1.9-1.2 3.2-1.2 1.4 0 2.4.3 3.3 1.1.8.7 1.2 1.8 1.2 3 0 1.1-.3 2.1-.9 2.8-.8.9-1.9 1.4-3.4 1.4-1.4 0-2.4-.3-3.2-1.1-.9-.7-1.3-1.7-1.3-3zm1.3.1c0 .7.3 1.3.9 1.7.5.4 1.3.6 2.2.6.9 0 1.7-.2 2.2-.6.6-.4.8-1 .8-1.8 0-.7-.3-1.2-.7-1.6-.6-.5-1.3-.7-2.4-.7-1.1 0-1.9.3-2.4.8-.4.3-.6.9-.6 1.6zM31 164.1l-.2 3.6 1.9.9-.1 1.7-8.2-3.9.1-1.9 8.7-2.8-.1 1.8-2.1.6zm-1.5.4l-3.5 1 3.4 1.5.1-2.5zM33.2 160.2l-8.4-1.1.4-3.2c.2-1.3.6-2.2 1.5-2.9.8-.7 1.9-.9 3.3-.8 1.3.2 2.3.7 3 1.6.6.8.8 1.9.7 3.2l-.5 3.2zm-1.2-1.9l.2-1.4c.1-.8-.1-1.4-.5-1.9s-1.1-.8-2-.9c-.9-.1-1.6 0-2.1.4-.6.4-.9 1-1 1.7l-.2 1.4 5.6.7zM34.5 150.8l-8.3-1.6 1-5.1 1.4.3-.6 3.4 2 .4.6-3.2 1.4.3-.6 3.2 2.2.4.7-3.5 1.4.3-1.2 5.1zM35.9 143.7l-8.2-2 .6-2.6c.5-2 1.6-2.7 3.2-2.3.7.2 1.1.4 1.4.9.2.3.3.6.4 1l4-1.3-.5 1.9-3.6 1.1v.4l-.1.4 3.2.8-.4 1.7zm-4-2.7l.2-.8c.1-.5.1-1-.2-1.3-.2-.2-.4-.3-.8-.4-.4-.1-.7 0-1 .1-.3.2-.5.5-.6.9l-.2.8 2.6.7z"/></g><defs><circle id="a" cx="175.7" cy="174.7" r="170"/></defs><clipPath id="b"><use xlink:href="#a" overflow="visible"/></clipPath><g clip-path="url(#b)" fill="#1E1E1E"><path d="M295.9 294.9L175.7 174.7l-.7.7 120.2 120.2c.2-.3.5-.5.7-.7zM175 174L55.5 54.4l-.7.7 119.5 119.5.7-.6zM174.3 174.7L54.8 294.2l.7.7L175 175.4l-.7-.7zM175.7 174.7L295.9 54.5l-.7-.7L175 174l.7.7zM175.024 175.352l-.707-.707.707-.707.707.707z"/></g></g></svg>