<?xml version="1.0"?><svg xmlns="http://www.w3.org/2000/svg" xmlns:xlink="http://www.w3.org/1999/xlink" viewBox="0 0 150 150" enable-background="new 0 0 150 150" width="150px" height="150px"><radialGradient id="a" cx="75" cy="84.001" r="42.278" gradientUnits="userSpaceOnUse"><stop offset="0"/><stop offset=".698" stop-opacity=".8"/><stop offset=".979" stop-opacity="0"/></radialGradient><circle fill="url(#a)" cx="75" cy="84" r="42.3"/><circle cx="75" cy="75" r="42.5"/><linearGradient id="b" gradientUnits="userSpaceOnUse" x1="75" y1="37.5" x2="75" y2="112.5"><stop offset=".004" stop-color="#4F4F4F"/><stop offset="1" stop-color="#333"/></linearGradient><circle fill="url(#b)" cx="75" cy="75" r="37.5"/><radialGradient id="c" cx="75" cy="75" r="22.5" gradientUnits="userSpaceOnUse"><stop offset="0" stop-color="#333"/><stop offset=".809" stop-color="#333" stop-opacity=".8"/><stop offset=".973" stop-color="#333" stop-opacity="0"/></radialGradient><circle fill="url(#c)" cx="75" cy="75" r="22.5"/><circle fill="#1E1E1E" cx="75" cy="75" r="22.5"/><radialGradient id="d" cx="75" cy="75" r="37.5" gradientUnits="userSpaceOnUse"><stop offset="0" stop-color="#4F4F4F" stop-opacity="0"/><stop offset=".887" stop-color="#555" stop-opacity="0"/><stop offset=".902" stop-color="#5B5B5B" stop-opacity=".025"/><stop offset=".919" stop-color="#6A6A6A" stop-opacity=".057"/><stop offset=".939" stop-color="#848484" stop-opacity=".092"/><stop offset=".961" stop-color="#A9A9A9" stop-opacity=".13"/><stop offset=".983" stop-color="#D7D7D7" stop-opacity=".17"/><stop offset="1" stop-color="#fff" stop-opacity=".2"/></radialGradient><circle fill="url(#d)" cx="75" cy="75" r="37.5"/><radialGradient id="e" cx="75" cy="75" r="37.5" gradientUnits="userSpaceOnUse"><stop offset=".395" stop-color="#fff"/><stop offset=".579" stop-color="#fff" stop-opacity=".2"/><stop offset=".66" stop-color="#fff" stop-opacity="0"/></radialGradient><circle opacity=".7" fill="url(#e)" cx="75" cy="75" r="37.5"/><circle fill="#1C1C1C" cx="75" cy="75" r="22.5"/><defs><circle id="f" cx="75" cy="75" r="22.5"/></defs><clipPath id="g"><use xlink:href="#f" overflow="visible"/></clipPath><radialGradient id="h" cx="75" cy="78.083" r="25.583" gradientUnits="userSpaceOnUse"><stop offset=".766" stop-opacity="0"/><stop offset=".954" stop-opacity=".931"/><stop offset="1"/></radialGradient><circle clip-path="url(#g)" fill="url(#h)" cx="75" cy="78.1" r="25.6"/><g opacity=".7"><defs><circle id="i" opacity=".7" cx="75" cy="75" r="37.5"/></defs><clipPath id="j"><use xlink:href="#i" overflow="visible"/></clipPath><radialGradient id="k" cx="75.208" cy="72.536" r="40.211" gradientUnits="userSpaceOnUse"><stop offset="0" stop-opacity="0"/><stop offset=".89" stop-opacity="0"/><stop offset="1"/></radialGradient><circle clip-path="url(#j)" fill="url(#k)" cx="75.2" cy="72.5" r="40.2"/></g><path fill="#535252" d="M81.9 71.8v-3.2h-1.1l-1.1-1.1v-1.1c0-.6-.5-1.1-1.1-1.1H69c-.6 0-1.1.5-1.1 1.1v17.1c0 .5.5 1.1 1.1 1.1h9.6c.5 0 1.1-.5 1.1-1.1v-5.3h.5c.5 0 .5.5.5.5v2.1c0 1.1.5 1.6 1.6 1.6s1.6-.5 1.6-1.6v-5.9c.1-1-2-2-2-3.1zm-4.3 0h-7.5v-4.3h7.5v4.3zm5.3 9.1c0 .5-.5.5-.5.5s-.5 0-.5-.5v-2.7c0-.5-.5-1.1-1.1-1.1h-1.1v-6.4h1.1v1.6c0 1.1 2.1 2.1 2.1 3.2v5.4z"/></svg>