<svg xmlns="http://www.w3.org/2000/svg" xmlns:xlink="http://www.w3.org/1999/xlink" viewBox="0 0 160 100" enable-background="new 0 0 160 100" width="160px" height="100px"><g><linearGradient id="a" gradientUnits="userSpaceOnUse" x1="80.472" y1="39.794" x2="80.472" y2="99.111"><stop offset=".481" stop-color="#010202"/><stop offset=".925" stop-color="#010202" stop-opacity=".145"/><stop offset="1" stop-color="#010202" stop-opacity="0"/></linearGradient><path fill="url(#a)" d="M153.9 71.4H7.1v17.8c0 6 4.8 10.8 10.8 10.8h125.2c6 0 10.8-4.8 10.8-10.8V71.4z"/></g><g><linearGradient id="b" gradientUnits="userSpaceOnUse" x1="108.679" y1="95.383" x2="52.776" y2="-1.444"><stop offset="0" stop-color="#474747"/><stop offset="1" stop-color="#504F4F"/></linearGradient><path fill="url(#b)" d="M150.5 0h-140C8.6 0 7.1 1.5 7.1 3.4v86.2c0 1.9 1.5 3.4 3.4 3.4h140c1.9 0 3.4-1.5 3.4-3.4V3.4c0-1.9-1.5-3.4-3.4-3.4zM21.2 20c-3 0-5.4-2.4-5.4-5.4 0-3 2.4-5.4 5.4-5.4s5.4 2.4 5.4 5.4c0 3-2.5 5.4-5.4 5.4zm59.3 35.5C69.7 55.5 61 46.8 61 36s8.7-19.5 19.5-19.5S100 25.2 100 36s-8.8 19.5-19.5 19.5z"/></g><g><radialGradient id="c" cx="21.117" cy="14.658" r="5.375" gradientTransform="matrix(.916 0 0 .916 1.769 1.218)" gradientUnits="userSpaceOnUse"><stop offset=".006" stop-opacity="0"/><stop offset=".225" stop-color="#010101" stop-opacity="0"/><stop offset=".304" stop-color="#040404" stop-opacity="0"/><stop offset=".36" stop-color="#0A0A09" stop-opacity="0"/><stop offset=".406" stop-color="#101010" stop-opacity="0"/><stop offset=".445" stop-color="#151514" stop-opacity="0"/><stop offset=".478" stop-color="#191818" stop-opacity="0"/><stop offset=".5" stop-color="#1A1919" stop-opacity="0"/><stop offset=".535" stop-color="#171516" stop-opacity=".07"/><stop offset=".687" stop-color="#0B0A0B" stop-opacity=".374"/><stop offset=".82" stop-color="#040405" stop-opacity=".641"/><stop offset=".929" stop-color="#020203" stop-opacity=".859"/><stop offset="1" stop-color="#010202"/></radialGradient><circle opacity=".5" fill="url(#c)" cx="21.2" cy="14.6" r="4.9"/></g><g><radialGradient id="d" cx="22.254" cy="11.83" r="2.135" gradientTransform="matrix(1.181 0 0 1.076 -5.093 -.885)" gradientUnits="userSpaceOnUse"><stop offset="0" stop-color="#fff"/><stop offset="1" stop-color="#fff" stop-opacity="0"/></radialGradient><ellipse opacity=".5" fill="url(#d)" cx="21.2" cy="12.4" rx="3.2" ry="1.5"/></g><g><linearGradient id="e" gradientUnits="userSpaceOnUse" x1="21.18" y1="20.47" x2="21.18" y2="8.72"><stop offset="0" stop-color="#4D4D4D"/><stop offset="1" stop-color="#3C3C3B"/></linearGradient><circle opacity=".8" fill="none" stroke="url(#e)" stroke-miterlimit="10" cx="21.2" cy="14.6" r="5.4"/></g><g><defs><path id="f" d="M150.5 0h-140C8.6 0 7.1 1.5 7.1 3.4v86.2c0 1.9 1.5 3.4 3.4 3.4h140c1.9 0 3.4-1.5 3.4-3.4V3.4c0-1.9-1.5-3.4-3.4-3.4zm-70 55.5C69.7 55.5 61 46.8 61 36s8.7-19.5 19.5-19.5S100 25.2 100 36s-8.8 19.5-19.5 19.5z"/></defs><clipPath id="g"><use xlink:href="#f" overflow="visible"/></clipPath><radialGradient id="h" cx="80.563" cy="36.076" r="21" gradientUnits="userSpaceOnUse"><stop offset=".568" stop-color="#fff"/><stop offset=".729" stop-color="#fff"/><stop offset="1" stop-color="#fff" stop-opacity="0"/></radialGradient><circle clip-path="url(#g)" fill="url(#h)" cx="80.6" cy="36.1" r="21"/></g><g fill="#fff"><path d="M49.9 76.2v-8.5h3.3c1.3 0 2.3.4 3.1 1.1.8.7 1.2 1.8 1.2 3.1 0 1.4-.4 2.4-1.2 3.2-.7.7-1.8 1.1-3.1 1.1h-3.3zm1.8-1.4h1.4c.8 0 1.4-.3 1.9-.8.4-.5.7-1.2.7-2.1s-.2-1.6-.7-2.1c-.4-.5-1.1-.8-1.9-.8h-1.4v5.8zM59.5 76.2v-8.5h2.7c2 0 3 .9 3 2.6 0 .7-.2 1.2-.5 1.6-.2.3-.5.5-.9.7l2.2 3.6h-2l-1.9-3.3h-.9v3.3h-1.7zm1.7-4.5h.8c.6 0 1-.2 1.2-.5.1-.2.2-.5.2-.8 0-.4-.1-.7-.4-1-.3-.2-.6-.4-1-.4h-.8v2.7zM71.4 67.5c1.3 0 2.3.4 3 1.2.8.8 1.2 1.9 1.2 3.2 0 1.4-.4 2.4-1.2 3.2-.8.8-1.8 1.2-3.1 1.2-1.1 0-2.1-.3-2.8-1-.9-.8-1.4-2-1.4-3.5 0-1.4.4-2.4 1.2-3.2.8-.7 1.8-1.1 3.1-1.1zm0 1.4c-.7 0-1.3.3-1.7.9-.5.5-.7 1.2-.7 2.1 0 .9.2 1.7.6 2.2.4.6 1 .9 1.8.9.7 0 1.2-.2 1.6-.7.5-.5.7-1.3.7-2.4 0-1.1-.3-1.9-.8-2.4-.3-.4-.9-.6-1.5-.6zM77.7 76.2v-8.5h2.9c2.1 0 3.1.9 3.1 2.7s-1 2.7-3.1 2.7h-1.2v3h-1.7zm1.7-4.3h1.1c.6 0 1-.2 1.3-.6.1-.2.2-.5.2-.9s-.1-.7-.3-1c-.3-.3-.7-.4-1.2-.4h-1.1v2.9zM90.4 76.2v-7h-2.5v-1.4h6.8v1.4h-2.5v7h-1.8zM99.7 67.5c1.3 0 2.3.4 3 1.2.8.8 1.2 1.9 1.2 3.2 0 1.4-.4 2.4-1.2 3.2-.8.8-1.8 1.2-3.1 1.2-1.1 0-2.1-.3-2.8-1-.9-.8-1.4-2-1.4-3.5 0-1.4.4-2.4 1.2-3.2.9-.7 1.9-1.1 3.1-1.1zm0 1.4c-.7 0-1.3.3-1.7.9-.4.5-.6 1.3-.6 2.2 0 .9.2 1.7.6 2.2.4.6 1 .9 1.8.9.7 0 1.2-.2 1.6-.7.5-.5.7-1.3.7-2.4 0-1.1-.3-1.9-.8-2.4-.4-.5-.9-.7-1.6-.7zM106.1 76.2v-8.5h2.9c2.1 0 3.1.9 3.1 2.7s-1 2.7-3.1 2.7h-1.2v3h-1.7zm1.6-4.3h1.1c.6 0 1-.2 1.3-.6.1-.2.2-.5.2-.9s-.1-.7-.3-1c-.3-.3-.7-.5-1.2-.5h-1.1v3z"/></g><g opacity=".3"><defs><circle id="i" opacity=".3" cx="80.5" cy="36" r="19.5"/></defs><clipPath id="j"><use xlink:href="#i" overflow="visible"/></clipPath><radialGradient id="k" cx="80.472" cy="41.61" r="22.784" gradientTransform="matrix(.973 0 0 .973 2.161 -1.836)" gradientUnits="userSpaceOnUse"><stop offset=".766" stop-color="#010202" stop-opacity="0"/><stop offset=".954" stop-color="#010202" stop-opacity=".931"/><stop offset="1" stop-color="#010202"/></radialGradient><circle clip-path="url(#j)" fill="url(#k)" cx="80.5" cy="38.7" r="22.2"/></g><g fill="#010202"><circle cx="75" cy="39" r="1.3"/><circle cx="87.6" cy="39" r="1.3"/><path d="M91.5 37.2c0-.5-.4-1.4-1.5-1.9s-4.5-1-4.5-1-.1-.1-.3-.2l-.1-.1h-.2s-.1 0-.1-.1h-.1l-.1-.1s-.1-.1-.2-.1l-.1-.1c-.1 0-.1-.1-.2-.1s-.1-.1-.2-.1l-.1-.1c-.1 0-.1-.1-.2-.1l-.1-.1c-.1 0-.1-.1-.2-.1-.3-.2-1-.7-1-.7l-.3-.6c-.2-.2-.6-.1-.7.1-.2.2-.2.6 0 .7l2.9 2.2h-4.5v-1.2c0-.2-.2-.4-.4-.4s-.4.2-.4.4v1.2h-2.7V34l-3.5-.4c-.4 0-.8.2-.8.6 0 .2 0 .5.2.6V38c0 .2.1.4.3.5.1 0 .1 0 .2.1.2 0 .3-.1.4-.3V38c0-.1 0-.1.1-.2.1-.2.2-.3.3-.5 0 0 0-.1.1-.1 0-.1.1-.1.1-.1l.1-.1s.1-.1.2-.1l.1-.1c.1 0 .1-.1.2-.1 0 0 .1 0 .2-.1.1 0 .1-.1.2-.1 1.4-.4 2.8.5 3 1.9v.9c0 .2.2.4.4.4h7.2c.2 0 .4-.2.4-.4V38.2c0-.1 0-.1.1-.2 0-.1.1-.1.1-.2s.1-.1.1-.2.1-.1.1-.2.1-.1.1-.2l.2-.2c.1-.1.1-.1.2-.1s.1-.1.2-.1.1-.1.2-.1.1-.1.2-.1.1 0 .2-.1H88.3c.1 0 .2.1.3.1.5.2.9.7 1.2 1.2v.1c0 .1.1.2.1.3v.8c0 .3.2.6.5.5l.5-.1c.4-.1.6-.4.6-.8V36.9v.3z"/></g><g><linearGradient id="l" gradientUnits="userSpaceOnUse" x1="80.472" y1="93.053" x2="80.472"><stop offset="0" stop-color="#3C3C3B"/><stop offset=".438" stop-color="#3E3D3D"/><stop offset=".599" stop-color="#424241"/><stop offset=".714" stop-color="#494948"/><stop offset=".807" stop-color="#515150"/><stop offset=".887" stop-color="#585958"/><stop offset=".957" stop-color="#5E5E5E"/><stop offset=".995" stop-color="#5F605F"/></linearGradient><path fill="url(#l)" d="M150.5 1c1.3 0 2.4 1.1 2.4 2.4v86.2c0 1.3-1.1 2.4-2.4 2.4h-140c-1.3 0-2.4-1.1-2.4-2.4V3.4c0-1.3 1-2.4 2.4-2.4h140m0-1h-140C8.6 0 7.1 1.5 7.1 3.4v86.2c0 1.9 1.5 3.4 3.4 3.4h140c1.9 0 3.4-1.5 3.4-3.4V3.4c0-1.9-1.5-3.4-3.4-3.4z"/></g></svg>