<svg xmlns="http://www.w3.org/2000/svg" xmlns:xlink="http://www.w3.org/1999/xlink" viewBox="0 0 160 100" enable-background="new 0 0 160 100"><circle fill="#1D1D1D" cx="21.1" cy="14.6" r="6.4"/><g><path fill="#111" d="M150.5 0h-140C8.6 0 7.1 1.5 7.1 3.4v86.2c0 1.9 1.5 3.4 3.4 3.4h140c1.9 0 3.4-1.5 3.4-3.4V3.4c0-1.9-1.5-3.4-3.4-3.4zM21.2 20c-3 0-5.4-2.4-5.4-5.4 0-3 2.4-5.4 5.4-5.4s5.4 2.4 5.4 5.4c0 3-2.5 5.4-5.4 5.4z"/><radialGradient id="a" cx="21.18" cy="14.595" r="5.375" gradientUnits="userSpaceOnUse"><stop offset=".006" stop-opacity="0"/><stop offset=".245" stop-color="#010101" stop-opacity="0"/><stop offset=".332" stop-color="#040404" stop-opacity="0"/><stop offset=".393" stop-color="#0A0A09" stop-opacity="0"/><stop offset=".443" stop-color="#101010" stop-opacity="0"/><stop offset=".485" stop-color="#151514" stop-opacity="0"/><stop offset=".522" stop-color="#191818" stop-opacity="0"/><stop offset=".546" stop-color="#1A1919" stop-opacity="0"/><stop offset=".55" stop-color="#191718" stop-opacity=".167"/><stop offset=".554" stop-color="#161415" stop-opacity=".348"/><stop offset=".559" stop-color="#100F10" stop-opacity=".536"/><stop offset=".563" stop-color="#09080A" stop-opacity=".728"/><stop offset=".568" stop-color="#030304" stop-opacity=".922"/><stop offset=".57" stop-color="#010202"/><stop offset=".99" stop-color="#010202"/></radialGradient><circle fill="url(#a)" cx="21.2" cy="14.6" r="5.4"/><linearGradient id="b" gradientUnits="userSpaceOnUse" x1="21.18" y1="20.471" x2="21.18" y2="8.72"><stop offset=".003" stop-color="#3A3938"/><stop offset="1"/></linearGradient><circle fill="none" stroke="url(#b)" stroke-miterlimit="10" cx="21.2" cy="14.6" r="5.4"/></g><g><defs><path id="c" d="M150.1.3h-140C8.2.3 6.7 1.8 6.7 3.7V90c0 1.9 1.5 3.4 3.4 3.4h140c1.9 0 3.4-1.5 3.4-3.4V3.7c.1-1.8-1.5-3.4-3.4-3.4z"/></defs><clipPath id="d"><use xlink:href="#c" overflow="visible"/></clipPath><linearGradient id="e" gradientUnits="userSpaceOnUse" x1="79.722" y1="98.56" x2="79.722" y2="-5.94"><stop offset=".633" stop-color="#010202" stop-opacity="0"/><stop offset=".905" stop-color="#010202" stop-opacity=".881"/><stop offset=".942" stop-color="#010202"/><stop offset=".99" stop-color="#010202"/><stop offset=".998" stop-color="#010202"/></linearGradient><path clip-path="url(#d)" fill="url(#e)" d="M147.7 98.6h-136c-6.6 0-12-5.4-12-12V6.1c0-6.6 5.4-12 12-12h136c6.6 0 12 5.4 12 12v80.5c0 6.6-5.4 12-12 12z"/></g><g><radialGradient id="f" cx="80.472" cy="35.985" r="21" gradientUnits="userSpaceOnUse"><stop offset=".568" stop-color="#fff"/><stop offset=".729" stop-color="#fff"/><stop offset="1" stop-color="#fff" stop-opacity="0"/></radialGradient><circle opacity=".5" fill="url(#f)" cx="80.5" cy="36" r="21"/><g fill="#676767"><path d="M49.9 76.2v-8.5h3.3c1.3 0 2.3.4 3.1 1.1.8.7 1.2 1.8 1.2 3.1 0 1.4-.4 2.4-1.2 3.2-.7.7-1.8 1.1-3.1 1.1h-3.3zm1.8-1.4h1.4c.8 0 1.4-.3 1.9-.8.4-.5.7-1.2.7-2.1s-.2-1.6-.7-2.1c-.4-.5-1.1-.8-1.9-.8h-1.4v5.8zM59.5 76.2v-8.5h2.7c2 0 3 .9 3 2.6 0 .7-.2 1.2-.5 1.6-.2.3-.5.5-.9.7l2.2 3.6h-2l-1.9-3.3h-.9v3.3h-1.7zm1.7-4.5h.8c.6 0 1-.2 1.2-.5.1-.2.2-.5.2-.8 0-.4-.1-.7-.4-1-.3-.2-.6-.4-1-.4h-.8v2.7zM71.4 67.5c1.3 0 2.3.4 3 1.2.8.8 1.2 1.9 1.2 3.2 0 1.4-.4 2.4-1.2 3.2-.8.8-1.8 1.2-3.1 1.2-1.1 0-2.1-.3-2.8-1-.9-.8-1.4-2-1.4-3.5 0-1.4.4-2.4 1.2-3.2.8-.7 1.8-1.1 3.1-1.1zm0 1.4c-.7 0-1.3.3-1.7.9-.5.5-.7 1.2-.7 2.1 0 .9.2 1.7.6 2.2.4.6 1 .9 1.8.9.7 0 1.2-.2 1.6-.7.5-.5.7-1.3.7-2.4 0-1.1-.3-1.9-.8-2.4-.3-.4-.9-.6-1.5-.6zM77.7 76.2v-8.5h2.9c2.1 0 3.1.9 3.1 2.7s-1 2.7-3.1 2.7h-1.2v3h-1.7zm1.7-4.3h1.1c.6 0 1-.2 1.3-.6.1-.2.2-.5.2-.9s-.1-.7-.3-1c-.3-.3-.7-.4-1.2-.4h-1.1v2.9zM90.4 76.2v-7h-2.5v-1.4h6.8v1.4h-2.5v7h-1.8zM99.7 67.5c1.3 0 2.3.4 3 1.2.8.8 1.2 1.9 1.2 3.2 0 1.4-.4 2.4-1.2 3.2-.8.8-1.8 1.2-3.1 1.2-1.1 0-2.1-.3-2.8-1-.9-.8-1.4-2-1.4-3.5 0-1.4.4-2.4 1.2-3.2.9-.7 1.9-1.1 3.1-1.1zm0 1.4c-.7 0-1.3.3-1.7.9-.4.5-.6 1.3-.6 2.2 0 .9.2 1.7.6 2.2.4.6 1 .9 1.8.9.7 0 1.2-.2 1.6-.7.5-.5.7-1.3.7-2.4 0-1.1-.3-1.9-.8-2.4-.4-.5-.9-.7-1.6-.7zM106.1 76.2v-8.5h2.9c2.1 0 3.1.9 3.1 2.7s-1 2.7-3.1 2.7h-1.2v3h-1.7zm1.6-4.3h1.1c.6 0 1-.2 1.3-.6.1-.2.2-.5.2-.9s-.1-.7-.3-1c-.3-.3-.7-.5-1.2-.5h-1.1v3z"/></g></g><g><radialGradient id="g" cx="80.472" cy="38.865" r="33.397" gradientTransform="matrix(.973 0 0 .973 2.161 -1.836)" gradientUnits="userSpaceOnUse"><stop offset=".395" stop-color="#fff"/><stop offset=".579" stop-color="#fff" stop-opacity=".2"/><stop offset=".66" stop-color="#fff" stop-opacity="0"/></radialGradient><circle opacity=".4" fill="url(#g)" cx="80.5" cy="36" r="32.5"/><circle fill="#1D1D1D" cx="80.5" cy="36" r="19.5"/><defs><circle id="h" cx="80.5" cy="36" r="19.5"/></defs><clipPath id="i"><use xlink:href="#h" overflow="visible"/></clipPath><radialGradient id="j" cx="80.472" cy="41.611" r="22.784" gradientTransform="matrix(.973 0 0 .973 2.161 -1.836)" gradientUnits="userSpaceOnUse"><stop offset=".766" stop-color="#010202" stop-opacity="0"/><stop offset=".954" stop-color="#010202" stop-opacity=".931"/><stop offset="1" stop-color="#010202"/></radialGradient><circle clip-path="url(#i)" fill="url(#j)" cx="80.5" cy="38.7" r="22.2"/></g><g><linearGradient id="k" gradientUnits="userSpaceOnUse" x1="80.472" y1="93.054" x2="80.472"><stop offset="0" stop-color="#373636"/><stop offset=".437" stop-color="#363635"/><stop offset=".598" stop-color="#353534"/><stop offset=".713" stop-color="#343333"/><stop offset=".806" stop-color="#313130"/><stop offset=".887" stop-color="#2D2D2C"/><stop offset=".956" stop-color="#292928"/><stop offset=".995" stop-color="#252625"/></linearGradient><path fill="url(#k)" d="M150.5 1c1.3 0 2.4 1.1 2.4 2.4v86.2c0 1.3-1.1 2.4-2.4 2.4h-140c-1.3 0-2.4-1.1-2.4-2.4V3.4c0-1.3 1-2.4 2.4-2.4h140m0-1h-140C8.6 0 7.1 1.5 7.1 3.4v86.2c0 1.9 1.5 3.4 3.4 3.4h140c1.9 0 3.4-1.5 3.4-3.4V3.4c0-1.9-1.5-3.4-3.4-3.4z"/></g><g fill="#6E6E6D"><circle cx="75" cy="39" r="1.3"/><circle cx="87.6" cy="39" r="1.3"/><path d="M91.5 37.2c0-.5-.4-1.4-1.5-1.9s-4.5-1-4.5-1-.1-.1-.3-.2l-.1-.1h-.2s-.1 0-.1-.1h-.1l-.1-.1s-.1-.1-.2-.1l-.1-.1c-.1 0-.1-.1-.2-.1s-.1-.1-.2-.1l-.1-.1c-.1 0-.1-.1-.2-.1l-.1-.1c-.1 0-.1-.1-.2-.1-.3-.2-1-.7-1-.7l-.3-.6c-.2-.2-.6-.1-.7.1-.2.2-.2.6 0 .7l2.9 2.2h-4.5v-1.2c0-.2-.2-.4-.4-.4s-.4.2-.4.4v1.2h-2.7V34l-3.5-.4c-.4 0-.8.2-.8.6 0 .2 0 .5.2.6V38c0 .2.1.4.3.5.1 0 .1 0 .2.1.2 0 .3-.1.4-.3V38c0-.1 0-.1.1-.2.1-.2.2-.3.3-.5 0 0 0-.1.1-.1 0-.1.1-.1.1-.1l.1-.1s.1-.1.2-.1l.1-.1c.1 0 .1-.1.2-.1 0 0 .1 0 .2-.1.1 0 .1-.1.2-.1 1.4-.4 2.8.5 3 1.9v.9c0 .2.2.4.4.4h7.2c.2 0 .4-.2.4-.4V38.2c0-.1 0-.1.1-.2 0-.1.1-.1.1-.2s.1-.1.1-.2.1-.1.1-.2.1-.1.1-.2l.2-.2c.1-.1.1-.1.2-.1s.1-.1.2-.1.1-.1.2-.1.1-.1.2-.1.1 0 .2-.1H88.3c.1 0 .2.1.3.1.5.2.9.7 1.2 1.2v.1c0 .1.1.2.1.3v.8c0 .3.2.6.5.5l.5-.1c.4-.1.6-.4.6-.8V36.9v.3z"/></g></svg>