<?xml version="1.0"?><svg xmlns="http://www.w3.org/2000/svg" xmlns:xlink="http://www.w3.org/1999/xlink" viewBox="0 0 160 100" enable-background="new 0 0 160 100" width="160px" height="100px"><circle fill="#1D1D1D" cx="21.1" cy="14.6" r="6.4"/><g><path fill="#111" d="M150.5 0h-140C8.6 0 7.1 1.5 7.1 3.4v86.2c0 1.9 1.5 3.4 3.4 3.4h140c1.9 0 3.4-1.5 3.4-3.4V3.4c0-1.9-1.5-3.4-3.4-3.4zM21.2 20c-3 0-5.4-2.4-5.4-5.4 0-3 2.4-5.4 5.4-5.4s5.4 2.4 5.4 5.4c0 3-2.5 5.4-5.4 5.4z"/><radialGradient id="a" cx="21.18" cy="14.595" r="5.375" gradientUnits="userSpaceOnUse"><stop offset=".006" stop-opacity="0"/><stop offset=".245" stop-color="#010101" stop-opacity="0"/><stop offset=".332" stop-color="#040404" stop-opacity="0"/><stop offset=".393" stop-color="#0A0A09" stop-opacity="0"/><stop offset=".443" stop-color="#101010" stop-opacity="0"/><stop offset=".485" stop-color="#151514" stop-opacity="0"/><stop offset=".522" stop-color="#191818" stop-opacity="0"/><stop offset=".546" stop-color="#1A1919" stop-opacity="0"/><stop offset=".55" stop-color="#191718" stop-opacity=".167"/><stop offset=".554" stop-color="#161415" stop-opacity=".348"/><stop offset=".559" stop-color="#100F10" stop-opacity=".536"/><stop offset=".563" stop-color="#09080A" stop-opacity=".728"/><stop offset=".568" stop-color="#030304" stop-opacity=".922"/><stop offset=".57" stop-color="#010202"/><stop offset=".99" stop-color="#010202"/></radialGradient><circle fill="url(#a)" cx="21.2" cy="14.6" r="5.4"/><linearGradient id="b" gradientUnits="userSpaceOnUse" x1="21.18" y1="20.471" x2="21.18" y2="8.72"><stop offset=".003" stop-color="#3A3938"/><stop offset="1"/></linearGradient><circle fill="none" stroke="url(#b)" stroke-miterlimit="10" cx="21.2" cy="14.6" r="5.4"/></g><g><defs><path id="c" d="M150.1.3h-140C8.2.3 6.7 1.8 6.7 3.7V90c0 1.9 1.5 3.4 3.4 3.4h140c1.9 0 3.4-1.5 3.4-3.4V3.7c.1-1.8-1.5-3.4-3.4-3.4z"/></defs><clipPath id="d"><use xlink:href="#c" overflow="visible"/></clipPath><linearGradient id="e" gradientUnits="userSpaceOnUse" x1="79.722" y1="98.56" x2="79.722" y2="-5.94"><stop offset=".633" stop-color="#010202" stop-opacity="0"/><stop offset=".905" stop-color="#010202" stop-opacity=".881"/><stop offset=".942" stop-color="#010202"/><stop offset=".99" stop-color="#010202"/><stop offset=".998" stop-color="#010202"/></linearGradient><path clip-path="url(#d)" fill="url(#e)" d="M147.7 98.6h-136c-6.6 0-12-5.4-12-12V6.1c0-6.6 5.4-12 12-12h136c6.6 0 12 5.4 12 12v80.5c0 6.6-5.4 12-12 12z"/></g><g><radialGradient id="f" cx="80.472" cy="35.985" r="21" gradientUnits="userSpaceOnUse"><stop offset=".568" stop-color="#fff"/><stop offset=".729" stop-color="#fff"/><stop offset="1" stop-color="#fff" stop-opacity="0"/></radialGradient><circle opacity=".5" fill="url(#f)" cx="80.5" cy="36" r="21"/><g fill="#676767"><path d="M70.2 76.2v-1.8h-3.9v-1.5l4-5.2h1.6V73h.9v1.3h-.9v1.8h-1.7zm-2.5-3.1h2.5v-3.3l-2.5 3.3zM76.1 76.2l-2.3-8.5h1.8l1.5 6.5 1.7-6.5h1.8l1.7 6.5 1.5-6.5h1.8l-2.3 8.5h-1.9L79.6 70l-1.7 6.2h-1.8zM87 76.2v-8.5h3.3c1.3 0 2.3.4 3.1 1.1.8.7 1.2 1.8 1.2 3.1 0 1.4-.4 2.4-1.2 3.2-.7.7-1.8 1.1-3.1 1.1H87zm1.8-1.4h1.4c.8 0 1.4-.3 1.9-.8.4-.5.7-1.2.7-2.1s-.2-1.6-.7-2.1c-.4-.5-1.1-.8-1.9-.8h-1.4v5.8z"/></g></g><g><radialGradient id="g" cx="80.472" cy="38.865" r="33.397" gradientTransform="matrix(.973 0 0 .973 2.161 -1.836)" gradientUnits="userSpaceOnUse"><stop offset=".395" stop-color="#fff"/><stop offset=".579" stop-color="#fff" stop-opacity=".2"/><stop offset=".66" stop-color="#fff" stop-opacity="0"/></radialGradient><circle opacity=".4" fill="url(#g)" cx="80.5" cy="36" r="32.5"/><circle fill="#1D1D1D" cx="80.5" cy="36" r="19.5"/><defs><circle id="h" cx="80.5" cy="36" r="19.5"/></defs><clipPath id="i"><use xlink:href="#h" overflow="visible"/></clipPath><radialGradient id="j" cx="80.472" cy="41.611" r="22.784" gradientTransform="matrix(.973 0 0 .973 2.161 -1.836)" gradientUnits="userSpaceOnUse"><stop offset=".766" stop-color="#010202" stop-opacity="0"/><stop offset=".954" stop-color="#010202" stop-opacity=".931"/><stop offset="1" stop-color="#010202"/></radialGradient><circle clip-path="url(#i)" fill="url(#j)" cx="80.5" cy="38.7" r="22.2"/></g><g><linearGradient id="k" gradientUnits="userSpaceOnUse" x1="80.472" y1="93.054" x2="80.472"><stop offset="0" stop-color="#373636"/><stop offset=".437" stop-color="#363635"/><stop offset=".598" stop-color="#353534"/><stop offset=".713" stop-color="#343333"/><stop offset=".806" stop-color="#313130"/><stop offset=".887" stop-color="#2D2D2C"/><stop offset=".956" stop-color="#292928"/><stop offset=".995" stop-color="#252625"/></linearGradient><path fill="url(#k)" d="M150.5 1c1.3 0 2.4 1.1 2.4 2.4v86.2c0 1.3-1.1 2.4-2.4 2.4h-140c-1.3 0-2.4-1.1-2.4-2.4V3.4c0-1.3 1-2.4 2.4-2.4h140m0-1h-140C8.6 0 7.1 1.5 7.1 3.4v86.2c0 1.9 1.5 3.4 3.4 3.4h140c1.9 0 3.4-1.5 3.4-3.4V3.4c0-1.9-1.5-3.4-3.4-3.4z"/></g><g><g fill="#6E6E6D"><circle cx="73.3" cy="41.3" r="1.3"/><circle cx="88.1" cy="37" r="1.3"/><path d="M91.6 35.6l-.4-1.6s.2.8.1.3-.7-1.2-1.9-1.3c-1.2-.2-4.5.3-4.5.3s-.1 0-.3-.1h-.5s-.1 0-.1-.1c-.1 0-.1 0-.2-.1-.1 0-.1 0-.2-.1-.1 0-.1 0-.2-.1-.1 0-.1 0-.2-.1-.1 0-.1 0-.2-.1-.1 0-.1 0-.2-.1-.1 0-.1 0-.2-.1h-.1c-.1 0-.1 0-.2-.1-.3-.1-.8-.3-1.1-.4-.8-.3-1.6-.1-1.6-.1l-8.2 2.5v.1l-.4.6c-.3.6-.7 1.3-.8 1.6l-.8 1.6.8 2.9.1.2c.1.2.2.3.4.4h.2c.2 0 .3-.2.3-.4v-.5c0-.2.1-.4.1-.5v-.1c0-.1 0-.1.1-.2 0 0 0-.1.1-.1 0-.1.1-.1.1-.2l.1-.1.1-.1.1-.1c.1 0 .1-.1.2-.1 1.2-.7 2.8-.3 3.3 1l.2.8c.1.2.3.3.4.2l9.7-2.8c.2-.1.3-.3.2-.4l-.2-.7v-.8c0-.1 0-.1.1-.2 0-.1 0-.1.1-.2 0-.1.1-.1.1-.2s.1-.1.1-.2.1-.1.1-.2.1-.1.1-.2l.2-.2c.1 0 .1-.1.2-.1s.1-.1.2-.1.1-.1.2-.1.1-.1.2-.1.2 0 .2-.1H88.2c.5.1 1 .4 1.4.8.1.1.1.2.2.3 0 0 0 .1.1.1 0 .1.1.1.1.2.1.2.1.3.1.5.1.3.4.5.6.3l.5-.2c.4-.4.5-.7.4-1.1zm-20.8 2.1l1.4-2.6 3-.9.6 2.1-5 1.4zm6.1-1.8l-.6-2 4.1-1.2 3.3 1.3-6.8 1.9z"/></g><defs><circle id="l" cx="80.5" cy="36" r="19.5"/></defs><clipPath id="m"><use xlink:href="#l" overflow="visible"/></clipPath><path fill="#6E6E6D" d="M78.4 66.6c18.5 0 33.7-13.5 36.5-31.2L49.8 53c6.8 8.3 17.1 13.6 28.6 13.6z" clip-path="url(#m)"/></g></svg>