<?xml version="1.0"?><svg xmlns="http://www.w3.org/2000/svg" xmlns:xlink="http://www.w3.org/1999/xlink" viewBox="0 0 160 100" enable-background="new 0 0 160 100" width="160px" height="100px"><g><linearGradient id="a" gradientUnits="userSpaceOnUse" x1="80.472" y1="39.794" x2="80.472" y2="99.111"><stop offset=".481" stop-color="#010202"/><stop offset=".925" stop-color="#010202" stop-opacity=".145"/><stop offset="1" stop-color="#010202" stop-opacity="0"/></linearGradient><path fill="url(#a)" d="M153.9 71.4H7.1v17.8c0 6 4.8 10.8 10.8 10.8h125.2c6 0 10.8-4.8 10.8-10.8V71.4z"/></g><g><linearGradient id="b" gradientUnits="userSpaceOnUse" x1="108.679" y1="95.383" x2="52.776" y2="-1.444"><stop offset="0" stop-color="#474747"/><stop offset="1" stop-color="#504F4F"/></linearGradient><path fill="url(#b)" d="M150.5 0h-140C8.6 0 7.1 1.5 7.1 3.4v86.2c0 1.9 1.5 3.4 3.4 3.4h140c1.9 0 3.4-1.5 3.4-3.4V3.4c0-1.9-1.5-3.4-3.4-3.4zM21.2 20c-3 0-5.4-2.4-5.4-5.4 0-3 2.4-5.4 5.4-5.4s5.4 2.4 5.4 5.4c0 3-2.5 5.4-5.4 5.4zm59.3 35.5C69.7 55.5 61 46.8 61 36s8.7-19.5 19.5-19.5S100 25.2 100 36s-8.8 19.5-19.5 19.5z"/></g><g><radialGradient id="c" cx="21.117" cy="14.658" r="5.375" gradientTransform="matrix(.916 0 0 .916 1.769 1.218)" gradientUnits="userSpaceOnUse"><stop offset=".006" stop-opacity="0"/><stop offset=".225" stop-color="#010101" stop-opacity="0"/><stop offset=".304" stop-color="#040404" stop-opacity="0"/><stop offset=".36" stop-color="#0A0A09" stop-opacity="0"/><stop offset=".406" stop-color="#101010" stop-opacity="0"/><stop offset=".445" stop-color="#151514" stop-opacity="0"/><stop offset=".478" stop-color="#191818" stop-opacity="0"/><stop offset=".5" stop-color="#1A1919" stop-opacity="0"/><stop offset=".535" stop-color="#171516" stop-opacity=".07"/><stop offset=".687" stop-color="#0B0A0B" stop-opacity=".374"/><stop offset=".82" stop-color="#040405" stop-opacity=".641"/><stop offset=".929" stop-color="#020203" stop-opacity=".859"/><stop offset="1" stop-color="#010202"/></radialGradient><circle opacity=".5" fill="url(#c)" cx="21.2" cy="14.6" r="4.9"/></g><g><radialGradient id="d" cx="22.254" cy="11.83" r="2.135" gradientTransform="matrix(1.181 0 0 1.076 -5.093 -.885)" gradientUnits="userSpaceOnUse"><stop offset="0" stop-color="#fff"/><stop offset="1" stop-color="#fff" stop-opacity="0"/></radialGradient><ellipse opacity=".5" fill="url(#d)" cx="21.2" cy="12.4" rx="3.2" ry="1.5"/></g><g><linearGradient id="e" gradientUnits="userSpaceOnUse" x1="21.18" y1="20.47" x2="21.18" y2="8.72"><stop offset="0" stop-color="#4D4D4D"/><stop offset="1" stop-color="#3C3C3B"/></linearGradient><circle opacity=".8" fill="none" stroke="url(#e)" stroke-miterlimit="10" cx="21.2" cy="14.6" r="5.4"/></g><g><defs><path id="f" d="M150.5 0h-140C8.6 0 7.1 1.5 7.1 3.4v86.2c0 1.9 1.5 3.4 3.4 3.4h140c1.9 0 3.4-1.5 3.4-3.4V3.4c0-1.9-1.5-3.4-3.4-3.4zm-70 55.5C69.7 55.5 61 46.8 61 36s8.7-19.5 19.5-19.5S100 25.2 100 36s-8.8 19.5-19.5 19.5z"/></defs><clipPath id="g"><use xlink:href="#f" overflow="visible"/></clipPath><radialGradient id="h" cx="80.563" cy="36.076" r="21" gradientUnits="userSpaceOnUse"><stop offset=".568" stop-color="#fff"/><stop offset=".729" stop-color="#fff"/><stop offset="1" stop-color="#fff" stop-opacity="0"/></radialGradient><circle clip-path="url(#g)" fill="url(#h)" cx="80.6" cy="36.1" r="21"/></g><g fill="#fff"><path d="M36.2 71.2v-8.5H38V66h3.9v-3.3h1.8v8.5h-1.8v-3.6H38v3.6h-1.8zM46.1 71.2v-8.5h1.8v8.5h-1.8zM56.9 62.8v1.5c-.8-.1-1.5-.2-2.1-.2-1 0-1.7.3-2.2.8-.5.5-.7 1.2-.7 2.1 0 .9.3 1.7.8 2.2.2.2.5.4.9.6.4.1.8.2 1.3.2h.9v-2h-1.3v-1.3h2.9v4.5c-.8.1-1.7.1-2.6.1-1.4 0-2.6-.3-3.4-1-1-.8-1.4-1.9-1.4-3.3 0-1.3.4-2.3 1.2-3.1.8-.8 2.1-1.2 3.7-1.2.6-.1 1.3 0 2 .1zM59.6 71.2v-8.5h1.8V66h3.9v-3.3h1.8v8.5h-1.8v-3.6h-3.9v3.6h-1.8zM73.4 71.2v-8.5h3.3c1.3 0 2.3.4 3.1 1.1.8.7 1.2 1.8 1.2 3.1 0 1.4-.4 2.4-1.2 3.2-.7.7-1.8 1.1-3.1 1.1h-3.3zm1.7-1.4h1.4c.8 0 1.4-.3 1.9-.8.4-.5.7-1.2.7-2.1s-.2-1.6-.7-2.1c-.4-.5-1.1-.8-1.9-.8h-1.4v5.8zM83 71.2v-8.5h2.7c2 0 3 .9 3 2.6 0 .7-.2 1.2-.5 1.6-.2.3-.5.5-.9.7l2.2 3.6h-2L85.6 68h-.9v3.3H83zm1.7-4.5h.8c.6 0 1-.2 1.2-.5.1-.2.2-.5.2-.8 0-.4-.1-.7-.4-1-.3-.2-.6-.4-1-.4h-.8v2.7zM91.2 71.2v-8.5H93v8.5h-1.8zM97.6 71.2l-3.1-8.5h1.8l2.3 6.7 2.3-6.7h1.7l-3.1 8.5h-1.9zM104.2 71.2v-8.5h1.8v8.5h-1.8zM108.5 71.2v-8.5h2.1l3.4 6.1v-6.1h1.7v8.5h-2.1l-3.4-6.1v6.1h-1.7zM124.6 62.8v1.5c-.8-.1-1.5-.2-2.1-.2-1 0-1.7.3-2.2.8-.5.5-.7 1.2-.7 2.1 0 .9.3 1.7.8 2.2.2.2.5.4.9.6.4.1.8.2 1.3.2h.9v-2h-1.3v-1.3h2.9v4.5c-.8.1-1.7.1-2.6.1-1.4 0-2.6-.3-3.4-1-.9-.8-1.3-1.9-1.3-3.3 0-1.3.4-2.3 1.2-3.1.8-.8 2.1-1.2 3.7-1.2.5-.1 1.2 0 1.9.1zM51.1 82.2v-8.5H54c2.1 0 3.1.9 3.1 2.7s-1 2.7-3.1 2.7h-1.2v3h-1.7zm1.7-4.3h1.1c.6 0 1-.2 1.3-.6.1-.2.2-.5.2-.9s-.1-.7-.3-1c-.3-.3-.7-.5-1.2-.5h-1.1v3zM62.9 73.6c1.3 0 2.3.4 3 1.2.8.8 1.2 1.9 1.2 3.2 0 1.4-.4 2.4-1.2 3.2-.8.8-1.8 1.2-3.1 1.2-1.1 0-2.1-.3-2.8-1-.9-.8-1.4-2-1.4-3.5 0-1.4.4-2.4 1.2-3.2.8-.7 1.9-1.1 3.1-1.1zm0 1.4c-.7 0-1.3.3-1.7.9-.4.5-.6 1.3-.6 2.2 0 .9.2 1.7.6 2.2.4.6 1 .9 1.8.9.7 0 1.2-.2 1.6-.7.5-.5.7-1.3.7-2.4 0-1.1-.3-1.9-.8-2.4-.4-.5-.9-.7-1.6-.7zM68.8 82.1v-1.4c.8.2 1.5.4 2.2.4.6 0 1.1-.1 1.4-.4.2-.2.3-.4.3-.7 0-.2-.1-.4-.2-.6-.1-.2-.5-.4-1.1-.7l-.6-.3c-.7-.3-1.1-.5-1.3-.7-.5-.4-.8-1-.8-1.7s.3-1.3.9-1.8c.6-.4 1.3-.6 2.3-.6.7 0 1.4.1 2.1.3v1.4c-.7-.2-1.3-.3-2-.3s-1.2.1-1.4.4c-.2.1-.2.3-.2.6 0 .2.1.5.4.6.2.1.5.3.9.4l.6.3c.6.2 1 .4 1.2.6.6.4.9 1.1.9 1.9 0 .8-.3 1.5-.9 1.9-.6.4-1.3.6-2.4.6-.8.1-1.6 0-2.3-.2zM76.5 82.2v-8.5h1.8v8.5h-1.8zM82.4 82.2v-7h-2.5v-1.4h6.8v1.4h-2.5v7h-1.8zM88.4 82.2v-8.5h1.8v8.5h-1.8zM96.4 73.6c1.3 0 2.3.4 3 1.2.8.8 1.2 1.9 1.2 3.2 0 1.4-.4 2.4-1.2 3.2-.8.8-1.8 1.2-3.1 1.2-1.1 0-2.1-.3-2.8-1-.9-.8-1.4-2-1.4-3.5 0-1.4.4-2.4 1.2-3.2.8-.7 1.9-1.1 3.1-1.1zm0 1.4c-.7 0-1.3.3-1.7.9-.4.5-.6 1.3-.6 2.2 0 .9.2 1.7.6 2.2.4.6 1 .9 1.8.9.7 0 1.2-.2 1.6-.7.5-.5.7-1.3.7-2.4 0-1.1-.3-1.9-.8-2.4-.4-.5-.9-.7-1.6-.7zM102.7 82.2v-8.5h2.1l3.4 6.1v-6.1h1.7v8.5h-2.1l-3.4-6.1v6.1h-1.7z"/></g><g opacity=".3"><defs><circle id="i" opacity=".3" cx="80.5" cy="36" r="19.5"/></defs><clipPath id="j"><use xlink:href="#i" overflow="visible"/></clipPath><radialGradient id="k" cx="80.472" cy="41.61" r="22.784" gradientTransform="matrix(.973 0 0 .973 2.161 -1.836)" gradientUnits="userSpaceOnUse"><stop offset=".766" stop-color="#010202" stop-opacity="0"/><stop offset=".954" stop-color="#010202" stop-opacity=".931"/><stop offset="1" stop-color="#010202"/></radialGradient><circle clip-path="url(#j)" fill="url(#k)" cx="80.5" cy="38.7" r="22.2"/></g><g fill="#010202"><path d="M78.4 28.2v-1.4c0-.7-.6-1.2-1.2-1.2s-1.2.6-1.2 1.2v1.4c0 .7.6 1.2 1.2 1.2s1.2-.5 1.2-1.2zM85.2 36.8H81c.2-1.9-.3-3.7-1.3-5.3l-.7-1c-.3-.5-.9-.7-1.4-.6-.8.2-1.2.9-1.1 1.7l1.5 6.8c.1.6.7 1.1 1.3 1.1h5.9c.7 0 1.3-.6 1.3-1.3.1-.8-.5-1.4-1.3-1.4zM81.3 41.2l-3.6 4.5h2.2v3.4h2.8v-3.4h2.2z"/></g><g><linearGradient id="l" gradientUnits="userSpaceOnUse" x1="80.472" y1="93.053" x2="80.472"><stop offset="0" stop-color="#3C3C3B"/><stop offset=".438" stop-color="#3E3D3D"/><stop offset=".599" stop-color="#424241"/><stop offset=".714" stop-color="#494948"/><stop offset=".807" stop-color="#515150"/><stop offset=".887" stop-color="#585958"/><stop offset=".957" stop-color="#5E5E5E"/><stop offset=".995" stop-color="#5F605F"/></linearGradient><path fill="url(#l)" d="M150.5 1c1.3 0 2.4 1.1 2.4 2.4v86.2c0 1.3-1.1 2.4-2.4 2.4h-140c-1.3 0-2.4-1.1-2.4-2.4V3.4c0-1.3 1-2.4 2.4-2.4h140m0-1h-140C8.6 0 7.1 1.5 7.1 3.4v86.2c0 1.9 1.5 3.4 3.4 3.4h140c1.9 0 3.4-1.5 3.4-3.4V3.4c0-1.9-1.5-3.4-3.4-3.4z"/></g></svg>