<?xml version="1.0"?><svg xmlns="http://www.w3.org/2000/svg" viewBox="0 0 140 415" enable-background="new 0 0 140 415" width="140px" height="415px"><g><linearGradient id="a" gradientUnits="userSpaceOnUse" x1="125.75" y1="207.278" x2="135.75" y2="207.278"><stop offset=".17" stop-color="#1D1D1B" stop-opacity="0"/><stop offset="1" stop-color="#1D1D1B" stop-opacity=".5"/></linearGradient><path opacity=".5" fill="url(#a)" d="M125.7 12.8h10v389h-10z"/><linearGradient id="b" gradientUnits="userSpaceOnUse" x1="315.968" y1="183.653" x2="325.968" y2="183.653" gradientTransform="matrix(0 -1 1 0 -76.528 338.027)"><stop offset=".17" stop-opacity="0"/><stop offset="1" stop-color="#1D1D1B" stop-opacity=".5"/></linearGradient><path opacity=".5" fill="url(#b)" d="M78.5 12.1h57.2v10H78.5z"/><linearGradient id="c" gradientUnits="userSpaceOnUse" x1="569.117" y1="273.277" x2="705.765" y2="273.277" gradientTransform="matrix(0 1 -1 0 290.778 -303.909)"><stop offset=".17" stop-opacity="0"/><stop offset="1" stop-opacity=".6"/></linearGradient><path fill="url(#c)" d="M5 265.2h25v136.6H5z"/><linearGradient id="d" gradientUnits="userSpaceOnUse" x1="172.25" y1="207.278" x2="182.25" y2="207.278" gradientTransform="matrix(-1 0 0 1 261.499 0)"><stop offset=".17" stop-opacity="0"/><stop offset=".997" stop-opacity=".5"/></linearGradient><path opacity=".5" fill="url(#d)" d="M79.2 12.8h10v389h-10z"/><linearGradient id="e" gradientUnits="userSpaceOnUse" x1="569.117" y1="184.028" x2="705.765" y2="184.028" gradientTransform="matrix(0 1 -1 0 290.778 -303.909)"><stop offset=".17" stop-opacity="0"/><stop offset="1" stop-opacity=".6"/></linearGradient><path fill="url(#e)" d="M75.5 265.2H138v136.6H75.5z"/></g><g><g fill="#1E1E1E"><path d="M67.3 49.7c-.5 0-.9.2-1.1.7-.2.4-.4 1.1-.4 2.1 0 1.8.5 2.7 1.5 2.7.4 0 .8-.1 1-.4.3-.4.5-1.2.5-2.3 0-.9-.1-1.6-.4-2-.2-.6-.6-.8-1.1-.8zM59.6 230.3v-3.2l-2.3 3.2zM59.1 158.2c-.4 0-.7.1-1 .4l-.2.2-.1.2v.6c0 .5.1.8.3 1 .2.2.5.4 1 .4.9 0 1.3-.5 1.3-1.5 0-.4-.1-.8-.3-1-.3-.2-.6-.3-1-.3zM67.3 84.9c-.5 0-.9.2-1.1.7-.2.4-.4 1.1-.4 2.1 0 1.8.5 2.7 1.5 2.7.4 0 .8-.1 1-.4.3-.4.5-1.2.5-2.3 0-.9-.1-1.6-.4-2-.2-.5-.6-.8-1.1-.8zM57.5 18.1c.4 0 .8-.2 1-.5.2-.3.4-.8.4-1.5s-.1-1.2-.4-1.5c-.1-.1-.3-.2-.4-.3-.2-.1-.3-.1-.5-.1-.4 0-.8.2-1 .5-.2.3-.3.8-.3 1.4 0 .6.1 1.1.3 1.4.2.4.5.6.9.6zM67.3 120.2c-.5 0-.9.2-1.1.7-.2.4-.4 1.1-.4 2.1 0 1.8.5 2.7 1.5 2.7.4 0 .8-.1 1-.4.3-.4.5-1.2.5-2.3 0-.9-.1-1.6-.4-2-.2-.6-.6-.8-1.1-.8zM59 88.2c-.5 0-.9.1-1.1.4-.2.2-.2.4-.2.7 0 .4.1.7.4.9.2.2.5.3 1 .3s.8-.1 1.1-.3c.2-.2.4-.5.4-.9s-.1-.7-.4-.8c-.4-.2-.7-.3-1.2-.3zM59 86.7c.9 0 1.3-.3 1.3-.9 0-.3-.1-.5-.3-.7-.2-.2-.5-.2-.9-.2-.5 0-.8.1-1 .4-.1.1-.2.3-.2.6s.1.5.3.7c.1 0 .4.1.8.1zM57.7 51.1c0 .9.4 1.3 1.3 1.3.3 0 .6-.1.8-.2.1-.1.3-.2.4-.4.1-.1.1-.2.1-.2V51c0-.9-.4-1.4-1.3-1.4s-1.3.5-1.3 1.5zM0-.2v416h140V-.2H0zm61.6 13.4h2c.8 0 1.4.2 1.7.7.2.3.3.7.3 1.2 0 .6-.2 1.1-.7 1.5l1.3 2.4h-1.5l-1-2h-.8v2h-1.3v-5.8zm8.3 289.1c-.6.8-1.4 1.2-2.6 1.2-1 0-1.8-.3-2.4-1-.7-.7-1-1.9-1-3.4 0-1.4.3-2.4.8-3.1.6-.8 1.4-1.2 2.6-1.2 1.1 0 2 .4 2.6 1.2.5.7.8 1.8.8 3.1 0 1.4-.3 2.5-.8 3.2zm.8 32.5c0 1.4-.3 2.4-.8 3.1-.6.8-1.4 1.2-2.6 1.2-1 0-1.8-.3-2.4-1-.7-.7-1-1.9-1-3.4 0-1.4.3-2.4.8-3.1.6-.8 1.4-1.2 2.6-1.2 1.1 0 2 .4 2.6 1.2.5.8.8 1.9.8 3.2zm-.8-67.5c-.6.8-1.4 1.2-2.6 1.2-1 0-1.8-.3-2.4-1-.7-.7-1-1.9-1-3.4 0-1.4.3-2.4.8-3.1.6-.8 1.4-1.2 2.6-1.2 1.1 0 2 .4 2.6 1.2.5.7.8 1.8.8 3.1 0 1.5-.3 2.5-.8 3.2zm0-35.2c-.6.8-1.4 1.2-2.6 1.2-1 0-1.8-.3-2.4-1-.7-.7-1-1.9-1-3.4 0-1.4.3-2.4.8-3.1.6-.8 1.4-1.2 2.6-1.2 1.1 0 2 .4 2.6 1.2.5.7.8 1.8.8 3.1 0 1.4-.3 2.5-.8 3.2zm0-35.3c-.6.8-1.4 1.2-2.6 1.2-1 0-1.8-.3-2.4-1-.7-.7-1-1.9-1-3.4 0-1.4.3-2.4.8-3.1.6-.8 1.4-1.2 2.6-1.2 1.1 0 2 .4 2.6 1.2.5.7.8 1.8.8 3.1 0 1.5-.3 2.5-.8 3.2zm0-35.5c-.6.8-1.4 1.2-2.6 1.2-1 0-1.8-.3-2.4-1-.7-.7-1-1.9-1-3.4 0-1.4.3-2.4.8-3.1.6-.8 1.4-1.2 2.6-1.2 1.1 0 2 .4 2.6 1.2.5.7.8 1.8.8 3.1 0 1.4-.3 2.5-.8 3.2zm0-35.2c-.6.8-1.4 1.2-2.6 1.2-1 0-1.8-.3-2.4-1-.7-.7-1-1.9-1-3.4 0-1.4.3-2.4.8-3.1.6-.8 1.4-1.2 2.6-1.2 1.1 0 2 .4 2.6 1.2.5.7.8 1.8.8 3.1 0 1.4-.3 2.4-.8 3.2zm0-35.3c-.6.8-1.4 1.2-2.6 1.2-1 0-1.8-.3-2.4-1-.7-.7-1-1.9-1-3.4 0-1.4.3-2.4.8-3.1.6-.8 1.4-1.2 2.6-1.2 1.1 0 2 .4 2.6 1.2.5.7.8 1.8.8 3.1 0 1.4-.3 2.5-.8 3.2zm0-35.2c-.6.8-1.4 1.2-2.6 1.2-1 0-1.8-.3-2.4-1-.7-.7-1-1.9-1-3.4 0-1.4.3-2.4.8-3.1.6-.8 1.4-1.2 2.6-1.2 1.1 0 2 .4 2.6 1.2.5.7.8 1.8.8 3.1 0 1.4-.3 2.4-.8 3.2zM56.6 333v-1.4l2.3-.8h1.5v8.2h-1.8v-6.5l-2 .5zm-.5-29.7V302c1-.8 1.9-1.5 2.4-2.1.4-.4.7-.8.9-1.1.3-.4.4-.8.4-1.2 0-.4-.2-.8-.5-1-.2-.1-.6-.2-1-.2-.5 0-1.2.2-1.9.5v-1.6c.8-.3 1.5-.5 2.4-.5.9 0 1.7.2 2.2.7.5.4.8 1 .8 1.8 0 .9-.3 1.7-1 2.5l-1.8 1.8h3v1.6h-5.9zm4.9-35.5c-.6.5-1.5.7-2.7.7-.8 0-1.5-.1-2.2-.2v-1.6c.6.1 1.2.2 1.9.2 1.3 0 2-.4 2-1.2 0-.7-.6-1.1-1.9-1.1-.3 0-.7 0-1 .1v-1.2l2-1.9H56v-1.5h5.4v1.3l-2.1 2c.8 0 1.3.2 1.7.6.5.4.8 1 .8 1.8.1.8-.2 1.5-.8 2zm.3-36.1v1.4h-1.8v-1.4h-3.8v-1.6l3.7-5.2h1.8v5.4h.9v1.4h-.8zm-3.1-37.8c-.5 0-1.1.1-1.8.2l.2-4.5h5v1.6h-3.3v1.3h.7c1 0 1.8.2 2.3.6.6.5.8 1.2.8 2.1 0 1-.4 1.7-1.1 2.2-.7.4-1.6.7-2.7.7-.6 0-1.2-.1-2-.2v-1.6c.6.1 1.3.2 1.9.2 1.4 0 2.1-.4 2.1-1.3-.2-.9-.8-1.3-2.1-1.3zm3.2-32.2c-.6.5-1.3.8-2.4.8-.9 0-1.6-.2-2.1-.7-.7-.6-1-1.6-1-3s.3-2.5.9-3.3c.8-1.1 1.9-1.6 3.5-1.6.4 0 .8 0 1.3.1v1.4h-.8c-1 0-1.7.2-2.1.6-.3.3-.5.7-.7 1.3.4-.4 1-.6 1.7-.6.5 0 1 .1 1.5.4.8.4 1.1 1.2 1.1 2.4 0 1-.3 1.7-.9 2.2zm-5.3-41.3v-1.6h6v1.4l-3.5 6.8h-2l3.4-6.6h-3.9zm5.3-29.1c-.5.5-1.3.7-2.4.7-.9 0-1.6-.2-2.2-.6-.7-.5-1.1-1.1-1.1-2 0-.5.1-1 .4-1.4.2-.2.4-.4.7-.6-.6-.4-.9-1-.9-1.7s.3-1.3.8-1.7c.6-.4 1.3-.6 2.2-.6.9 0 1.7.2 2.2.6.6.4.8 1 .8 1.7s-.3 1.3-.9 1.7c.3.2.6.4.8.7.2.4.4.8.4 1.3.1.8-.2 1.4-.8 1.9zm.8-39.5c0 1.4-.3 2.5-.9 3.3-.8 1.1-1.9 1.6-3.5 1.6-.4 0-.8 0-1.3-.1v-1.4h.8c1 0 1.7-.2 2.1-.6.3-.3.5-.7.7-1.3-.4.4-1 .6-1.7.6-.8 0-1.4-.2-1.8-.6-.5-.5-.8-1.2-.8-2.1 0-1 .3-1.8.8-2.3.6-.5 1.3-.8 2.3-.8 1 0 1.8.3 2.3.9.7.7 1 1.6 1 2.8zm-6.6-37.9c.5-.5 1.2-.8 2-.8s1.5.3 2 .8.7 1.3.7 2.2c0 .9-.2 1.7-.7 2.2-.5.5-1.2.8-2 .8-.7 0-1.4-.2-1.8-.7-.6-.5-.9-1.3-.9-2.4-.1-.9.2-1.6.7-2.1zm-7.8-.7h1.6l1.4 4.2 1.3-4.2h1.5V19h-1.3v-3.5L51.2 19h-1l-1.1-3.5V19h-1.3v-5.8zm-12 3.5h2v1h-2v-1zm0 3.5h2v1h-2v-1zm0 3.5h2v1h-2v-1zm0 3.5h2v1h-2v-1zm0 3.6h6v1h-6v-1zm0 3.5h2v1h-2v-1zm0 3.5h2v1h-2v-1zm0 3.5h2v1h-2v-1zm0 3.6h2v1h-2v-1zm0 7h2v1h-2v-1zm0 3.5h2v1h-2v-1zm0 3.6h2v1h-2v-1zm0 3.5h2v1h-2v-1zm0 3.5h6v1h-6v-1zm0 3.5h2v1h-2v-1zm0 3.6h2v1h-2v-1zm0 3.5h2v1h-2v-1zm0 3.5h2v1h-2v-1zm0 7.1h2v1h-2v-1zm0 3.5h2v1h-2v-1zm0 3.5h2v1h-2v-1zm0 3.5h2v1h-2v-1zm0 3.6h6v1h-6v-1zm0 3.5h2v1h-2v-1zm0 3.5h2v1h-2v-1zm0 3.5h2v1h-2v-1zm0 3.6h2v1h-2v-1zm0 7h2v1h-2v-1zm0 3.5h2v1h-2v-1zm0 3.6h2v1h-2v-1zm0 3.5h2v1h-2v-1zm0 3.5h6v1h-6v-1zm0 3.5h2v1h-2v-1zm0 3.6h2v1h-2v-1zm0 3.5h2v1h-2v-1zm0 3.5h2v1h-2v-1zm0 7.1h2v1h-2v-1zm0 3.5h2v1h-2v-1zm0 3.5h2v1h-2v-1zm0 3.6h2v1h-2v-1zm0 3.5h6v1h-6v-1zm0 3.5h2v1h-2v-1zm0 3.5h2v1h-2v-1zm0 3.6h2v1h-2v-1zm0 3.5h2v1h-2v-1zm0 7h2v1h-2v-1zm0 3.6h2v1h-2v-1zm0 3.5h2v1h-2v-1zm0 3.5h2v1h-2v-1zm0 3.5h6v1h-6v-1zm0 3.6h2v1h-2v-1zm0 3.5h2v1h-2v-1zm0 3.5h2v1h-2v-1zm0 3.5h2v1h-2v-1zm0 7.1h2v1h-2v-1zm0 3.5h2v1h-2v-1zm0 3.5h2v1h-2v-1zm0 3.6h2v1h-2v-1zm0 3.5h6v1h-6v-1zm0 3.5h2v1h-2v-1zm0 3.5h2v1h-2v-1zm0 3.6h2v1h-2v-1zm0 3.5h2v1h-2v-1zm0 7h2v1h-2v-1zm0 3.6h2v1h-2v-1zm0 3.5h2v1h-2v-1zm0 3.5h2v1h-2v-1zm0 3.5h6v1h-6v-1zm0 3.6h2v1h-2v-1zm0 3.5h2v1h-2v-1zm0 3.5h2v1h-2v-1zm0 3.5h2v1h-2v-1zm0 7.1h2v1h-2v-1zm0 3.5h2v1h-2v-1zm0 3.5h2v1h-2v-1zm0 3.6h2v1h-2v-1zm0 3.5h6v1h-6v-1zm0 3.5h2v1h-2v-1zm0 3.5h2v1h-2v-1zm0 3.6h2v1h-2v-1zm0 3.5h2v1h-2v-1zm0 7h2v1h-2v-1zm0 3.6h2v1h-2v-1zm0 3.5h2v1h-2v-1zm0 3.5h2v1h-2v-1zm0 3.5h6v1h-6v-1zm0 3.6h2v1h-2v-1zm0 3.5h2v1h-2v-1zm0 3.5h2v1h-2v-1zm0 3.5h2v1h-2v-1zm0 7.1h2v1h-2v-1zm0 3.5h2v1h-2v-1zm0 3.5h2v1h-2v-1zm0 3.6h2v1h-2v-1zm0 3.5h6v1h-6v-1zm0 3.5h2v1h-2v-1zm0 3.5h2v1h-2v-1zm0 3.6h2v1h-2v-1zm0 3.5h2v1h-2v-1zm-16.3 4.4h-4v-389h4v389zm24.3.1h-8v-1h8v1zm0-35.2h-8v-1h8v1zm0-35.3h-8v-1h8v1zm0-35.2h-8v-1h8v1zm0-35.3h-8v-1h8v1zm0-35.2h-8v-1h8v1zm0-35.3h-8v-1h8v1zm0-35.2h-8v-1h8v1zm0-35.3h-8v-1h8v1zm0-35.3h-8v-1h8v1zm0-35.2h-8v-1h8v1zm0-35.3h-8v-1h8v1zm8.4 387.8h-4.4v-7.1h1.6v5.7h2.8v1.4zm1.4-27.8h-5.8v-1.3c1-.8 1.9-1.5 2.4-2.1.4-.4.7-.8.9-1.1.3-.4.4-.8.4-1.2 0-.4-.2-.8-.5-1-.2-.1-.6-.2-1-.2-.5 0-1.2.2-1.9.5v-1.6c.8-.3 1.5-.5 2.4-.5.9 0 1.7.2 2.2.7.5.4.8 1 .8 1.8 0 .9-.3 1.7-1 2.5l-1.8 1.8h3v1.7zm0-35.1h-5.8v-1.3c1-.8 1.9-1.5 2.4-2.1.4-.4.7-.8.9-1.1.3-.4.4-.8.4-1.2 0-.4-.2-.8-.5-1-.2-.1-.6-.2-1-.2-.5 0-1.2.2-1.9.5V331c.8-.3 1.5-.5 2.4-.5.9 0 1.7.2 2.2.7.5.4.8 1 .8 1.8 0 .9-.3 1.7-1 2.5l-1.8 1.8h3v1.7zm0-35.7h-5.8V302c1-.8 1.9-1.5 2.4-2.1.4-.4.7-.8.9-1.1.3-.4.4-.8.4-1.2 0-.4-.2-.8-.5-1-.2-.1-.6-.2-1-.2-.5 0-1.2.2-1.9.5v-1.6c.8-.3 1.5-.5 2.4-.5.9 0 1.7.2 2.2.7.5.4.8 1 .8 1.8 0 .9-.3 1.7-1 2.5l-1.8 1.8h3v1.7zm0-35h-5.8V267c1-.8 1.9-1.5 2.4-2.1.4-.4.7-.8.9-1.1.3-.4.4-.8.4-1.2 0-.4-.2-.8-.5-1-.2-.1-.6-.2-1-.2-.5 0-1.2.2-1.9.5v-1.6c.8-.3 1.5-.5 2.4-.5.9 0 1.7.2 2.2.7.5.4.8 1 .8 1.8 0 .9-.3 1.7-1 2.5l-1.8 1.8h3v1.7zm0-35.2h-5.8v-1.3c1-.8 1.9-1.5 2.4-2.1.4-.4.7-.8.9-1.1.3-.4.4-.8.4-1.2 0-.4-.2-.8-.5-1-.2-.1-.6-.2-1-.2-.5 0-1.2.2-1.9.5v-1.6c.8-.3 1.5-.5 2.4-.5.9 0 1.7.2 2.2.7.5.4.8 1 .8 1.8 0 .9-.3 1.7-1 2.5l-1.8 1.8h3v1.7zm0-35.3h-5.8v-1.3c1-.8 1.9-1.5 2.4-2.1.4-.4.7-.8.9-1.1.3-.4.4-.8.4-1.2 0-.4-.2-.8-.5-1-.2-.1-.6-.2-1-.2-.5 0-1.2.2-1.9.5v-1.6c.8-.3 1.5-.5 2.4-.5.9 0 1.7.2 2.2.7.5.4.8 1 .8 1.8 0 .9-.3 1.7-1 2.5l-1.8 1.8h3v1.7zm0-35.5h-5.8V161c1-.8 1.9-1.5 2.4-2.1.4-.4.7-.8.9-1.1.3-.4.4-.8.4-1.2 0-.4-.2-.8-.5-1-.2-.1-.6-.2-1-.2-.5 0-1.2.2-1.9.5v-1.6c.8-.3 1.5-.5 2.4-.5.9 0 1.7.2 2.2.7.5.4.8 1 .8 1.8 0 .9-.3 1.7-1 2.5l-1.8 1.8h3v1.7zm0-35.3h-5.8v-1.3c1-.8 1.9-1.5 2.4-2.1.4-.4.7-.8.9-1.1.3-.4.4-.8.4-1.2 0-.4-.2-.8-.5-1-.2-.1-.6-.2-1-.2-.5 0-1.2.2-1.9.5V119c.8-.3 1.5-.5 2.4-.5.9 0 1.7.2 2.2.7.5.4.8 1 .8 1.8 0 .9-.3 1.7-1 2.5l-1.8 1.8h3v1.7zm0-35.2h-5.8v-1.3c1-.8 1.9-1.5 2.4-2.1.4-.4.7-.8.9-1.1.3-.4.4-.8.4-1.2 0-.4-.2-.8-.5-1-.2-.1-.5-.1-1-.1s-1.2.2-1.9.5v-1.6c.8-.3 1.5-.5 2.4-.5.9 0 1.7.2 2.2.7.5.4.8 1 .8 1.8 0 .9-.3 1.7-1 2.5l-1.8 1.8h3v1.6zm0-35.3h-5.8v-1.3c1-.8 1.9-1.5 2.4-2.1.4-.4.7-.8.9-1.1.3-.4.4-.8.4-1.2 0-.4-.2-.8-.5-1-.2-.1-.6-.2-1-.2-.5 0-1.2.2-1.9.5v-1.6c.8-.3 1.5-.5 2.4-.5.9 0 1.7.2 2.2.7.5.4.8 1 .8 1.8 0 .9-.3 1.7-1 2.5l-1.8 1.8h3v1.7zm4.7 345.4H54v-7.1h4.2v1.4h-2.6v1.4h2.5v1.3h-2.5v1.6h2.7v1.4zm-1.6-28.6c-.7-.7-1-1.9-1-3.4 0-1.4.3-2.4.8-3.1.6-.8 1.4-1.2 2.6-1.2 1.1 0 2 .4 2.6 1.2.5.7.8 1.8.8 3.1 0 1.4-.3 2.4-.8 3.1-.6.8-1.4 1.2-2.6 1.2-1.1.1-1.9-.3-2.4-.9zm7.3 28.1c-.5.5-1.2.7-2.2.7-.6 0-1.2-.1-1.8-.3v-1.3c.6.2 1.2.3 1.7.3.6 0 1-.1 1.2-.3.1-.1.2-.3.2-.5s-.1-.4-.2-.5c-.1-.1-.3-.2-.5-.3l-1-.4c-.9-.4-1.4-1.1-1.4-1.9 0-.7.3-1.3.9-1.6.5-.3 1.1-.5 1.8-.5.4 0 1 .1 1.7.2v1.2c-.6-.1-1.2-.2-1.6-.2-.9 0-1.3.3-1.3.8 0 .3.2.5.7.8l.8.4c.5.2.9.4 1.1.7.4.4.6.9.6 1.5-.1.3-.3.8-.7 1.2zm0-31.5c0-1.4.3-2.4.8-3.1.6-.8 1.4-1.2 2.6-1.2 1.1 0 2 .4 2.6 1.2.5.7.8 1.8.8 3.1 0 1.4-.3 2.4-.8 3.1-.6.8-1.4 1.2-2.6 1.2-1 0-1.8-.3-2.4-1-.7-.6-1-1.8-1-3.3zm6.2 31.5c-.5.5-1.2.7-2.2.7-.6 0-1.2-.1-1.8-.3v-1.3c.6.2 1.2.3 1.7.3.6 0 1-.1 1.2-.3.1-.1.2-.3.2-.5s-.1-.4-.2-.5c-.1-.1-.3-.2-.5-.3l-1-.4c-.9-.4-1.4-1.1-1.4-1.9 0-.7.3-1.3.9-1.6.5-.3 1.1-.5 1.8-.5.4 0 1 .1 1.7.2v1.2c-.6-.1-1.2-.2-1.6-.2-.9 0-1.3.3-1.3.8 0 .3.2.5.7.8l.8.4c.5.2.9.4 1.1.7.4.4.6.9.6 1.5-.2.3-.4.8-.7 1.2zM70.8 19h-3.5v-5.7h3.5v1.1h-2.1v1.2h2v1.1h-2V18h2.2v1zM135 401.8H80v-389h55v389zM67.3 332.1c-.5 0-.9.2-1.1.7-.2.4-.4 1.1-.4 2.1 0 1.8.5 2.7 1.5 2.7.4 0 .8-.1 1-.4.3-.4.5-1.2.5-2.3 0-.9-.1-1.6-.4-2-.2-.6-.6-.8-1.1-.8zM64.3 15.1c0-.5-.3-.8-.8-.8h-.6v1.6h.6c.5 0 .8-.3.8-.8zM67.3 296.5c-.5 0-.9.2-1.1.7-.2.4-.4 1.1-.4 2.1 0 1.8.5 2.7 1.5 2.7.4 0 .8-.1 1-.4.3-.4.5-1.2.5-2.3 0-.9-.1-1.6-.4-2-.2-.6-.6-.8-1.1-.8zM68.3 372.2c.3-.4.5-1.2.5-2.3 0-.9-.1-1.6-.4-2-.2-.4-.6-.7-1.1-.7-.5 0-.9.2-1.1.7-.2.4-.4 1.1-.4 2.1 0 1.8.5 2.7 1.5 2.7.4 0 .8-.2 1-.5zM67.3 261.5c-.5 0-.9.2-1.1.7-.2.4-.4 1.1-.4 2.1 0 1.8.5 2.7 1.5 2.7.4 0 .8-.1 1-.4.3-.4.5-1.2.5-2.3 0-.9-.1-1.6-.4-2-.2-.6-.6-.8-1.1-.8zM67.3 155.4c-.5 0-.9.2-1.1.7-.2.4-.4 1.1-.4 2.1 0 1.8.5 2.7 1.5 2.7.4 0 .8-.1 1-.4.3-.4.5-1.2.5-2.3 0-.9-.1-1.6-.4-2-.2-.5-.6-.8-1.1-.8zM59.1 367.2c-.5 0-.9.2-1.1.7-.2.4-.4 1.1-.4 2.1 0 1.8.5 2.7 1.5 2.7.4 0 .8-.1 1-.4.3-.4.5-1.2.5-2.3 0-.9-.1-1.6-.4-2-.3-.5-.6-.8-1.1-.8zM67.3 191c-.5 0-.9.2-1.1.7-.2.4-.4 1.1-.4 2.1 0 1.8.5 2.7 1.5 2.7.4 0 .8-.1 1-.4.3-.4.5-1.2.5-2.3 0-.9-.1-1.6-.4-2-.2-.6-.6-.8-1.1-.8zM67.3 226.2c-.5 0-.9.2-1.1.7-.2.4-.4 1.1-.4 2.1 0 1.8.5 2.7 1.5 2.7.4 0 .8-.1 1-.4.3-.4.5-1.2.5-2.3 0-.9-.1-1.6-.4-2-.2-.6-.6-.8-1.1-.8z"/></g><path d="M5 1.3v412h25V1.3H5zm14.5 400.5h-4v-389h4v389z"/></g></svg>