<svg xmlns="http://www.w3.org/2000/svg" viewBox="0 0 55 75" enable-background="new 0 0 55 75"><linearGradient id="a" gradientUnits="userSpaceOnUse" x1="27.453" x2="27.453" y2="75"><stop offset="0" stop-color="#3A3A3B"/><stop offset="1" stop-color="#353536"/></linearGradient><path fill="url(#a)" d="M0 0v75h55V0H0zm33.7 44.2c.1.9-.2 5.5.9 6.1.3.1.8-.1 1 .1.5.4.5 1.4-.5 1.4H34c-.5 0-1.4-.5-1.6-.9-.2-.5-.3-.9-.4-1.4-.2-1.1-.4-2.2-.7-3.2-.1-.3-.3-.7-.4-1-.2-.3-1.3-.5-2.1-.5-.6-1.7-2.2-2.8-3.8-2.8-2.3 0-4.3 2.2-4.3 4.9v2.5c0 .3.2.6.5.6s.5-.3.5-.6V47c0-2 1.7-3.7 3.4-3.7 1.6 0 3.4 1.7 3.4 3.7v2.8c0 .7 1.4.5 1.5.5.4.1.4.4.4.7 0 .3-.3.7-.6.8-.1 0-.2.1-.3.1h-9.4c-2.4 0-4-.7-5.1-2-1.7-2.1-1-5.5-.4-8.4.5-2.2.9-4.6 0-5.1-.4-.2-.6-.8-.3-1.2.2-.4.8-.6 1.2-.4 2.1 1.1 1.5 4 .9 7-.5 2.6-1.1 5.5.1 7 .4.5 1 .8 1.8 1.1-.2-.4-.4-.8-.4-1.1-2-11.2 5.6-13.1 7.3-13.5.9-.2 6.8-2.7 6.8-2.7.1.1 4.5 3.9 4.6 4-.8 1.9-2.4 5.9-2.6 6.5-.3.3-.3.7-.3 1.1zm7-9.7c-.5.5-1.1 1.2-1.1 1.2s-.5.2-1.7-.3c0 0-.3-.2-.7.2l-4.3-3.9 1.2-1.5s.4-.9 2.2-1.3c1.9-.4 4.2-.6 4.2-.6l-.8 1.5.8 1.4s.7 1 .2 1.9c-.2 0 .5.9 0 1.4z"/></svg>