<svg xmlns="http://www.w3.org/2000/svg" viewBox="0 0 55 75" enable-background="new 0 0 55 75"><linearGradient id="a" gradientUnits="userSpaceOnUse" x1="27.5" x2="27.5" y2="75"><stop offset="0" stop-color="#3A3A3B"/><stop offset="1" stop-color="#353536"/></linearGradient><path fill="url(#a)" d="M0 0v75h55V0H0zm27.5 17.5c2.1 0 3.9 1.7 3.9 3.9 0 2.1-1.7 3.9-3.9 3.9-2.1 0-3.9-1.7-3.9-3.9s1.8-3.9 3.9-3.9zm8.9 25.2c-.6 0-1-.4-1.2-.9l-2.6-9.2h-.7v23c0 1.1-.9 1.9-1.9 1.9s-1.9-.9-1.9-1.9v-10h-1.2v10c0 1.1-.9 1.9-1.9 1.9-1.1 0-1.9-.9-1.9-1.9v-23h-.7l-2.6 9.2c-.1.5-.6.9-1.1.9-.8 0-1.3-.7-1.2-1.5l3-12.8c.3-1.3 1.5-2.2 2.8-2.2h8.4c1.3 0 2.5.9 2.8 2.2l3 12.8c.2.8-.4 1.5-1.1 1.5z"/></svg>