<?xml version="1.0"?><svg xmlns="http://www.w3.org/2000/svg" xmlns:xlink="http://www.w3.org/1999/xlink" viewBox="0 0 55 55" enable-background="new 0 0 55 55" width="55px" height="55px"><circle cx="27.4" cy="27.2" r="27.5"/><circle fill="#333" cx="27.4" cy="27.2" r="22.5"/><path d="M34.4 29.4c0 4.1-3.2 7-7.1 7-3.9 0-7.1-3.2-7.1-7.1s3.2-7 7.1-7h.1v3.9l9.3-5.5-9.4-5.3v4.3h-.1c-5.4 0-9.7 4.4-9.7 9.7 0 5.3 4.4 9.7 9.7 9.7 5.4 0 9.7-4.8 9.7-9.7h-2.5z"/><g opacity=".1"><defs><circle id="a" opacity=".1" cx="27.4" cy="27.2" r="22.5"/></defs><clipPath id="b"><use xlink:href="#a" overflow="visible"/></clipPath><radialGradient id="c" cx="27.5" cy="25.74" r="24.127" gradientUnits="userSpaceOnUse"><stop offset=".003" stop-opacity="0"/><stop offset=".89" stop-opacity="0"/><stop offset="1"/></radialGradient><circle clip-path="url(#b)" fill="url(#c)" cx="27.5" cy="25.7" r="24.1"/></g><linearGradient id="d" gradientUnits="userSpaceOnUse" x1="33.832" y1="37.336" x2="22.23" y2="17.24"><stop offset="0" stop-color="#fff" stop-opacity=".2"/><stop offset="1" stop-opacity="0"/></linearGradient><path fill="url(#d)" d="M27.5 15.4l9.4 5.3-9.3 5.5v-3.9h-.1c-3.9 0-7.1 3.1-7.1 7s3.2 7.1 7.1 7.1c3.9 0 7.1-2.9 7.1-7h2.7c0 4.9-4.4 9.7-9.7 9.7-5.4 0-9.7-4.3-9.7-9.7 0-5.3 4.4-9.7 9.7-9.7h.1l-.2-4.3m-.6-.9v4.7c-5.5.2-9.9 4.7-9.9 10.2 0 5.6 4.6 10.2 10.2 10.2 5.5 0 10.2-4.8 10.2-10.2v-.5h-3.7v.5c0 3.7-2.8 6.5-6.6 6.5-3.6 0-6.6-2.9-6.6-6.6 0-3.5 2.8-6.3 6.2-6.5v4.3l.7-.4 9.3-5.5.7-.4-.8-.4-9.4-5.3-.3-.6z"/><defs><path id="e" d="M34.4 29.4c0 4.1-3.2 7-7.1 7-3.9 0-7.1-3.2-7.1-7.1s3.2-7 7.1-7h.1v3.9l9.3-5.5-9.4-5.3v4.3h-.1c-5.4 0-9.7 4.4-9.7 9.7 0 5.3 4.4 9.7 9.7 9.7 5.4 0 9.7-4.8 9.7-9.7h-2.5z"/></defs><clipPath id="f"><use xlink:href="#e" overflow="visible"/></clipPath><radialGradient id="g" cx="30.25" cy="29.063" r="14.173" gradientUnits="userSpaceOnUse"><stop offset="0" stop-color="#1E1E1E"/><stop offset=".783" stop-color="#1E1E1E" stop-opacity="0"/></radialGradient><circle clip-path="url(#f)" fill="url(#g)" cx="30.2" cy="29.1" r="14.2"/><defs><circle id="h" cx="27.4" cy="27.2" r="22.5"/></defs><clipPath id="i"><use xlink:href="#h" overflow="visible"/></clipPath><radialGradient id="j" cx="27.5" cy="29.34" r="24.625" gradientUnits="userSpaceOnUse"><stop offset=".002" stop-opacity="0"/><stop offset=".746" stop-opacity="0"/><stop offset="1"/></radialGradient><circle clip-path="url(#i)" fill="url(#j)" cx="27.5" cy="29.3" r="24.6"/></svg>