<svg xmlns="http://www.w3.org/2000/svg" viewBox="0 0 55 75" enable-background="new 0 0 55 75"><linearGradient id="a" gradientUnits="userSpaceOnUse" x1="27.5" x2="27.5" y2="75"><stop offset="0" stop-color="#3A3A3B"/><stop offset="1" stop-color="#353536"/></linearGradient><path fill="url(#a)" d="M0 0v75h55V0H0zm36.8 50.7h-1c-.5 0-1.2-.4-1.4-.8-.2-.4-.3-.8-.4-1.2-.2-.9-.4-1.9-.6-2.8 0-.1-.1-.3-.1-.4-.4 1.4-.9 3.5-.4 4.1.2.2.7.1.8.3.3.5.1 1.2-.7 1-.8-.2-.5-.1-.9-.3-.4-.1-1.1-.7-1.1-1.2v-1.3c.1-.9.2-1.9.3-2.8 0-.3-.1-.9-.1-1.2 0-.2-.3-1.2-.6-2.1-1.6-.2-3.1-1.4-4.2-1.8-1.5-.6-3.2-.8-4.7-.4.3 2.3-.8 2.9-.9 6.3 0 1.4.2 3 .7 3.3.2.1.7-.1.9.1.4.3.4 1.2-.4 1.2h-1c-.5 0-1.2-.4-1.4-.8-.2-.4-.3-.8-.4-1.2-.2-.9-.4-1.9-.6-2.8 0-.2-.1-.4-.2-.6-.7 1.3-1.9 3.6-1.5 4.3.1.2.6.3.7.5.2.5-.3 1.2-1 .8-.7-.4-.4-.3-.8-.5s-.8-1-.8-1.4c.1-.4.4-1.5.5-1.9.2-.4.3-.9.5-1.3.5-2.1-1-5.8-1.2-6.6-.8-2.6-.1-3.5.7-4.6-2-1.4-2.2-3.2-2.1-4.1 0-.3.3-.6.6-.5.3 0 .5.3.6.6.2 2.6 2.1 2.9 2.1 2.9s5.9.1 9.6.1c3.7 0 6-2.3 6-2.3 2.2 1.5 4.4 2.8 4.4 2.8.7 2.6.2 5.7-.4 7.7 0 .1-.1.1-.1.2-.2.8-.4 1.4-.6 1.7v.5c.1.7-.1 4.7.8 5.3.2.1.7-.1.9.1.4.3.4 1.1-.5 1.1zM43.4 31s-.8 3.7-4.9 1.3l-1.3 1-4.2-2.9 5-6.4s.6.3.6 2.8l2.5 2.4s.6.5 1.5.6c.1-.1.3-.1.4-.1.4 0 .7.3.7.7 0 .2-.1.5-.3.6z"/></svg>