<svg xmlns="http://www.w3.org/2000/svg" viewBox="0 0 55 75" enable-background="new 0 0 55 75"><linearGradient id="a" gradientUnits="userSpaceOnUse" x1="27.5" x2="27.5" y2="75"><stop offset="0" stop-color="#3A3A3B"/><stop offset="1" stop-color="#353536"/></linearGradient><path fill="url(#a)" d="M0 0v75h55V0H0zm27.5 22.5c2.2 0 4 1.8 4 4s-1.8 4-4 4-4-1.8-4-4 1.8-4 4-4zM26.6 52l-.2.2c-.5.5-1.3.5-1.7 0l-4.3-4.3c-1-1-1-2.6 0-3.6l2.7-2.7 3.4 3.4-2.6 2.6 2.7 2.7c.4.4.4 1.2 0 1.7zm8-4.1l-4.3 4.3c-.5.5-1.3.5-1.7 0l-.2-.2c-.5-.5-.5-1.3 0-1.7l2.7-2.7-2.6-2.6 3.4-3.4s2.6 2.7 2.7 2.7c1 .9 1 2.5 0 3.6zm3.2-8.1c-.5.5-1.3.5-1.8.1L31.9 36v3.7h-8.8V36L19 39.9c-.5.5-1.3.5-1.7 0l-.1-.1c-.5-.5-.5-1.3 0-1.7l6.2-6.2.1-.1c.2-.2.5-.3.8-.3h6.4c.3 0 .6.1.8.3l.1.1 6.2 6.2c.5.4.5 1.2 0 1.7z"/></svg>