<svg xmlns="http://www.w3.org/2000/svg" viewBox="0 0 55 75" enable-background="new 0 0 55 75"><linearGradient id="a" gradientUnits="userSpaceOnUse" x1="27.5" x2="27.5" y2="75"><stop offset="0" stop-color="#3A3A3B"/><stop offset="1" stop-color="#353536"/></linearGradient><path fill="url(#a)" d="M0 0v75h55V0H0zm23.7 22.5c-.1-.3-.2-.7-.2-1.1 0-2.2 1.8-3.9 3.9-3.9 2.2 0 3.9 1.8 3.9 3.9 0 .4-.1.7-.1 1.1 2.8.7 2.4 2.9 2.4 2.9-2.3 0-2.8-1.3-2.9-1.8-.7 1.1-1.9 1.8-3.3 1.8s-2.5-.7-3.2-1.7c-.1.5-.7 1.7-2.9 1.7 0-.1-.3-2.3 2.4-2.9zm12.8 20.4c-.6 0-1-.4-1.2-.9l-2.6-9.3H32L35.5 48h-3.8v7.5c0 1.1-.9 2-2 2s-2-.9-2-2V48h-.6v7.5c0 1.1-.9 2-2 2s-2-.9-2-2V48h-3.8l3.6-15.3h-.7L19.7 42c-.1.5-.6.9-1.2.9-.8 0-1.3-.7-1.2-1.5l3-12.9c.3-1.3 1.5-2.3 2.9-2.3h8.6c1.4 0 2.5.9 2.9 2.3l3 12.9c.1.8-.5 1.5-1.2 1.5z"/></svg>