<svg xmlns="http://www.w3.org/2000/svg" viewBox="0 0 55 75" enable-background="new 0 0 55 75"><linearGradient id="a" gradientUnits="userSpaceOnUse" x1="27.5" x2="27.5" y2="75"><stop offset="0" stop-color="#3A3A3B"/><stop offset="1" stop-color="#353536"/></linearGradient><path fill="url(#a)" d="M0 0v75h55V0H0zm27.5 8.5c2.7 0 4.8 2.2 4.8 4.8 0 2.7-2.2 4.8-4.8 4.8-2.7 0-4.8-2.2-4.8-4.8 0-2.6 2.1-4.8 4.8-4.8zM38.6 40c-.7 0-1.3-.4-1.5-1.1l-3.2-11.5H33l4.4 18.9h-4.7v17.8c0 1.3-1.1 2.4-2.4 2.4s-2.4-1.1-2.4-2.4V46.3h-.8v17.8c0 1.3-1.1 2.4-2.4 2.4s-2.4-1.1-2.4-2.4V46.3h-4.7L22 27.4h-.9l-3.2 11.5c-.2.6-.8 1.1-1.4 1.1-1 0-1.7-.9-1.4-1.8l3.8-16c.4-1.6 1.9-2.8 3.5-2.8H33c1.7 0 3.2 1.2 3.5 2.8l3.8 16c-.1.9-.8 1.8-1.7 1.8z"/></svg>