<svg xmlns="http://www.w3.org/2000/svg" xmlns:xlink="http://www.w3.org/1999/xlink" version="1.1" id="Layer_1" x="0px" y="0px" viewBox="0 0 55 55" enable-background="new 0 0 55 55" xml:space="preserve"><style>.s0{stop-color:#000000;stop-opacity:0;}.s1{stop-color:#000000;}</style><circle cx="27.4" cy="27.2" r="27.5"/><circle fill="#333333" cx="27.4" cy="27.2" r="22.5"/><g opacity="0.1" enable-background="new    "><defs><circle id="SVGID_1_" cx="27.4" cy="27.2" r="22.5"/></defs><clipPath id="SVGID_2_"><use xlink:href="#SVGID_1_" overflow="visible"/></clipPath><radialGradient id="SVGID_3_" cx="27.5" cy="29.3" r="24.1" gradientTransform="matrix(1 0 0 -1 0 55)" gradientUnits="userSpaceOnUse"><stop offset="3.000000e-03" class="s0"/><stop offset="0.89" class="s0"/><stop offset="1" stop-color="#000000"/></radialGradient><circle clip-path="url(#SVGID_2_)" fill="url(#SVGID_3_)" cx="27.5" cy="25.7" r="24.1"/></g><defs><circle id="SVGID_4_" cx="27.4" cy="27.2" r="22.5"/></defs><clipPath id="SVGID_5_"><use xlink:href="#SVGID_4_" overflow="visible"/></clipPath><radialGradient id="SVGID_6_" cx="27.5" cy="25.7" r="24.6" gradientTransform="matrix(1 0 0 -1 0 55)" gradientUnits="userSpaceOnUse"><stop offset="2.000000e-03" class="s0"/><stop offset="0.746" class="s0"/><stop offset="1" stop-color="#000000"/></radialGradient><circle clip-path="url(#SVGID_5_)" fill="url(#SVGID_6_)" cx="27.5" cy="29.3" r="24.6"/><path d="M17.5 29.4c0 4.9 4.3 9.7 9.7 9.7 5.3 0 9.7-4.4 9.7-9.7 0-5.3-4.3-9.7-9.7-9.7h-0.1v-4.3l-9.4 5.3 9.3 5.5v-3.9h0.1c3.9 0 7.1 3.1 7.1 7 0 3.9-3.2 7.1-7.1 7.1s-7.1-2.9-7.1-7C20 29.4 17.5 29.4 17.5 29.4z"/><linearGradient id="SVGID_7_" gradientUnits="userSpaceOnUse" x1="22.0476" y1="16.7422" x2="33.5185" y2="36.6104" gradientTransform="matrix(-1 0 0 -1 54.4 55)"><stop offset="0" style="stop-color:#FFFFFF;stop-opacity:0.2"/><stop offset="1" class="s0"/></linearGradient><path fill="url(#SVGID_7_)" d="M26.9 15.4l-0.2 4.3h0.1c5.3 0 9.7 4.4 9.7 9.7 0 5.4-4.3 9.7-9.7 9.7 -5.3 0-9.7-4.8-9.7-9.7h2.7c0 4.1 3.2 7 7.1 7s7.1-3.2 7.1-7.1c0-3.9-3.2-7-7.1-7h-0.1v3.9l-9.3-5.5L26.9 15.4M27.2 15.1l-9.4 5.3L17 20.8l0.7 0.4 9.3 5.5 0.7 0.4v-4.3c3.4 0.2 6.2 3 6.2 6.5 0 3.7-3 6.6-6.6 6.6 -3.8 0-6.6-2.8-6.6-6.5v-0.5H17v0.5c0 5.4 4.7 10.2 10.2 10.2 5.6 0 10.2-4.6 10.2-10.2 0-5.5-4.4-10-9.9-10.2v-4.7C27.5 14.5 27.2 15.1 27.2 15.1z"/><defs><path id="SVGID_8_" d="M17.5 29.4c0 4.9 4.3 9.7 9.7 9.7 5.3 0 9.7-4.4 9.7-9.7 0-5.3-4.3-9.7-9.7-9.7h-0.1v-4.3l-9.4 5.3 9.3 5.5v-3.9h0.1c3.9 0 7.1 3.1 7.1 7 0 3.9-3.2 7.1-7.1 7.1s-7.1-2.9-7.1-7C20 29.4 17.5 29.4 17.5 29.4z"/></defs><clipPath id="SVGID_9_"><use xlink:href="#SVGID_8_" overflow="visible"/></clipPath><radialGradient id="SVGID_10_" cx="30.25" cy="25.937" r="14.173" gradientTransform="matrix(-1 0 0 -1 54.4 55)" gradientUnits="userSpaceOnUse"><stop offset="0" stop-color="#1E1E1E"/><stop offset="0.783" style="stop-color:#1E1E1E;stop-opacity:0"/></radialGradient><circle clip-path="url(#SVGID_9_)" fill="url(#SVGID_10_)" cx="24.2" cy="29.1" r="14.2"/></svg>