<svg xmlns="http://www.w3.org/2000/svg" viewBox="0 0 55 75" enable-background="new 0 0 55 75"><g><linearGradient id="a" gradientUnits="userSpaceOnUse" x1="24.315" y1="18.432" x2="24.315" y2="21.427"><stop offset="0" stop-color="#3A3A3B"/><stop offset="1" stop-color="#353536"/></linearGradient><path fill="url(#a)" d="M26.6 20.7c.2-.1.2-.4.1-.5-.6-.6-2.1-1.9-3.4-1.7-1.7.2-1.5 1.4-1 1.9.8 1 2.4 1.6 4.3.3z"/><linearGradient id="b" gradientUnits="userSpaceOnUse" x1="30.852" y1="18.432" x2="30.852" y2="21.427"><stop offset="0" stop-color="#3A3A3B"/><stop offset="1" stop-color="#353536"/></linearGradient><path fill="url(#b)" d="M32.9 20.3c.4-.5.7-1.7-1-1.9-1.3-.1-2.8 1.1-3.4 1.7-.2.2-.1.4.1.5 1.9 1.4 3.4.8 4.3-.3z"/><linearGradient id="c" gradientUnits="userSpaceOnUse" x1="27.5" x2="27.5" y2="75"><stop offset="0" stop-color="#3A3A3B"/><stop offset="1" stop-color="#353536"/></linearGradient><path fill="url(#c)" d="M0 0v75h55V0H0zm21.7 14.1c1.3-2.2 5-2.4 5.6-2.4.6 0 4.2.3 5.6 2.4 1.5 2.3 3.6 6.4.2 9.5-3.4 3.2-3.8 3.4-3.8 3.4s-.9 1-1.9 1.1h-.2c-1-.2-1.9-1.1-1.9-1.1s-.4-.2-3.8-3.4c-3.4-3.1-1.2-7.1.2-9.5zM37 45.3c-.6 0-1.1-.4-1.3-.9L33 34.5h-.8l-.9 5.8v21.6c0 .8-.6 1.4-1.4 1.4s-1.4-.6-1.4-1.4V45.7h-1.9v16.2c0 .8-.6 1.4-1.4 1.4-.8 0-1.4-.6-1.4-1.4V40.3l-.9-5.8h-.8l-2.8 9.9c-.2.6-.7.9-1.2.9-.8 0-1.4-.8-1.2-1.6L20 30c.2-1 1-1.8 1.9-2.2H24c1.1 1 1.3 1.1 1.3 1.1s.9 1 1.9 1.1h.2c1-.2 1.9-1.1 1.9-1.1s.2-.1 1.3-1.1H33c1 .4 1.8 1.2 2 2.2l3.2 13.7c.2.8-.4 1.6-1.2 1.6z"/></g></svg>