<svg xmlns="http://www.w3.org/2000/svg" viewBox="0 0 130 80" enable-background="new 0 0 130 80" width="130px" height="80px"><g fill="#fff"><polygon points="30.3,45.4 20.8,28.2 15,28.2 15,51.9 19.7,51.9 19.7,34.8 29.2,51.9 34.9,51.9 34.9,28.2 30.3,28.2"/><rect x="41.8" y="28.2" width="4.9" height="23.7"/><path d="M61.6 28.2h-8.1v23.7h4.7v-8.5h3.3c5.8 0 8.7-2.5 8.7-7.6s-2.8-7.6-8.6-7.6zm3.2 10c-.7 1.1-1.9 1.6-3.5 1.6h-3v-8.1h3c1.4 0 2.5.4 3.3 1.3.6.7.9 1.6.9 2.7s-.2 1.9-.7 2.5zM82.4 28.2h-8.1v23.7H79v-8.5h3.3c5.8 0 8.7-2.5 8.7-7.6s-2.8-7.6-8.6-7.6zm3.2 10c-.7 1.1-1.9 1.6-3.5 1.6h-3v-8.1h3c1.4 0 2.5.4 3.3 1.3.6.7.9 1.6.9 2.7-.1 1.1-.3 1.9-.7 2.5z"/><polygon points="109.8,28.2 103.7,39.2 97.7,28.2 92.4,28.2 101.2,43.5 101.2,51.9 106.1,51.9 106.1,43.5 114.9,28.2"/></g></svg>