<svg xmlns="http://www.w3.org/2000/svg" viewBox="0 0 130 80" enable-background="new 0 0 130 80" width="130px" height="80px"><g fill="#fff"><polygon points="17.2,34.4 14.9,34.4 14.9,45.6 22.1,45.6 22.1,43.7 17.2,43.7"/><rect x="24.3" y="34.4" width="2.3" height="11.2"/><path d="M35.2 41.3h1.7v2.5c-.3 0-.7.1-1.2.1-1.3 0-2.3-.3-2.9-1-.7-.7-1-1.6-1-2.9 0-1.2.3-2.1 1-2.8.7-.7 1.7-1 2.9-1 .8 0 1.8.1 2.8.2v-1.9c-.9-.2-1.8-.2-2.7-.2-2.1 0-3.8.6-4.9 1.7-1 1-1.6 2.4-1.6 4.1 0 1.9.6 3.4 1.8 4.4 1.1.9 2.5 1.4 4.5 1.4 1.2 0 2.4-.1 3.5-.2v-6h-3.9v1.6z"/><polygon points="49.6,38.7 44.5,38.7 44.5,34.4 42.2,34.4 42.2,45.6 44.5,45.6 44.5,40.8 49.6,40.8 49.6,45.6 51.9,45.6 51.9,34.4 49.6,34.4"/><polygon points="54.1,36.3 57.5,36.3 57.5,45.6 59.8,45.6 59.8,36.3 63.1,36.3 63.1,34.4 54.1,34.4"/><path d="M71.3 39.9c-.4-.3-.9-.5-1.6-.8l-.8-.3c-.6-.2-1-.4-1.2-.6-.3-.2-.5-.5-.5-.9s.1-.7.3-.8c.4-.3 1-.5 1.9-.5.9 0 1.7.1 2.6.4v-1.8c-.9-.2-1.8-.3-2.7-.3-1.3 0-2.3.3-3 .8-.8.6-1.2 1.4-1.2 2.4 0 .9.4 1.7 1.1 2.3.3.3.9.6 1.8.9l.8.3c.8.3 1.2.6 1.4.9.1.2.2.5.2.8 0 .4-.1.7-.4.9-.4.3-1 .5-1.8.5-.9 0-1.9-.2-2.9-.5v1.9c.9.3 1.9.4 3 .4 1.3 0 2.4-.3 3.1-.8.8-.6 1.2-1.4 1.2-2.6-.1-1.2-.5-2-1.3-2.6zM79 34.4h-3.8v11.2h2.2v-4H79c2.7 0 4.1-1.2 4.1-3.6s-1.3-3.6-4.1-3.6zm1.5 4.7c-.3.5-.9.8-1.7.8h-1.4v-3.8h1.4c.7 0 1.2.2 1.6.6.3.3.4.7.4 1.3 0 .5-.1.8-.3 1.1z"/><polygon points="87.9,40.8 92.3,40.8 92.3,38.9 87.9,38.9 87.9,36.3 92.5,36.3 92.5,34.4 85.6,34.4 85.6,45.6 92.6,45.6 92.6,43.7 87.9,43.7"/><polygon points="97.8,40.8 102.2,40.8 102.2,38.9 97.8,38.9 97.8,36.3 102.4,36.3 102.4,34.4 95.5,34.4 95.5,45.6 102.6,45.6 102.6,43.7 97.8,43.7"/><path d="M113.8 35.8c-1-1-2.3-1.4-4.1-1.4h-4.3v11.2h4.3c1.7 0 3.1-.5 4.1-1.4 1-1 1.5-2.4 1.5-4.2.1-1.8-.4-3.2-1.5-4.2zm-1.8 6.9c-.6.7-1.4 1-2.5 1h-1.8v-7.5h1.8c1 0 1.9.3 2.5 1 .6.7.9 1.6.9 2.7s-.3 2.2-.9 2.8z"/></g></svg>