<?xml version="1.0"?><svg xmlns="http://www.w3.org/2000/svg" viewBox="0 0 130 80" enable-background="new 0 0 130 80" width="130px" height="80px"><g fill="#fff"><path d="M36.7 38.6c0-3.5-1-6.3-3-8.4-2-2-4.6-3.1-7.9-3.1-3.3 0-5.9 1-7.9 3.1s-3 4.9-3 8.4 1 6.3 3 8.4c2 2 4.6 3.1 7.8 3.1.9 0 1.8-.1 2.7-.3l3.6 3.1h5.5l-5.2-4.7c3-2.2 4.4-5.4 4.4-9.6zm-6.6 6.1c-1.1 1.2-2.5 1.8-4.3 1.8-1.9 0-3.4-.7-4.5-2.2-1-1.4-1.5-3.3-1.5-5.7 0-2.4.5-4.3 1.5-5.7 1.1-1.5 2.6-2.2 4.4-2.2 1.8 0 3.2.5 4.2 1.6 1.4 1.4 2 3.5 2 6.3 0 2.6-.6 4.7-1.8 6.1zM55 41.4c0 3.2-1.6 4.8-4.9 4.8-3.2 0-4.8-1.6-4.8-4.8V27.6h-4.5v13.9c0 3.3 1.1 5.6 3.3 7 1.5 1 3.5 1.5 6.1 1.5 6.3 0 9.4-2.8 9.4-8.5V27.6H55v13.8z"/><rect x="64.8" y="27.6" width="4.5" height="21.9"/><path d="M80.3 44.2c-1.3-1.3-1.9-3.2-1.9-5.6 0-2.4.6-4.2 1.8-5.5 1.3-1.4 3.1-2.1 5.6-2.1 1.5 0 3.1.2 4.8.6v-3.8c-1.6-.4-3.3-.6-5.2-.6-3.6 0-6.5 1-8.6 2.9-2.2 2-3.2 4.8-3.2 8.4 0 3.9 1.3 6.9 3.8 8.9 2 1.6 4.5 2.4 7.7 2.4 1.9 0 3.8-.2 5.8-.6v-3.9c-1.6.4-3.3.6-5.2.6-2.4.2-4.2-.4-5.4-1.7z"/><polygon points="104.8,37.7 114.1,27.6 108.9,27.6 100.3,37 100.3,27.6 95.7,27.6 95.7,49.6 100.3,49.6 100.3,39.2 109.3,49.6 115.2,49.6"/></g></svg>