<?xml version="1.0"?><svg xmlns="http://www.w3.org/2000/svg" viewBox="0 0 60 80" enable-background="new 0 0 50 80" width="50px" height="80px"><path d="M42.5 40.7l-3.8-16c-.4-1.6-1.9-2.8-3.5-2.8H24.7c-1.7 0-3.2 1.2-3.5 2.8l-3.8 16c-.2.9.5 1.8 1.4 1.8.7 0 1.2-.4 1.4-1.1l3.2-11.5h.9l-4.4 18.9h4.7v17.8c0 1.3 1.1 2.4 2.4 2.4s2.4-1.1 2.4-2.4V48.8h1v17.8c0 1.3 1.1 2.4 2.4 2.4s2.4-1.1 2.4-2.4V48.8h4.7l-4.4-18.9h.9l3.2 11.5c.2.6.8 1.1 1.4 1.1 1 0 1.7-.9 1.5-1.8zM30 20.7c.5 0 4.7-.3 4.7-4.8 0-4.3-3.7-4.8-4.6-4.8h-.2c-.9 0-4.5.5-4.6 4.8 0 4.5 4.2 4.8 4.7 4.8z"/></svg>