<?xml version="1.0"?><svg xmlns="http://www.w3.org/2000/svg" viewBox="0 0 60 80" enable-background="new 0 0 50 80" width="50px" height="80px"><path d="M30 27.9c.4 0 3.9-.2 3.9-4 0-3.6-3.1-4-3.8-4h-.2c-.8 0-3.8.4-3.8 4 0 3.8 3.5 4 3.9 4zM40 43.7L37 31c-.3-1.3-1.5-2.2-2.8-2.2h-8.4c-1.3 0-2.5.9-2.8 2.2l-3 12.8c-.2.7.4 1.5 1.2 1.5.5 0 1-.4 1.1-.9l2.6-9.2h.7v23c0 1.1.9 1.9 1.9 1.9 1.1 0 1.9-.9 1.9-1.9V48h1.2v10c0 1.1.9 1.9 1.9 1.9s1.9-.9 1.9-1.9V35.1h.7l2.6 9.2c.1.5.6.9 1.1.9.8 0 1.4-.7 1.2-1.5z"/></svg>