<?xml version="1.0"?><svg xmlns="http://www.w3.org/2000/svg" viewBox="0 0 60 80" enable-background="new 0 0 50 80" width="50px" height="80px"><path d="M39 38.9c-.1 0-4.5-3.9-4.6-4 0 0-5.9 2.4-6.8 2.7-1.7.4-9.3 2.4-7.3 13.5.1.3.2.7.4 1.1-.8-.2-1.4-.6-1.8-1.1-1.2-1.5-.6-4.4-.1-7 .6-3 1.2-5.8-.9-7-.4-.2-.9-.1-1.2.4-.2.4-.1 1 .3 1.2.9.5.5 2.8 0 5.1-.6 2.9-1.3 6.3.4 8.4 1 1.3 2.7 2 5.1 2h9.4c.1 0 .2 0 .3-.1.3-.1.6-.4.6-.8 0-.3 0-.6-.4-.7-.1 0-1.5.2-1.5-.5v-2.8c0-2-1.7-3.7-3.4-3.7-1.6 0-3.4 1.7-3.4 3.7v2.5c0 .3-.2.6-.5.6s-.5-.3-.5-.6v-2.5c0-2.7 2-4.9 4.3-4.9 1.6 0 3.1 1.1 3.8 2.7.7 0 1.9.2 2.1.5.2.3.4.6.4 1 .2 1.1.4 2.2.7 3.2.1.5.2 1 .4 1.4.2.5 1.1.9 1.6.9h1.1c.9 0 1-1 .5-1.4-.2-.2-.7 0-1-.1-1.1-.6-.8-5.2-.9-6.1-.1-.4 0-.9.2-1.3.3-.3 1.9-4.4 2.7-6.3zM43 35.6c.6-.8-.2-1.9-.2-1.9l-.8-1.4.8-1.5s-2.3.2-4.2.6c-1.9.4-2.2 1.3-2.2 1.3l-1.2 1.5 4.3 3.9c.5-.4.7-.2.7-.2 1.2.5 1.7.3 1.7.3s.6-.7 1.1-1.2c.7-.5 0-1.4 0-1.4z"/></svg>