<svg xmlns="http://www.w3.org/2000/svg" viewBox="95 45 150 135" enable-background="new 95 45 150 135" width="150px" height="135px"><g><path opacity=".1" d="M95 92.3h50.9v15H95z"/><path opacity=".15" d="M95 92.3h50.9v6H95z"/><path opacity=".5" d="M95.1 142.9c17.6-21.1 37.1-42.9 43.1-42.9 11.6 0 11.3 10.4 22 10.4 10.8 0 14.5-33.2 34.5-33.2 11.7 0 28.7 35.9 40.8 65.7H95.1z"/><path opacity=".15" d="M138.2 100c3.4 0 5.7.9 7.6 2.1v-9.8H95v50.4h.3c17.5-21.1 37-42.7 42.9-42.7z"/><path fill="#fff" d="M117.2 117.2s20.7-26.4 28.7-25.6 9.2 5.7 11.9 7c2.7 1.2 9.2 3.4 12.3-2.2 3.1-5.6 13.3-25.9 21.4-24.7 8.1 1.2 15.1 7.5 27.3 33.7l-17.1-17.9-5.8 14.5-4.9-16.3-4.4 18-5.3-11.7-5.8 17.1-4.2-6.5-4.4 24.1-7.4-16.3-3.1 6.2s-5.5-11.8-5.7-11.4c-.3.5-5.3 11-5.3 10.6 0-.5-4.4-11.8-4.4-11.8l-10 11.2 1.8-9.4-15.8 12"/><path d="M186.8 61.4l6.1 14.4h-12.4zM186.1 75.8h1.2v5.9h-1.2zM202.9 69.8l6.1 14.4h-12.4zM202.2 84.2h1.2v5.9h-1.2zM152.1 83.1l6.2 14.3h-12.4zM151.5 97.4h1.2v5.9h-1.2zM139.8 85.9l4.2 9.8h-8.5zM139.3 95.7h.8v4.1h-.8zM164 92.5l4.2 9.8h-8.5zM163.5 102.3h.8v4.1h-.8zM130.7 92.5l4.2 9.8h-8.5zM130.2 102.3h.8v4.1h-.8zM177.7 79.6l4.2 9.8h-8.5zM177.3 89.4h.8v4.1h-.8z"/><path fill="#fff" d="M154.6 65v-.3c0-2.8-2.3-5.1-5.1-5.1-1.7 0-3.1.8-4.1 2-1.1-3.1-4-5.4-7.5-5.4-4.4 0-7.9 3.5-7.9 7.9v.2c-3.5.7-6.2 3.8-6.2 7.6s2.7 6.9 6.3 7.6l-.1.1h23.2c4.1 0 7.4-3.3 7.4-7.4 0-3.6-2.6-6.6-6-7.2zM118.4 94.7v-.2c0-2-1.6-3.6-3.6-3.6-1.2 0-2.2.6-2.9 1.4-.8-2.2-2.9-3.8-5.3-3.8-3.1 0-5.6 2.5-5.6 5.6v.1c-2.5.5-4.4 2.7-4.4 5.4s1.9 4.9 4.5 5.4l-.1.1h16.6c2.9 0 5.3-2.4 5.3-5.3-.2-2.5-2-4.6-4.5-5.1z"/></g><g fill="#fff"><path d="M124.8 167.1v-8.5h2.5l2.2 6.8 2.1-6.8h2.5v8.5h-1.7v-6.3l-2 6.3h-1.8l-2-6.3v6.3h-1.8zM140.3 158.5c1.2 0 2.3.4 3 1.2.8.8 1.2 1.9 1.2 3.2 0 1.4-.4 2.4-1.2 3.2-.8.8-1.8 1.2-3.1 1.2-1.1 0-2.1-.3-2.8-1-.9-.8-1.4-2-1.4-3.5 0-1.4.4-2.4 1.2-3.2.8-.7 1.8-1.1 3.1-1.1zm-.1 1.4c-.7 0-1.3.3-1.7.9-.4.5-.6 1.3-.6 2.2 0 .9.2 1.7.6 2.2.4.6 1 .9 1.7.9s1.2-.2 1.6-.7c.5-.5.7-1.3.7-2.4 0-1.1-.3-1.9-.8-2.4-.2-.5-.8-.7-1.5-.7zM146.5 158.7h1.8v5.3c0 1.2.6 1.9 1.9 1.9 1.3 0 1.9-.6 1.9-1.9v-5.3h1.8v5.4c0 2.2-1.2 3.3-3.6 3.3-1 0-1.8-.2-2.4-.6-.8-.6-1.3-1.5-1.3-2.7v-5.4zM156.2 167.1v-8.5h2.1l3.4 6.1v-6.1h1.7v8.5h-2.1l-3.4-6.1v6.1h-1.7zM167.5 167.1v-7H165v-1.4h6.8v1.4h-2.5v7h-1.8zM177.7 165.2h-3.6l-.7 1.9h-1.7l3.3-8.5h1.9l3.3 8.5h-1.8l-.7-1.9zm-.6-1.4l-1.2-3.5-1.2 3.5h2.4zM181.8 167.1v-8.5h1.8v8.5h-1.8zM186 167.1v-8.5h2.1l3.4 6.1v-6.1h1.7v8.5h-2.1l-3.4-6.1v6.1H186zM195.7 167.1v-8.5h5.2v1.4h-3.4v2h3.3v1.4h-3.3v2.2h3.6v1.4h-5.4zM203.1 167.1v-8.5h5.2v1.4h-3.4v2h3.3v1.4h-3.3v2.2h3.6v1.4h-5.4zM210.5 167.1v-8.5h2.7c2 0 3 .9 3 2.6 0 .7-.2 1.2-.5 1.6-.2.3-.5.5-.9.7l2.2 3.6h-2l-1.9-3.3h-.9v3.3h-1.7zm1.7-4.5h.8c.6 0 1-.2 1.2-.5.1-.2.2-.5.2-.8 0-.4-.1-.7-.4-1-.3-.2-.6-.4-1-.4h-.8v2.7z"/></g></svg>