<svg xmlns="http://www.w3.org/2000/svg" xmlns:xlink="http://www.w3.org/1999/xlink" viewBox="0 0 150 150" enable-background="new 0 0 150 150" width="150px" height="150px"><path fill="none" d="M128.6 63.6c.5 2.4.9 4.8 1.2 7.2l19.7-3.5c-.3-2.5-.7-4.9-1.2-7.2l-19.7 3.5zM138.4 35.9l-17.3 10c1.3 2 2.5 4.2 3.6 6.4l17.4-10c-1.2-2.2-2.4-4.3-3.7-6.4zM120.8 16.5l-12.9 15.3c2 1.5 3.8 3.1 5.6 4.8l12.9-15.3c-1.8-1.7-3.7-3.3-5.6-4.8zM90.6 23.2c2.4.7 4.7 1.6 6.9 2.5l6.9-18.8c-2.2-1-4.5-1.8-6.9-2.5l-6.9 18.8zM71.3 21c1.2-.1 2.4-.1 3.7-.1s2.5.1 3.7.1V1h-7.3v20zM28.9 45.9l-17.3-10C10.3 38 9.1 40.1 8 42.3l17.4 10c1-2.2 2.2-4.3 3.5-6.4zM21.4 63.6L1.7 60.1c-.5 2.4-.9 4.8-1.2 7.2l19.7 3.5c.3-2.4.7-4.8 1.2-7.2zM23.6 21.3l12.9 15.3c1.7-1.7 3.6-3.3 5.6-4.8L29.2 16.5c-1.9 1.5-3.8 3.1-5.6 4.8zM20.4 82.7L.7 86.2c.3 2.4.8 4.8 1.4 7.2l19.7-3.5c-.6-2.4-1.1-4.8-1.4-7.2zM8.6 110.9c1.1 2.2 2.4 4.3 3.7 6.3l17.4-10c-1.4-2-2.6-4.1-3.8-6.3l-17.3 10zM45.7 6.9l6.9 18.8c2.2-1 4.5-1.9 6.9-2.5l-7-18.9c-2.3.8-4.6 1.6-6.8 2.6z"/><path fill="#1E1E1E" d="M0 0v150h150V0H0zm11.6 35.9l17.3 10c-1.3 2-2.5 4.2-3.6 6.4L8 42.3c1.1-2.2 2.3-4.3 3.6-6.4zM1.7 60.1l19.7 3.5c-.5 2.4-.9 4.8-1.2 7.2L.5 67.4c.3-2.5.7-4.9 1.2-7.3zm-1 26.1l19.7-3.5c.3 2.5.8 4.9 1.4 7.2L2.1 93.4C1.5 91 1 88.6.7 86.2zm11.7 31c-1.3-2-2.6-4.1-3.7-6.3l17.3-10c1.1 2.2 2.4 4.3 3.8 6.3l-17.4 10zm24.1-80.6L23.6 21.3c1.8-1.7 3.6-3.3 5.6-4.8l12.9 15.3c-2 1.5-3.8 3.1-5.6 4.8zm16-10.9L45.7 6.9c2.2-1 4.5-1.8 6.9-2.5l6.9 18.8c-2.5.7-4.8 1.5-7 2.5zM78.7 21c-1.2-.1-2.4-.1-3.7-.1s-2.5.1-3.7.1V1h7.3v20zm18.8 4.7c-2.2-1-4.5-1.9-6.9-2.5l6.9-18.8c2.3.7 4.6 1.6 6.9 2.5l-6.9 18.8zm10.4 6.1l12.9-15.3c1.9 1.5 3.8 3.1 5.6 4.8l-12.9 15.3c-1.8-1.7-3.6-3.3-5.6-4.8zm13.2 14.1l17.3-10c1.3 2.1 2.5 4.2 3.6 6.4l-17.4 10c-1-2.2-2.2-4.3-3.5-6.4zm26.8 47.5l-19.7-3.5c.6-2.3 1.1-4.8 1.4-7.2l19.7 3.5c-.3 2.4-.8 4.8-1.4 7.2zm-18.1-22.6c-.2-2.5-.6-4.9-1.2-7.2l19.7-3.5c.5 2.4.9 4.8 1.2 7.2l-19.7 3.5z"/><defs><path id="a" d="M150 106l-38.2-14-.1 30H0v28h150z"/></defs><clipPath id="b"><use xlink:href="#a" overflow="visible"/></clipPath><g opacity=".05" clip-path="url(#b)"><linearGradient id="c" gradientUnits="userSpaceOnUse" x1="123.099" y1="52.57" x2="139.935" y2="35.733"><stop offset="0" stop-color="#fff"/><stop offset="1"/></linearGradient><path fill="url(#c)" d="M138.4 35.9c1.3 2.1 2.5 4.2 3.6 6.4l-17.4 10c-1.1-2.2-2.3-4.4-3.6-6.4l17.4-10m.4-1.3l-.8.5-17.3 10-.9.5.6.9c1.3 2 2.5 4.2 3.5 6.3l.5 1 .9-.5 17.4-10 .8-.5-.4-.8c-1.1-2.2-2.3-4.4-3.7-6.5l-.6-.9z"/><linearGradient id="d" gradientUnits="userSpaceOnUse" x1="13.287" y1="49.347" x2="23.679" y2="38.956"><stop offset="0" stop-color="#fff"/><stop offset="1"/></linearGradient><path fill="url(#d)" d="M11.6 35.9l17.3 10c-1.3 2-2.5 4.2-3.6 6.4L8 42.3c1.1-2.2 2.3-4.3 3.6-6.4m-.4-1.3l-.5.8c-1.3 2.1-2.6 4.3-3.7 6.5l-.4.8.8.5 17.4 10 .9.5.5-1c1-2.1 2.2-4.2 3.5-6.3l.6-.9-.9-.5-17.3-10-.9-.4z"/><linearGradient id="e" gradientUnits="userSpaceOnUse" x1="3.864" y1="72.651" x2="18.161" y2="58.354"><stop offset="0" stop-color="#fff"/><stop offset="1"/></linearGradient><path fill="url(#e)" d="M1.7 60.1l19.7 3.5c-.5 2.4-.9 4.8-1.2 7.2L.5 67.4c.3-2.5.7-4.9 1.2-7.3M.9 59l-.2.9c-.5 2.4-.9 4.9-1.2 7.3l-.1.9.9.2L20 71.8l1.1.2.1-1.1c.2-2.4.6-4.8 1.1-7.1l.2-1-1-.2-19.6-3.5-1-.1z"/><linearGradient id="f" gradientUnits="userSpaceOnUse" x1="3.062" y1="96.261" x2="19.555" y2="79.769"><stop offset="0" stop-color="#fff"/><stop offset="1"/></linearGradient><path fill="url(#f)" d="M20.4 82.7c.3 2.5.8 4.9 1.4 7.2L2.1 93.4c-.6-2.4-1-4.8-1.3-7.2l19.6-3.5m.9-1.2l-1 .2L.5 85.2l-.9.2.1 1c.3 2.4.8 4.9 1.4 7.3l.2.9.9-.2L22 90.9l1.1-.2-.3-1c-.6-2.3-1-4.6-1.3-7.1l-.2-1.1z"/><linearGradient id="g" gradientUnits="userSpaceOnUse" x1="10.887" y1="117.326" x2="27.58" y2="100.633"><stop offset="0" stop-color="#fff"/><stop offset="1"/></linearGradient><path fill="url(#g)" d="M26 100.8c1.1 2.2 2.4 4.3 3.8 6.3l-17.4 10c-1.3-2-2.6-4.1-3.7-6.3l17.3-10m.4-1.4l-.9.5L8.1 110l-.8.5.4.9c1.2 2.2 2.4 4.3 3.8 6.4l.5.8.8-.5 17.4-10 .9-.5-.6-.9c-1.3-2-2.6-4-3.7-6.2l-.4-1.1z"/><linearGradient id="h" gradientUnits="userSpaceOnUse" x1="28.925" y1="30.57" x2="36.864" y2="22.632"><stop offset="0" stop-color="#fff"/><stop offset="1"/></linearGradient><path fill="url(#h)" d="M29.2 16.5l12.9 15.3c-2 1.5-3.8 3.1-5.6 4.8L23.6 21.3c1.8-1.7 3.7-3.3 5.6-4.8m.2-1.4l-.8.6c-1.9 1.5-3.9 3.1-5.7 4.8l-.7.6.6.7 12.9 15.3.7.8.8-.8c1.7-1.7 3.6-3.3 5.5-4.7l.8-.6-.7-.8L30 15.9l-.6-.8z"/><linearGradient id="i" gradientUnits="userSpaceOnUse" x1="46.242" y1="21.367" x2="58.833" y2="8.777"><stop offset="0" stop-color="#fff"/><stop offset="1"/></linearGradient><path fill="url(#i)" d="M52.5 4.3l6.9 18.8c-2.4.7-4.7 1.6-6.9 2.5L45.7 6.9c2.2-1 4.5-1.8 6.8-2.6m.6-1.2l-.9.3c-2.4.7-4.7 1.6-7 2.6l-.9.4.3.9 6.9 18.8.4 1 1-.4c2.2-1 4.5-1.8 6.8-2.5l1-.3-.4-1L53.5 4l-.4-.9z"/><linearGradient id="j" gradientUnits="userSpaceOnUse" x1="67.14" y1="18.913" x2="82.86" y2="3.193"><stop offset="0" stop-color="#fff"/><stop offset="1"/></linearGradient><path fill="url(#j)" d="M78.7 1v20c-1.2-.1-2.4-.1-3.7-.1s-2.5.1-3.7.1V1h7.4m1-1h-9.3v22.1l1.1-.1c1.4-.1 2.5-.1 3.6-.1s2.2 0 3.6.1l1.1.1V0h-.1z"/><linearGradient id="k" gradientUnits="userSpaceOnUse" x1="89.011" y1="23.524" x2="105.915" y2="6.62"><stop offset="0" stop-color="#fff"/><stop offset="1"/></linearGradient><path fill="url(#k)" d="M97.5 4.3c2.3.7 4.6 1.6 6.9 2.5l-6.9 18.8c-2.2-1-4.5-1.9-6.9-2.5l6.9-18.8m-.6-1.2l-.4.9-6.9 18.8-.4 1 1 .3c2.3.7 4.6 1.5 6.8 2.5l1 .4.4-1 6.9-18.8.3-.9-.9-.4c-2.3-1-4.6-1.8-7-2.6l-.8-.2z"/><linearGradient id="l" gradientUnits="userSpaceOnUse" x1="109.087" y1="34.619" x2="125.123" y2="18.583"><stop offset="0" stop-color="#fff"/><stop offset="1"/></linearGradient><path fill="url(#l)" d="M120.8 16.5c1.9 1.5 3.8 3.1 5.6 4.8l-12.9 15.3c-1.7-1.7-3.6-3.3-5.6-4.8l12.9-15.3m-.2-1.4l-.6.7-12.9 15.3-.7.8.8.6c1.9 1.4 3.7 3 5.5 4.7l.8.8.7-.8 12.9-15.3.6-.7-.7-.6c-1.8-1.7-3.7-3.3-5.7-4.8l-.7-.7z"/><linearGradient id="m" gradientUnits="userSpaceOnUse" x1="125.55" y1="114.196" x2="135.983" y2="103.763"><stop offset="0" stop-color="#fff"/><stop offset="1"/></linearGradient><path fill="url(#m)" d="M124 100.8l17.3 10c-1.1 2.2-2.4 4.3-3.7 6.3l-17.4-10c1.4-2 2.7-4.1 3.8-6.3m-.4-1.4l-.5.9c-1.1 2.2-2.3 4.2-3.7 6.2l-.6.9.9.5 17.4 10 .8.5.5-.8c1.4-2.1 2.6-4.2 3.8-6.4l.4-.9-.8-.5-17.3-10-.9-.4z"/><linearGradient id="n" gradientUnits="userSpaceOnUse" x1="131.494" y1="95.213" x2="145.889" y2="80.818"><stop offset="0" stop-color="#fff"/><stop offset="1"/></linearGradient><path fill="url(#n)" d="M129.6 82.7l19.7 3.5c-.3 2.4-.8 4.8-1.3 7.2l-19.7-3.5c.5-2.4 1-4.8 1.3-7.2m-.9-1.2l-.1 1c-.3 2.4-.8 4.8-1.3 7.1l-.3 1 1.1.2 19.7 3.5.9.2.2-.9c.6-2.4 1-4.9 1.4-7.3l.1-1-.9-.2-19.7-3.5-1.1-.1z"/><linearGradient id="o" gradientUnits="userSpaceOnUse" x1="130.667" y1="73.823" x2="147.308" y2="57.182"><stop offset="0" stop-color="#fff"/><stop offset="1"/></linearGradient><path fill="url(#o)" d="M148.3 60.1c.5 2.4.9 4.8 1.2 7.2l-19.7 3.5c-.2-2.5-.6-4.9-1.2-7.2l19.7-3.5m.8-1.1l-.9.2-19.7 3.5-1 .2.2 1c.5 2.4.9 4.7 1.1 7.1l.1 1.1 1.1-.2 19.7-3.5.9-.2-.1-.9c-.3-2.5-.7-4.9-1.2-7.3l-.2-1z"/></g><defs><path id="p" d="M150 106l-45.7-14v30H0v28h150z"/></defs><clipPath id="q"><use xlink:href="#p" overflow="visible"/></clipPath><g clip-path="url(#q)" fill="#010202"><path d="M142 42.3l-17.4 10c-1.1-2.2-2.3-4.4-3.6-6.4l17.3-10c1.4 2.1 2.6 4.2 3.7 6.4zM11.6 35.9l17.3 10c-1.3 2-2.5 4.2-3.6 6.4L8 42.3c1.1-2.2 2.3-4.3 3.6-6.4zM1.7 60.1l19.7 3.5c-.5 2.4-.9 4.8-1.2 7.2L.5 67.4c.3-2.5.7-4.9 1.2-7.3zM.7 86.2l19.7-3.5c.3 2.5.8 4.9 1.4 7.2L2.1 93.4C1.5 91 1 88.6.7 86.2zM12.4 117.2c-1.3-2-2.6-4.1-3.7-6.3l17.3-10c1.1 2.2 2.4 4.3 3.8 6.3l-17.4 10zM36.5 36.6L23.6 21.3c1.8-1.7 3.6-3.3 5.6-4.8l12.9 15.3c-2 1.5-3.8 3.1-5.6 4.8zM52.5 25.7L45.7 6.9c2.2-1 4.5-1.8 6.9-2.5l6.9 18.8c-2.5.7-4.8 1.5-7 2.5zM75 20.9c-1.2 0-2.5.1-3.7.1V1h7.3v20c-1.1 0-2.4-.1-3.6-.1zM97.5 25.7c-2.2-1-4.5-1.9-6.9-2.5l6.9-18.8c2.3.7 4.6 1.6 6.9 2.5l-6.9 18.8zM107.9 31.8l12.9-15.3c1.9 1.5 3.8 3.1 5.6 4.8l-12.9 15.3c-1.8-1.7-3.6-3.3-5.6-4.8zM137.6 117.2l-17.4-10c1.4-2 2.6-4.1 3.8-6.3l17.3 10c-1.1 2.1-2.3 4.2-3.7 6.3zM147.9 93.4l-19.7-3.5c.6-2.3 1.1-4.8 1.4-7.2l19.7 3.5c-.3 2.4-.8 4.8-1.4 7.2zM129.8 70.8c-.2-2.5-.6-4.9-1.2-7.2l19.7-3.5c.5 2.4.9 4.8 1.2 7.2l-19.7 3.5z"/></g></svg>