<?xml version="1.0"?><svg xmlns="http://www.w3.org/2000/svg" xmlns:xlink="http://www.w3.org/1999/xlink" viewBox="0 0 160 100" enable-background="new 0 0 160 100"><g><linearGradient id="a" gradientUnits="userSpaceOnUse" x1="80.472" y1="39.794" x2="80.472" y2="99.111"><stop offset=".481" stop-color="#010202"/><stop offset=".925" stop-color="#010202" stop-opacity=".145"/><stop offset="1" stop-color="#010202" stop-opacity="0"/></linearGradient><path fill="url(#a)" d="M153.9 71.4H7.1v17.8c0 6 4.8 10.8 10.8 10.8h125.2c6 0 10.8-4.8 10.8-10.8V71.4z"/></g><g><linearGradient id="b" gradientUnits="userSpaceOnUse" x1="108.679" y1="95.383" x2="52.776" y2="-1.444"><stop offset="0" stop-color="#474747"/><stop offset="1" stop-color="#504F4F"/></linearGradient><path fill="url(#b)" d="M150.5 0h-140C8.6 0 7.1 1.5 7.1 3.4v86.2c0 1.9 1.5 3.4 3.4 3.4h140c1.9 0 3.4-1.5 3.4-3.4V3.4c0-1.9-1.5-3.4-3.4-3.4zM21.2 20c-3 0-5.4-2.4-5.4-5.4 0-3 2.4-5.4 5.4-5.4s5.4 2.4 5.4 5.4c0 3-2.5 5.4-5.4 5.4zm59.3 35.5C69.7 55.5 61 46.8 61 36s8.7-19.5 19.5-19.5S100 25.2 100 36s-8.8 19.5-19.5 19.5z"/></g><g><radialGradient id="c" cx="21.117" cy="14.658" r="5.375" gradientTransform="matrix(.916 0 0 .916 1.769 1.218)" gradientUnits="userSpaceOnUse"><stop offset=".006" stop-opacity="0"/><stop offset=".225" stop-color="#010101" stop-opacity="0"/><stop offset=".304" stop-color="#040404" stop-opacity="0"/><stop offset=".36" stop-color="#0A0A09" stop-opacity="0"/><stop offset=".406" stop-color="#101010" stop-opacity="0"/><stop offset=".445" stop-color="#151514" stop-opacity="0"/><stop offset=".478" stop-color="#191818" stop-opacity="0"/><stop offset=".5" stop-color="#1A1919" stop-opacity="0"/><stop offset=".535" stop-color="#171516" stop-opacity=".07"/><stop offset=".687" stop-color="#0B0A0B" stop-opacity=".374"/><stop offset=".82" stop-color="#040405" stop-opacity=".641"/><stop offset=".929" stop-color="#020203" stop-opacity=".859"/><stop offset="1" stop-color="#010202"/></radialGradient><circle opacity=".5" fill="url(#c)" cx="21.2" cy="14.6" r="4.9"/></g><g><radialGradient id="d" cx="22.254" cy="11.83" r="2.135" gradientTransform="matrix(1.181 0 0 1.076 -5.093 -.885)" gradientUnits="userSpaceOnUse"><stop offset="0" stop-color="#fff"/><stop offset="1" stop-color="#fff" stop-opacity="0"/></radialGradient><ellipse opacity=".5" fill="url(#d)" cx="21.2" cy="12.4" rx="3.2" ry="1.5"/></g><g><linearGradient id="e" gradientUnits="userSpaceOnUse" x1="21.18" y1="20.47" x2="21.18" y2="8.72"><stop offset="0" stop-color="#4D4D4D"/><stop offset="1" stop-color="#3C3C3B"/></linearGradient><circle opacity=".8" fill="none" stroke="url(#e)" stroke-miterlimit="10" cx="21.2" cy="14.6" r="5.4"/></g><g><defs><path id="f" d="M150.5 0h-140C8.6 0 7.1 1.5 7.1 3.4v86.2c0 1.9 1.5 3.4 3.4 3.4h140c1.9 0 3.4-1.5 3.4-3.4V3.4c0-1.9-1.5-3.4-3.4-3.4zm-70 55.5C69.7 55.5 61 46.8 61 36s8.7-19.5 19.5-19.5S100 25.2 100 36s-8.8 19.5-19.5 19.5z"/></defs><clipPath id="g"><use xlink:href="#f" overflow="visible"/></clipPath><radialGradient id="h" cx="80.563" cy="36.076" r="21" gradientUnits="userSpaceOnUse"><stop offset=".568" stop-color="#fff"/><stop offset=".729" stop-color="#fff"/><stop offset="1" stop-color="#fff" stop-opacity="0"/></radialGradient><circle clip-path="url(#g)" fill="url(#h)" cx="80.6" cy="36.1" r="21"/></g><g fill="#fff"><path d="M40.9 67.7v1.6c-.5-.2-1.1-.2-1.6-.2-.9 0-1.5.2-1.9.8-.4.5-.6 1.2-.6 2.1 0 .9.2 1.6.7 2.1.4.5 1.1.7 1.9.7.6 0 1.1-.1 1.7-.2v1.6c-.6.1-1.2.2-1.9.2-1.2 0-2.2-.3-3-.9-1-.8-1.4-1.9-1.4-3.5 0-1.4.4-2.5 1.2-3.3.8-.8 1.8-1.2 3.2-1.2.4 0 1 .1 1.7.2zM46.5 67.4c1.2 0 2.2.4 2.9 1.2.7.8 1.1 1.9 1.1 3.3s-.4 2.5-1.1 3.3c-.7.8-1.7 1.2-3 1.2-1.1 0-2-.3-2.7-1-.9-.8-1.3-2-1.3-3.5 0-1.4.4-2.5 1.1-3.3.7-.8 1.7-1.2 3-1.2zm-.1 1.6c-.6 0-1.1.3-1.5.8-.3.5-.5 1.2-.5 2.1 0 .9.2 1.6.5 2.1s.8.8 1.5.8c.6 0 1.1-.2 1.5-.7.4-.5.5-1.2.5-2.2 0-1-.2-1.8-.7-2.3-.2-.4-.7-.6-1.3-.6zM52.6 76.1v-8.5h1.9l2.9 5.3v-5.3h1.9v8.5h-1.8l-3-5.4v5.4h-1.9zM62 76.1v-8.5h1.9l2.9 5.3v-5.3h1.9v8.5h-1.8l-3-5.4v5.4H62zM71.3 76.1v-8.5h5.1v1.6h-3.1V71h3v1.6h-3v1.9h3.3v1.6h-5.3zM84.3 67.7v1.6c-.5-.2-1.1-.2-1.6-.2-.9 0-1.5.2-1.9.8-.4.5-.6 1.2-.6 2.1 0 .9.2 1.6.7 2.1.4.5 1.1.7 1.9.7.6 0 1.1-.1 1.7-.2v1.6c-.6.1-1.2.2-1.9.2-1.2 0-2.2-.3-3-.9-1-.8-1.4-1.9-1.4-3.5 0-1.4.4-2.5 1.2-3.3.8-.8 1.8-1.2 3.2-1.2.3 0 1 .1 1.7.2zM87.8 76.1v-6.8h-2.2v-1.6H92v1.6h-2.2v6.8h-2zM93.7 76.1v-8.5h2v8.5h-2zM100.3 76.1l-3-8.5h2l2 6.2 2-6.2h1.9l-3 8.5h-1.9zM106.9 76.1v-8.5h2v8.5h-2zM112.8 76.1v-6.8h-2.2v-1.6h6.5v1.6h-2.2v6.8h-2.1zM120.8 76.1V73l-3-5.4h2.1l1.9 3.6 1.9-3.6h2.1l-3 5.4v3.1h-2z"/></g><g opacity=".3"><defs><circle id="i" opacity=".3" cx="80.5" cy="36" r="19.5"/></defs><clipPath id="j"><use xlink:href="#i" overflow="visible"/></clipPath><radialGradient id="k" cx="80.472" cy="41.61" r="22.784" gradientTransform="matrix(.973 0 0 .973 2.161 -1.836)" gradientUnits="userSpaceOnUse"><stop offset=".766" stop-color="#010202" stop-opacity="0"/><stop offset=".954" stop-color="#010202" stop-opacity=".931"/><stop offset="1" stop-color="#010202"/></radialGradient><circle clip-path="url(#j)" fill="url(#k)" cx="80.5" cy="38.7" r="22.2"/></g><path fill="#010202" d="M88.9 33.1l-.6-1.2c-1.5-2.5-4.1-4.2-7.1-4.4-.3-.1-1.3-.1-1.6 0-3 .3-5.6 2-7.1 4.4l-.6 1.2c-.4 1.1-.7 2.2-.7 3.4v.3c0 .4.1.8.1 1.2.7 4.1 4.1 7.3 8.3 7.6H81c4.2-.3 7.7-3.5 8.3-7.6.1-.4.1-.8.1-1.2v-.3c.2-1.2 0-2.4-.5-3.4zm-5.5 10.6c.7-1 1.2-2.2 1.5-3.7 1.1-.2 2.1-.5 2.9-.8-.8 2-2.4 3.7-4.4 4.5zm-10.2-4.5c.8.4 1.8.6 2.9.8.3 1.5.9 2.8 1.5 3.7-2.1-.8-3.7-2.5-4.4-4.5zm-.5-2.7c0-1 .2-1.9.5-2.8.7.3 1.6.6 2.5.8-.1.6-.1 1.3-.1 1.9 0 .7 0 1.4.1 2.1-1.5-.3-2.5-.8-3-1.2v-.8zm4.7-7.1c-.6 1-1.1 2.3-1.4 3.8-.9-.2-1.6-.4-2.2-.6.8-1.5 2.1-2.6 3.6-3.2zm9.7 3.1c-.6.2-1.3.5-2.2.6-.3-1.5-.8-2.8-1.4-3.8 1.6.7 2.8 1.8 3.6 3.2zm1.2 4v.8c-.5.4-1.5.9-3 1.2.1-.7.1-1.4.1-2.1 0-.7 0-1.3-.1-1.9 1-.2 1.8-.4 2.6-.8.2.9.4 1.8.4 2.8zm-4.4-.1c0 .8-.1 1.6-.2 2.4-.7.1-1.6.2-2.6.2v-4c.9 0 1.8-.1 2.7-.2.1.5.1 1 .1 1.6zm-6.9 0c0-.6 0-1.1.1-1.7.9.1 1.8.2 2.7.2V39c-1 0-1.8-.1-2.6-.2-.1-.7-.2-1.5-.2-2.4zm4.1-2.8v-4.8c1 .5 2 2.2 2.5 4.6-.7.1-1.5.2-2.5.2zm-1.3-4.8v4.8c-.9 0-1.8-.1-2.5-.2.5-2.4 1.5-4 2.5-4.6zm0 11.6V44c-.9-.5-1.8-1.8-2.3-3.8.7.1 1.5.2 2.3.2zm1.3 3.6v-3.7c.8 0 1.6-.1 2.3-.2-.4 2.1-1.3 3.5-2.3 3.9z"/><g><linearGradient id="l" gradientUnits="userSpaceOnUse" x1="80.472" y1="93.053" x2="80.472"><stop offset="0" stop-color="#3C3C3B"/><stop offset=".438" stop-color="#3E3D3D"/><stop offset=".599" stop-color="#424241"/><stop offset=".714" stop-color="#494948"/><stop offset=".807" stop-color="#515150"/><stop offset=".887" stop-color="#585958"/><stop offset=".957" stop-color="#5E5E5E"/><stop offset=".995" stop-color="#5F605F"/></linearGradient><path fill="url(#l)" d="M150.5 1c1.3 0 2.4 1.1 2.4 2.4v86.2c0 1.3-1.1 2.4-2.4 2.4h-140c-1.3 0-2.4-1.1-2.4-2.4V3.4c0-1.3 1-2.4 2.4-2.4h140m0-1h-140C8.6 0 7.1 1.5 7.1 3.4v86.2c0 1.9 1.5 3.4 3.4 3.4h140c1.9 0 3.4-1.5 3.4-3.4V3.4c0-1.9-1.5-3.4-3.4-3.4z"/></g></svg>