<svg xmlns="http://www.w3.org/2000/svg" xmlns:xlink="http://www.w3.org/1999/xlink" viewBox="0 0 160 100" enable-background="new 0 0 160 100"><circle fill="#1D1D1D" cx="21.1" cy="14.5" r="6.4"/><g><path fill="#111" d="M150.5-.1h-140c-1.9 0-3.4 1.5-3.4 3.4v86.2c0 1.9 1.5 3.4 3.4 3.4h140c1.9 0 3.4-1.5 3.4-3.4V3.4c0-1.9-1.5-3.5-3.4-3.5zm-129.3 20c-3 0-5.4-2.4-5.4-5.4 0-3 2.4-5.4 5.4-5.4s5.4 2.4 5.4 5.4c0 3-2.5 5.4-5.4 5.4z"/><radialGradient id="a" cx="21.18" cy="14.535" r="5.375" gradientUnits="userSpaceOnUse"><stop offset=".006" stop-opacity="0"/><stop offset=".245" stop-color="#010101" stop-opacity="0"/><stop offset=".332" stop-color="#040404" stop-opacity="0"/><stop offset=".393" stop-color="#0A0A09" stop-opacity="0"/><stop offset=".443" stop-color="#101010" stop-opacity="0"/><stop offset=".485" stop-color="#151514" stop-opacity="0"/><stop offset=".522" stop-color="#191818" stop-opacity="0"/><stop offset=".546" stop-color="#1A1919" stop-opacity="0"/><stop offset=".55" stop-color="#191718" stop-opacity=".167"/><stop offset=".554" stop-color="#161415" stop-opacity=".348"/><stop offset=".559" stop-color="#100F10" stop-opacity=".536"/><stop offset=".563" stop-color="#09080A" stop-opacity=".728"/><stop offset=".568" stop-color="#030304" stop-opacity=".922"/><stop offset=".57" stop-color="#010202"/><stop offset=".99" stop-color="#010202"/></radialGradient><circle fill="url(#a)" cx="21.2" cy="14.5" r="5.4"/><linearGradient id="b" gradientUnits="userSpaceOnUse" x1="21.18" y1="20.41" x2="21.18" y2="8.66"><stop offset=".003" stop-color="#3A3938"/><stop offset="1"/></linearGradient><circle fill="none" stroke="url(#b)" stroke-miterlimit="10" cx="21.2" cy="14.5" r="5.4"/></g><g><defs><path id="c" d="M150.1.3h-140C8.2.3 6.7 1.8 6.7 3.7v86.2c0 1.9 1.5 3.4 3.4 3.4h140c1.9 0 3.4-1.5 3.4-3.4V3.7c.1-1.9-1.5-3.4-3.4-3.4z"/></defs><clipPath id="d"><use xlink:href="#c" overflow="visible"/></clipPath><linearGradient id="e" gradientUnits="userSpaceOnUse" x1="79.722" y1="98.5" x2="79.722" y2="-6"><stop offset=".633" stop-color="#010202" stop-opacity="0"/><stop offset=".905" stop-color="#010202" stop-opacity=".881"/><stop offset=".942" stop-color="#010202"/><stop offset=".99" stop-color="#010202"/><stop offset=".998" stop-color="#010202"/></linearGradient><path clip-path="url(#d)" fill="url(#e)" d="M147.7 98.5h-136c-6.6 0-12-5.4-12-12V6c0-6.6 5.4-12 12-12h136c6.6 0 12 5.4 12 12v80.5c0 6.6-5.4 12-12 12z"/></g><g><radialGradient id="f" cx="80.472" cy="35.925" r="21" gradientUnits="userSpaceOnUse"><stop offset=".568" stop-color="#fff"/><stop offset=".729" stop-color="#fff"/><stop offset="1" stop-color="#fff" stop-opacity="0"/></radialGradient><circle opacity=".5" fill="url(#f)" cx="80.5" cy="35.9" r="21"/></g><g><radialGradient id="g" cx="80.472" cy="38.803" r="33.397" gradientTransform="matrix(.973 0 0 .973 2.161 -1.836)" gradientUnits="userSpaceOnUse"><stop offset=".395" stop-color="#fff"/><stop offset=".579" stop-color="#fff" stop-opacity=".2"/><stop offset=".66" stop-color="#fff" stop-opacity="0"/></radialGradient><circle opacity=".4" fill="url(#g)" cx="80.5" cy="35.9" r="32.5"/><circle fill="#1D1D1D" cx="80.5" cy="35.9" r="19.5"/><defs><circle id="h" cx="80.5" cy="35.9" r="19.5"/></defs><clipPath id="i"><use xlink:href="#h" overflow="visible"/></clipPath><radialGradient id="j" cx="80.472" cy="41.549" r="22.784" gradientTransform="matrix(.973 0 0 .973 2.161 -1.836)" gradientUnits="userSpaceOnUse"><stop offset=".766" stop-color="#010202" stop-opacity="0"/><stop offset=".954" stop-color="#010202" stop-opacity=".931"/><stop offset="1" stop-color="#010202"/></radialGradient><circle clip-path="url(#i)" fill="url(#j)" cx="80.5" cy="38.6" r="22.2"/></g><path fill="#6E6E6D" d="M88.9 33.1l-.6-1.2c-1.5-2.5-4.1-4.2-7.1-4.4-.3-.1-1.3-.1-1.6 0-3 .3-5.6 2-7.1 4.4l-.6 1.2c-.4 1.1-.7 2.2-.7 3.4v.3c0 .4.1.8.1 1.2.7 4.1 4.1 7.3 8.3 7.6H81c4.2-.3 7.7-3.5 8.3-7.6.1-.4.1-.8.1-1.2v-.3c.2-1.2 0-2.4-.5-3.4zm-5.5 10.6c.7-1 1.2-2.2 1.5-3.7 1.1-.2 2.1-.5 2.9-.8-.8 2-2.4 3.7-4.4 4.5zm-10.2-4.5c.8.4 1.8.6 2.9.8.3 1.5.9 2.8 1.5 3.7-2.1-.8-3.7-2.5-4.4-4.5zm-.5-2.7c0-1 .2-1.9.5-2.8.7.3 1.6.6 2.5.8-.1.6-.1 1.3-.1 1.9 0 .7 0 1.4.1 2.1-1.5-.3-2.5-.8-3-1.2v-.8zm4.7-7.1c-.6 1-1.1 2.3-1.4 3.8-.9-.2-1.6-.4-2.2-.6.8-1.5 2.1-2.6 3.6-3.2zm9.7 3.1c-.6.2-1.3.5-2.2.6-.3-1.5-.8-2.8-1.4-3.8 1.6.7 2.8 1.8 3.6 3.2zm1.2 4v.8c-.5.4-1.5.9-3 1.2.1-.7.1-1.4.1-2.1 0-.7 0-1.3-.1-1.9 1-.2 1.8-.4 2.6-.8.2.9.4 1.8.4 2.8zm-4.4-.1c0 .8-.1 1.6-.2 2.4-.7.1-1.6.2-2.6.2v-4c.9 0 1.8-.1 2.7-.2.1.5.1 1 .1 1.6zm-6.9 0c0-.6 0-1.1.1-1.7.9.1 1.8.2 2.7.2V39c-1 0-1.8-.1-2.6-.2-.1-.7-.2-1.5-.2-2.4zm4.1-2.8v-4.8c1 .5 2 2.2 2.5 4.6-.7.1-1.5.2-2.5.2zm-1.3-4.8v4.8c-.9 0-1.8-.1-2.5-.2.5-2.4 1.5-4 2.5-4.6zm0 11.6V44c-.9-.5-1.8-1.8-2.3-3.8.7.1 1.5.2 2.3.2zm1.3 3.6v-3.7c.8 0 1.6-.1 2.3-.2-.4 2.1-1.3 3.5-2.3 3.9z"/><g><linearGradient id="k" gradientUnits="userSpaceOnUse" x1="80.472" y1="92.993" x2="80.472" y2="-.06"><stop offset="0" stop-color="#373636"/><stop offset=".437" stop-color="#363635"/><stop offset=".598" stop-color="#353534"/><stop offset=".713" stop-color="#343333"/><stop offset=".806" stop-color="#313130"/><stop offset=".887" stop-color="#2D2D2C"/><stop offset=".956" stop-color="#292928"/><stop offset=".995" stop-color="#252625"/></linearGradient><path fill="url(#k)" d="M150.5.9c1.3 0 2.4 1.1 2.4 2.4v86.2c0 1.3-1.1 2.4-2.4 2.4h-140c-1.3 0-2.4-1.1-2.4-2.4V3.4C8.1 2.1 9.2 1 10.5 1h140m0-1.1h-140c-1.9 0-3.4 1.5-3.4 3.4v86.2c0 1.9 1.5 3.4 3.4 3.4h140c1.9 0 3.4-1.5 3.4-3.4V3.4c0-1.9-1.5-3.5-3.4-3.5z"/><g fill="#676767"><path d="M40.9 67.7v1.6c-.5-.2-1.1-.2-1.6-.2-.9 0-1.5.2-1.9.8-.4.5-.6 1.2-.6 2.1 0 .9.2 1.6.7 2.1.4.5 1.1.7 1.9.7.6 0 1.1-.1 1.7-.2v1.6c-.6.1-1.2.2-1.9.2-1.2 0-2.2-.3-3-.9-1-.8-1.4-1.9-1.4-3.5 0-1.4.4-2.5 1.2-3.3.8-.8 1.8-1.2 3.2-1.2.4 0 1 .1 1.7.2zM46.5 67.4c1.2 0 2.2.4 2.9 1.2.7.8 1.1 1.9 1.1 3.3s-.4 2.5-1.1 3.3c-.7.8-1.7 1.2-3 1.2-1.1 0-2-.3-2.7-1-.9-.8-1.3-2-1.3-3.5 0-1.4.4-2.5 1.1-3.3.7-.8 1.7-1.2 3-1.2zm-.1 1.6c-.6 0-1.1.3-1.5.8-.3.5-.5 1.2-.5 2.1 0 .9.2 1.6.5 2.1s.8.8 1.5.8c.6 0 1.1-.2 1.5-.7.4-.5.5-1.2.5-2.2 0-1-.2-1.8-.7-2.3-.2-.4-.7-.6-1.3-.6zM52.6 76.1v-8.5h1.9l2.9 5.3v-5.3h1.9v8.5h-1.8l-3-5.4v5.4h-1.9zM62 76.1v-8.5h1.9l2.9 5.3v-5.3h1.9v8.5h-1.8l-3-5.4v5.4H62zM71.3 76.1v-8.5h5.1v1.6h-3.1V71h3v1.6h-3v1.9h3.3v1.6h-5.3zM84.3 67.7v1.6c-.5-.2-1.1-.2-1.6-.2-.9 0-1.5.2-1.9.8-.4.5-.6 1.2-.6 2.1 0 .9.2 1.6.7 2.1.4.5 1.1.7 1.9.7.6 0 1.1-.1 1.7-.2v1.6c-.6.1-1.2.2-1.9.2-1.2 0-2.2-.3-3-.9-1-.8-1.4-1.9-1.4-3.5 0-1.4.4-2.5 1.2-3.3.8-.8 1.8-1.2 3.2-1.2.3 0 1 .1 1.7.2zM87.8 76.1v-6.8h-2.2v-1.6H92v1.6h-2.2v6.8h-2zM93.7 76.1v-8.5h2v8.5h-2zM100.3 76.1l-3-8.5h2l2 6.2 2-6.2h1.9l-3 8.5h-1.9zM106.9 76.1v-8.5h2v8.5h-2zM112.8 76.1v-6.8h-2.2v-1.6h6.5v1.6h-2.2v6.8h-2.1zM120.8 76.1V73l-3-5.4h2.1l1.9 3.6 1.9-3.6h2.1l-3 5.4v3.1h-2z"/></g></g></svg>