<svg xmlns="http://www.w3.org/2000/svg" xmlns:xlink="http://www.w3.org/1999/xlink" viewBox="0 0 140 45" enable-background="new 0 0 140 45" width="140px" height="45px"><linearGradient id="a" gradientUnits="userSpaceOnUse" x1="17.55" y1="34.013" x2="17.55" y2="44.921"><stop offset="0"/><stop offset=".274" stop-opacity=".6"/><stop offset=".95" stop-opacity="0"/></linearGradient><path fill="url(#a)" d="M31.1 39.8h-27v3.3c0 1.1.9 2 2 2h23c1.1 0 2-.9 2-2v-3.3z"/><linearGradient id="b" gradientUnits="userSpaceOnUse" x1="17.533" y1="4.374" x2="17.533" y2="40.626"><stop offset="0" stop-color="#505050"/><stop offset="1" stop-color="#494949"/></linearGradient><path fill="url(#b)" d="M4 4.4h27v36.3H4z"/><defs><path id="c" d="M4 4.4h27v36.3H4z"/></defs><clipPath id="d"><use xlink:href="#c" overflow="visible"/></clipPath><linearGradient id="e" gradientUnits="userSpaceOnUse" x1="17.499" y1="-29.36" x2="17.499" y2="-31.704" gradientTransform="matrix(-1 0 0 -1 35.001 9.094)"><stop offset="0" stop-opacity="0"/><stop offset=".999"/></linearGradient><path opacity=".3" clip-path="url(#d)" fill="url(#e)" d="M3 38.5h29v2.3H3z"/><linearGradient id="f" gradientUnits="userSpaceOnUse" x1=".199" y1="-42.935" x2=".199" y2="-45.196" gradientTransform="matrix(0 1 -1 0 -13.032 22.125)"><stop offset="0" stop-opacity="0"/><stop offset=".999"/></linearGradient><path opacity=".3" clip-path="url(#d)" fill="url(#f)" d="M29.9 3.1h2.3v38.5h-2.3z"/><linearGradient id="g" gradientUnits="userSpaceOnUse" x1=".199" y1="-70.935" x2=".199" y2="-73.196" gradientTransform="matrix(0 1 1 0 76.099 22.125)"><stop offset="0" stop-opacity="0"/><stop offset=".999"/></linearGradient><path opacity=".3" clip-path="url(#d)" fill="url(#g)" d="M2.9 3.1h2.3v38.5H2.9z"/><linearGradient id="h" gradientUnits="userSpaceOnUse" x1="17.502" y1="5.719" x2="17.502" y2="3.374"><stop offset="0" stop-color="#fff" stop-opacity="0"/><stop offset=".998" stop-color="#fff"/></linearGradient><path opacity=".3" clip-path="url(#d)" fill="url(#h)" d="M3 3.4h29v2.3H3z"/><path clip-path="url(#d)" fill="#1E1E1E" d="M4 22h27v1H4z"/></svg>