<svg xmlns="http://www.w3.org/2000/svg" xmlns:xlink="http://www.w3.org/1999/xlink" version="1.1" id="Layer_1" x="0" y="0" viewBox="0 0 55 55" enable-background="new 0 0 55 55" xml:space="preserve"><style>.s0{stop-color:#FFFFFF;stop-opacity:0.2;}.s1{stop-color:#000000;stop-opacity:0;}</style><circle cx="27.4" cy="27.2" r="27.5"/><linearGradient id="SVGID_1_" gradientUnits="userSpaceOnUse" x1="27.4" y1="50.3" x2="27.4" y2="5.3" gradientTransform="matrix(1 0 0 -1 0 55)"><stop offset="0" stop-color="#535252"/><stop offset="1" stop-color="#434343"/></linearGradient><circle fill="url(#SVGID_1_)" cx="27.4" cy="27.2" r="22.5"/><radialGradient id="SVGID_2_" cx="27.4" cy="27.8" r="22.5" gradientTransform="matrix(1 0 0 -1 0 55)" gradientUnits="userSpaceOnUse"><stop offset="0" style="stop-color:#4F4F4F;stop-opacity:0"/><stop offset="0.89" style="stop-color:#565555;stop-opacity:0"/><stop offset="0.9" style="stop-color:#5B5B5B;stop-opacity:0.03"/><stop offset="0.92" style="stop-color:#6B6A6A;stop-opacity:0.06"/><stop offset="0.94" style="stop-color:#858484;stop-opacity:0.09"/><stop offset="0.96" style="stop-color:#A9A9A9;stop-opacity:0.13"/><stop offset="0.98" style="stop-color:#D7D7D7;stop-opacity:0.17"/><stop offset="1" class="s0"/></radialGradient><circle fill="url(#SVGID_2_)" cx="27.4" cy="27.2" r="22.5"/><g opacity="0.7" enable-background="new    "><defs><circle id="SVGID_3_" cx="27.4" cy="27.2" r="22.5"/></defs><clipPath id="SVGID_4_"><use xlink:href="#SVGID_3_" overflow="visible"/></clipPath><radialGradient id="SVGID_5_" cx="27.5" cy="29.3" r="24.1" gradientTransform="matrix(1 0 0 -1 0 55)" gradientUnits="userSpaceOnUse"><stop offset="0" class="s1"/><stop offset="0.89" class="s1"/><stop offset="1" stop-color="#000000"/></radialGradient><circle clip-path="url(#SVGID_4_)" fill="url(#SVGID_5_)" cx="27.5" cy="25.7" r="24.1"/></g><path d="M17.5 29.4c0 4.9 4.3 9.7 9.7 9.7 5.3 0 9.7-4.4 9.7-9.7 0-5.3-4.3-9.7-9.7-9.7h-0.1v-4.3l-9.4 5.3 9.3 5.5v-3.9h0.1c3.9 0 7.1 3.1 7.1 7 0 3.9-3.2 7.1-7.1 7.1s-7.1-2.9-7.1-7C20 29.4 17.5 29.4 17.5 29.4z"/><linearGradient id="SVGID_6_" gradientUnits="userSpaceOnUse" x1="22.05" y1="16.74" x2="33.52" y2="36.61" gradientTransform="matrix(-1 0 0 -1 54.4 55)"><stop offset="0" class="s0"/><stop offset="1" class="s1"/></linearGradient><path fill="url(#SVGID_6_)" d="M26.9 15.4l-0.2 4.3h0.1c5.3 0 9.7 4.4 9.7 9.7 0 5.4-4.3 9.7-9.7 9.7 -5.3 0-9.7-4.8-9.7-9.7h2.7c0 4.1 3.2 7 7.1 7s7.1-3.2 7.1-7.1c0-3.9-3.2-7-7.1-7h-0.1v3.9l-9.3-5.5L26.9 15.4M27.2 15.1l-9.4 5.3L17 20.8l0.7 0.4 9.3 5.5 0.7 0.4v-4.3c3.4 0.2 6.2 3 6.2 6.5 0 3.7-3 6.6-6.6 6.6 -3.8 0-6.6-2.8-6.6-6.5v-0.5H17v0.5c0 5.4 4.7 10.2 10.2 10.2 5.6 0 10.2-4.6 10.2-10.2 0-5.5-4.4-10-9.9-10.2v-4.7C27.5 14.5 27.2 15.1 27.2 15.1z"/><defs><path id="SVGID_7_" d="M17.5 29.4c0 4.9 4.3 9.7 9.7 9.7 5.3 0 9.7-4.4 9.7-9.7 0-5.3-4.3-9.7-9.7-9.7h-0.1v-4.3l-9.4 5.3 9.3 5.5v-3.9h0.1c3.9 0 7.1 3.1 7.1 7 0 3.9-3.2 7.1-7.1 7.1s-7.1-2.9-7.1-7C20 29.4 17.5 29.4 17.5 29.4z"/></defs><clipPath id="SVGID_8_"><use xlink:href="#SVGID_7_" overflow="visible"/></clipPath><radialGradient id="SVGID_9_" cx="30.25" cy="25.94" r="14.17" gradientTransform="matrix(-1 0 0 -1 54.4 55)" gradientUnits="userSpaceOnUse"><stop offset="0" stop-color="#1E1E1E"/><stop offset="0.78" style="stop-color:#1E1E1E;stop-opacity:0"/></radialGradient><circle clip-path="url(#SVGID_8_)" fill="url(#SVGID_9_)" cx="24.2" cy="29.1" r="14.2"/></svg>