<svg xmlns="http://www.w3.org/2000/svg" xmlns:xlink="http://www.w3.org/1999/xlink" viewBox="0 0 55 55" enable-background="new 0 0 55 55" width="55px" height="55px"><circle cx="27.4" cy="27.2" r="27.5"/><linearGradient id="a" gradientUnits="userSpaceOnUse" x1="27.375" y1="4.718" x2="27.375" y2="49.718"><stop offset=".004" stop-color="#535252"/><stop offset="1" stop-color="#434343"/></linearGradient><circle fill="url(#a)" cx="27.4" cy="27.2" r="22.5"/><radialGradient id="b" cx="27.375" cy="27.218" r="22.5" gradientUnits="userSpaceOnUse"><stop offset="0" stop-color="#4F4F4F" stop-opacity="0"/><stop offset=".887" stop-color="#565555" stop-opacity="0"/><stop offset=".902" stop-color="#5B5B5B" stop-opacity=".025"/><stop offset=".919" stop-color="#6B6A6A" stop-opacity=".057"/><stop offset=".939" stop-color="#858484" stop-opacity=".092"/><stop offset=".961" stop-color="#A9A9A9" stop-opacity=".13"/><stop offset=".983" stop-color="#D7D7D7" stop-opacity=".17"/><stop offset="1" stop-color="#fff" stop-opacity=".2"/></radialGradient><circle fill="url(#b)" cx="27.4" cy="27.2" r="22.5"/><path d="M34.4 29.4c0 4.1-3.2 7-7.1 7-3.9 0-7.1-3.2-7.1-7.1s3.2-7 7.1-7h.1v3.9l9.3-5.5-9.4-5.3v4.3h-.1c-5.4 0-9.7 4.4-9.7 9.7 0 5.3 4.4 9.7 9.7 9.7 5.4 0 9.7-4.8 9.7-9.7h-2.5z"/><g opacity=".7"><defs><circle id="c" opacity=".7" cx="27.4" cy="27.2" r="22.5"/></defs><clipPath id="d"><use xlink:href="#c" overflow="visible"/></clipPath><radialGradient id="e" cx="27.5" cy="25.74" r="24.127" gradientUnits="userSpaceOnUse"><stop offset="0" stop-opacity="0"/><stop offset=".89" stop-opacity="0"/><stop offset="1"/></radialGradient><circle clip-path="url(#d)" fill="url(#e)" cx="27.5" cy="25.7" r="24.1"/></g><linearGradient id="f" gradientUnits="userSpaceOnUse" x1="33.832" y1="37.336" x2="22.23" y2="17.24"><stop offset="0" stop-color="#fff" stop-opacity=".2"/><stop offset="1" stop-opacity="0"/></linearGradient><path fill="url(#f)" d="M27.5 15.4l9.4 5.3-9.3 5.5v-3.9h-.1c-3.9 0-7.1 3.1-7.1 7s3.2 7.1 7.1 7.1c3.9 0 7.1-2.9 7.1-7h2.7c0 4.9-4.4 9.7-9.7 9.7-5.4 0-9.7-4.3-9.7-9.7 0-5.3 4.4-9.7 9.7-9.7h.1l-.2-4.3m-.6-.9v4.7c-5.5.2-9.9 4.7-9.9 10.2 0 5.6 4.6 10.2 10.2 10.2 5.5 0 10.2-4.8 10.2-10.2v-.5h-3.7v.5c0 3.7-2.8 6.5-6.6 6.5-3.6 0-6.6-2.9-6.6-6.6 0-3.5 2.8-6.3 6.2-6.5v4.3l.7-.4 9.3-5.5.7-.4-.8-.4-9.4-5.3-.3-.6z"/><defs><path id="g" d="M34.4 29.4c0 4.1-3.2 7-7.1 7-3.9 0-7.1-3.2-7.1-7.1s3.2-7 7.1-7h.1v3.9l9.3-5.5-9.4-5.3v4.3h-.1c-5.4 0-9.7 4.4-9.7 9.7 0 5.3 4.4 9.7 9.7 9.7 5.4 0 9.7-4.8 9.7-9.7h-2.5z"/></defs><clipPath id="h"><use xlink:href="#g" overflow="visible"/></clipPath><radialGradient id="i" cx="30.25" cy="29.063" r="14.173" gradientUnits="userSpaceOnUse"><stop offset="0" stop-color="#1E1E1E"/><stop offset=".783" stop-color="#1E1E1E" stop-opacity="0"/></radialGradient><circle clip-path="url(#h)" fill="url(#i)" cx="30.2" cy="29.1" r="14.2"/></svg>