<?xml version="1.0"?><svg xmlns="http://www.w3.org/2000/svg" viewBox="0 0 130 80" enable-background="new 0 0 130 80" width="130px" height="80px"><g fill="#fff"><polygon points="26.4,44 19.3,31.1 15,31.1 15,48.9 18.5,48.9 18.5,36.1 25.6,48.9 29.9,48.9 29.9,31.1 26.4,31.1"/><rect x="35.1" y="31.1" width="3.7" height="17.7"/><path d="M50 31.1h-6v17.7h3.5v-6.4H50c4.3 0 6.5-1.9 6.5-5.7s-2.1-5.6-6.5-5.6zm2.4 7.5c-.5.8-1.4 1.2-2.7 1.2h-2.3v-6h2.3c1.1 0 1.9.3 2.5 1 .4.5.7 1.2.7 2s-.2 1.4-.5 1.8zM66.4 31.1h-6v17.7h3.5v-6.4h2.5c4.3 0 6.5-1.9 6.5-5.7s-2.2-5.6-6.5-5.6zm2.4 7.5c-.5.8-1.4 1.2-2.7 1.2h-2.3v-6h2.3c1.1 0 1.9.3 2.5 1 .4.5.7 1.2.7 2-.1.8-.2 1.4-.5 1.8z"/><rect x="76.8" y="31.1" width="3.7" height="17.7"/><polygon points="89.3,41.3 96.2,41.3 96.2,38.3 89.3,38.3 89.3,34.1 96.5,34.1 96.5,31.1 85.6,31.1 85.6,48.9 96.8,48.9 96.8,45.9 89.3,45.9"/><path d="M110.3 41.3c.8-.4 1.4-.8 1.9-1.4.7-.8 1-1.9 1-3.4 0-3.6-2.1-5.4-6.4-5.4h-5.6v17.7h3.5V42h2.1l4 6.8h4.2l-4.7-7.5zm-1.2-3c-.5.7-1.4 1.1-2.5 1.1h-1.8v-5.6h1.8c.9 0 1.7.2 2.2.7.5.5.8 1.2.8 2-.1.8-.2 1.4-.5 1.8z"/></g></svg>