<svg xmlns="http://www.w3.org/2000/svg" width="160" height="160" xmlns:xlink="http://www.w3.org/1999/xlink" enable-background="new 0 0 15 160"><defs><radialGradient cx="26.503" cy="78.75" r="26.903999" xlink:href="#a" gradientUnits="userSpaceOnUse" gradientTransform="matrix(-.947 0 0 4.159 123.45 -244.082)"/><radialGradient id="c" cx="26.503" cy="78.75" r="26.903999" xlink:href="#a" gradientUnits="userSpaceOnUse" gradientTransform="matrix(-.947 0 0 4.159 123.45 -244.082)"/><radialGradient id="b" cx="26.503" cy="78.75" r="26.903999" xlink:href="#a" gradientUnits="userSpaceOnUse" gradientTransform="matrix(.947 0 0 4.159 .512 -248.773)"/></defs><radialGradient id="a" cx="26.503" cy="78.75" r="26.903999" gradientTransform="matrix(.947 0 0 4.159 .512 -248.773)" gradientUnits="userSpaceOnUse"><stop offset=".464"/><stop offset=".879" stop-opacity=".112"/><stop offset=".931" stop-opacity="0"/></radialGradient><path fill="url(#b)" d="M15 0v160H7l-.2-1c-9-52.2-9-105.7 0-158l.1-.8c0-.1.1-.2.3-.2H15z" transform="translate(-.05)"/><path fill="#010202" d="M14.95 0v160h-1.5l-.2-1c-9.5-52.2-9.5-105.7 0-158l.2-1h1.5z"/><path fill="url(#c)" d="M108.96162 4.69149v160h8l.2-1c9-52.2 9-105.7 0-158l-.1-.8c0-.1-.1-.2-.3-.2h-7.8z" transform="translate(36.088 -4.691)"/><path fill="#010202" d="M145.04962.00049v160h1.5l.2-1c9.5-52.2 9.5-105.7 0-158l-.2-1h-1.5z"/></svg>