<?xml version="1.0" encoding="utf-8"?>
<svg version="1.1" id="Layer_1" xmlns="http://www.w3.org/2000/svg" xmlns:xlink="http://www.w3.org/1999/xlink" x="0px" y="0px"
	 viewBox="425 460 150 80" enable-background="new 425 460 150 80" xml:space="preserve" width="130px" height="80px">
<g>
	<path fill="#FFFFFF" d="M439.4,494.3h-2.7v13.2h8.5v-2.3h-5.8 M447.8,494.3h2.8v13.2h-2.8V494.3z M460.7,502.4h2v3
		c-0.4,0-0.9,0.1-1.4,0.1c-1.5,0-2.7-0.4-3.4-1.1c-0.8-0.8-1.1-1.9-1.1-3.4c0-1.4,0.4-2.5,1.1-3.3c0.8-0.8,1.9-1.3,3.4-1.3
		c1,0,2.2,0.1,3.3,0.3v-2.3c-1.1-0.3-2.2-0.3-3.2-0.3c-2.5,0-4.4,0.6-5.7,1.9c-1.3,1.3-1.9,2.8-1.9,4.8c0,2.3,0.6,3.9,2,5.2
		c1.3,1,3,1.7,5.2,1.7c1.4,0,2.8,0,4.1-0.1v-7.1h-4.6v1.9H460.7z M477.7,499.4h-6.1v-5.1h-2.8v13.2h2.8v-5.7h6.1v5.7h2.7v-13.2h-2.7
		 M483,496.4h3.9v11h2.7v-11h3.9v-2.2H483 M503.2,500.8c-0.4-0.3-1-0.6-1.9-1l-1-0.4c-0.6-0.3-1.1-0.5-1.4-0.6
		c-0.4-0.3-0.6-0.6-0.6-1c0-0.5,0.1-0.8,0.4-1c0.4-0.4,1.1-0.6,2.3-0.6c1,0,2,0.1,3,0.5v-2.2c-1-0.3-2.2-0.4-3.3-0.4
		c-1.5,0-2.7,0.4-3.6,1c-1,0.8-1.4,1.7-1.4,2.8c0,1.1,0.4,2,1.3,2.7c0.4,0.3,1,0.6,2,1l1,0.4c0.9,0.4,1.4,0.8,1.7,1
		c0.1,0.3,0.3,0.5,0.3,0.9s-0.1,0.8-0.5,1.1s-1.1,0.6-2.2,0.6s-2.2-0.1-3.4-0.5v2.3c1,0.4,2.3,0.5,3.6,0.5c1.7,0,2.8-0.4,3.7-1
		c0.9-0.8,1.4-1.7,1.4-3C504.6,502.4,504.3,501.4,503.2,500.8L503.2,500.8z M512.4,494.3h-4.4v13.2h2.5v-4.7h1.9
		c3.3,0,4.8-1.4,4.8-4.2C517.2,495.7,515.7,494.3,512.4,494.3z M514.2,499.9c-0.4,0.6-1,0.9-2,0.9h-1.7v-4.6h1.7
		c0.8,0,1.4,0.3,1.8,0.8c0.4,0.4,0.5,0.9,0.5,1.5C514.5,499,514.4,499.5,514.2,499.9L514.2,499.9z M522.9,501.8h5.1v-2.2h-5.1v-3.2
		h5.3v-2.2h-8.1v13.2h8.4v-2.3h-5.6 M534.6,501.8h5.2v-2.2h-5.2v-3.2h5.3v-2.2h-8.1v13.2h8.4v-2.3h-5.6 M553.5,495.9
		c-1.1-1.1-2.8-1.7-4.8-1.7h-5.1v13.2h5.1c2,0,3.6-0.5,4.8-1.7c1.3-1.1,1.8-2.8,1.8-5C555.3,498.7,554.7,497.1,553.5,495.9z
		 M551.4,504.1c-0.6,0.8-1.7,1.1-2.9,1.1h-2.2v-8.8h2.2c1.3,0,2.2,0.4,2.9,1.1c0.6,0.8,1,1.9,1,3.2
		C552.4,502.2,552.1,503.3,551.4,504.1z"/>
</g>
<path fill="#FFFFFF" d="M559.2,500.9l-1.3-1l1.3-1.8l-2-0.6l0.5-1.7l2,0.8v-2.3h1.7v2.3l2-0.8l0.5,1.7l-2,0.6l1.3,1.8l-1.3,1
	l-1.3-1.8L559.2,500.9L559.2,500.9z"/>
</svg>
