<svg xmlns="http://www.w3.org/2000/svg" viewBox="0 0 130 80"><g fill="#FFF"><path d="M17 35.5h-2.1v10.4h6.7v-1.8H17M23.6 35.5h2.2v10.4h-2.2zM33.8 41.9h1.6v2.4c-.3 0-.7.1-1.1.1-1.2 0-2.1-.3-2.7-.9-.6-.6-.9-1.5-.9-2.7 0-1.1.3-2 .9-2.6.6-.6 1.5-1 2.7-1 .8 0 1.7.1 2.6.2v-1.8c-.9-.2-1.7-.2-2.5-.2-2 0-3.5.5-4.5 1.5s-1.5 2.2-1.5 3.8c0 1.8.5 3.1 1.6 4.1 1 .8 2.4 1.3 4.1 1.3 1.1 0 2.2 0 3.2-.1v-5.6h-3.6v1.5zM47.2 39.5h-4.8v-4h-2.2v10.4h2.2v-4.5h4.8v4.5h2.1V35.5h-2.1M51.4 37.2h3.1v8.7h2.1v-8.7h3.1v-1.7h-8.3M67.3 40.6c-.3-.2-.8-.5-1.5-.8l-.8-.3c-.5-.2-.9-.4-1.1-.5-.3-.2-.5-.5-.5-.8 0-.4.1-.6.3-.8.3-.3.9-.5 1.8-.5.8 0 1.6.1 2.4.4v-1.7c-.8-.2-1.7-.3-2.6-.3-1.2 0-2.1.3-2.8.8-.8.6-1.1 1.3-1.1 2.2 0 .9.3 1.6 1 2.1.3.2.8.5 1.6.8l.8.3c.7.3 1.1.6 1.3.8.1.2.2.4.2.7 0 .3-.1.6-.4.9-.3.3-.9.5-1.7.5-.8 0-1.7-.1-2.7-.4v1.8c.8.3 1.8.4 2.8.4 1.3 0 2.2-.3 2.9-.8.7-.6 1.1-1.3 1.1-2.4.1-1.1-.2-1.9-1-2.4zM74.5 35.5H71v10.4h2v-3.7h1.5c2.6 0 3.8-1.1 3.8-3.3 0-2.3-1.2-3.4-3.8-3.4zm1.4 4.4c-.3.5-.8.7-1.6.7H73V37h1.3c.6 0 1.1.2 1.4.6.3.3.4.7.4 1.2.1.4 0 .8-.2 1.1zM82.8 41.4h4v-1.7h-4v-2.5H87v-1.7h-6.4v10.4h6.6v-1.8h-4.4M92 41.4h4.1v-1.7H92v-2.5h4.2v-1.7h-6.4v10.4h6.6v-1.8H92M106.9 36.8c-.9-.9-2.2-1.3-3.8-1.3h-4v10.4h4c1.6 0 2.8-.4 3.8-1.3s1.4-2.2 1.4-3.9c0-1.7-.5-3-1.4-3.9zm-1.7 6.4c-.5.6-1.3.9-2.3.9h-1.7v-6.9h1.7c1 0 1.7.3 2.3.9.5.6.8 1.5.8 2.5 0 1.1-.2 2-.8 2.6z"/></g><path fill="#FFF" d="M111.4 40.7l-1-.8 1-1.4-1.6-.5.4-1.3 1.6.6v-1.8h1.3v1.8l1.6-.6.4 1.3-1.6.5 1 1.4-1 .8-1-1.4-1.1 1.4z"/></svg>