<?xml version="1.0"?><svg xmlns="http://www.w3.org/2000/svg" viewBox="0 0 130 80" enable-background="new 0 0 130 80" width="130px" height="80px"><g fill="#fff"><polygon points="29.4,43.9 26.5,32.6 23.5,32.6 20.5,43.9 17.9,32.6 14.8,32.6 18.8,47.4 22,47.4 24.9,36.6 27.8,47.4 31,47.4 35.1,32.6 32,32.6"/><path d="M43 32.3c-2.2 0-4 .7-5.3 2-1.3 1.4-2 3.2-2 5.6 0 2.6.8 4.6 2.4 6 1.3 1.1 2.9 1.7 4.9 1.7 2.2 0 4-.7 5.3-2.1 1.4-1.4 2-3.3 2-5.6 0-2.4-.7-4.2-2-5.6-1.4-1.3-3.1-2-5.3-2zm2.8 11.8c-.7.8-1.7 1.2-2.9 1.2-1.3 0-2.3-.5-3-1.5-.7-.9-1-2.2-1-3.8 0-1.6.3-2.9 1-3.8.7-1 1.7-1.5 3-1.5 1.2 0 2.1.4 2.8 1.1.9 1 1.4 2.4 1.4 4.2-.1 1.8-.5 3.1-1.3 4.1zM59.3 32.3c-2.2 0-4 .7-5.3 2-1.3 1.4-2 3.2-2 5.6 0 2.6.8 4.6 2.4 6 1.3 1.1 2.9 1.7 4.9 1.7 2.2 0 4-.7 5.3-2.1 1.4-1.4 2-3.3 2-5.6 0-2.4-.7-4.2-2-5.6-1.4-1.3-3.1-2-5.3-2zm2.8 11.8c-.7.8-1.7 1.2-2.9 1.2-1.3 0-2.3-.5-3-1.5-.7-.9-1-2.2-1-3.8 0-1.6.3-2.9 1-3.8.7-1 1.7-1.5 3-1.5 1.2 0 2.1.4 2.8 1.1.9 1 1.4 2.4 1.4 4.2-.1 1.8-.5 3.1-1.3 4.1z"/><polygon points="78.8,38.3 72.1,38.3 72.1,32.6 69,32.6 69,47.4 72.1,47.4 72.1,41 78.8,41 78.8,47.4 81.9,47.4 81.9,32.6 78.8,32.6"/><path d="M91.6 32.3c-2.2 0-4 .7-5.3 2-1.3 1.4-2 3.2-2 5.6 0 2.6.8 4.6 2.4 6 1.3 1.1 2.9 1.7 4.9 1.7 2.2 0 4-.7 5.3-2.1 1.4-1.4 2-3.3 2-5.6 0-2.4-.7-4.2-2-5.6-1.3-1.3-3.1-2-5.3-2zm2.9 11.8c-.7.8-1.7 1.2-2.9 1.2-1.3 0-2.3-.5-3-1.5-.7-.9-1-2.2-1-3.8 0-1.6.3-2.9 1-3.8.7-1 1.7-1.5 3-1.5 1.2 0 2.1.4 2.8 1.1.9 1 1.4 2.4 1.4 4.2-.1 1.8-.5 3.1-1.3 4.1zM113.2 34.4c-1.3-1.4-3.1-2-5.2-2-2.2 0-4 .7-5.3 2-1.3 1.4-2 3.2-2 5.6 0 2.6.8 4.6 2.4 6 1.3 1.1 2.9 1.7 4.9 1.7 2.2 0 4-.7 5.3-2.1 1.4-1.4 2-3.3 2-5.6-.1-2.4-.7-4.2-2.1-5.6zm-2.4 9.7c-.7.8-1.7 1.2-2.9 1.2-1.3 0-2.3-.5-3-1.5-.7-.9-1-2.2-1-3.8 0-1.6.3-2.9 1-3.8.7-1 1.7-1.5 3-1.5 1.2 0 2.1.4 2.8 1.1.9 1 1.4 2.4 1.4 4.2-.1 1.8-.5 3.1-1.3 4.1z"/></g></svg>